<svg xmlns="http://www.w3.org/2000/svg" width="383" height="223" viewBox="0 0 23.79 13.85" shape-rendering="geometricPrecision" text-rendering="geometricPrecision" image-rendering="optimizeQuality" fill-rule="evenodd" clip-rule="evenodd"><defs><style>.fil2{fill:#fefefe}.fil1{fill:#ef7f1a}.fil0{fill:#0f56a1}</style></defs><g id="Слой_x0020_1"><g id="_2257801758544"><path class="fil0" d="M11.3 13.55l.04-.02.59-.08a60.62 60.62 0 001.18-.21c.56-.11 1.31-.4 1.74-.71l.22-.13.48-.39.09-.09c.21-.18.34-.33.52-.52.11-.11.21-.26.31-.39.4-.48.78-1.18 1.05-1.75l.21-.48c.07.01.97.48 1.1.55l1.1.57 2.09-.77c-.1.4-.55 1.15-.81 1.45l-.06.06c-.1.13-.2.22-.28.3-.16.17-.26.25-.43.39-2.24 1.9-6.17 2.34-9.14 2.22zM3.55 5.84c-.29.13-1.38.78-1.78.98l-.89.49-.45.24c-.09.05-.38.2-.43.26l1.16.1a6.45 6.45 0 001.23 2.83l.23.28.13.13c.36.39.79.71 1.26 1.01.64.41 1.35.69 2.1.93 2.47.79 6.65.94 9.17.55a13.46 13.46 0 003.9-1.17 6.37 6.37 0 002.7-2.36c.22-.37.48-.94.57-1.44a2.3 2.3 0 00-.34.12l-.32.12-1.27.47c-.11.04-.53.24-.63.18l-2.3-1.18c-.06.09-.14.33-.19.45-.17.4-.41.9-.63 1.26-.34.55-.43.64-.79 1.1a10 10 0 01-.56.57l-.26.21-.18.14a4.88 4.88 0 01-5.54.18 7 7 0 01-1.86-1.61A8.12 8.12 0 016.5 8.97c-.07-.15-.15-.31-.21-.48a2.82 2.82 0 01-.19-.51l1.4-.07-.04-.03-.2-.11-.25-.13a183.1 183.1 0 00-3.46-1.8z"/><path class="fil1" d="M1.76 4.73c.05-.2.2-.52.29-.68.09-.16.44-.7.59-.85l.6-.6a8.03 8.03 0 012.6-1.44C7.37.62 9.04.35 10.71.3c.36-.01 1.55-.03 1.86.01-.13 0-1.07.14-1.23.17-.98.19-1.21.2-2.15.68-.15.08-.28.18-.43.27l-.21.15c-.17.13-.32.26-.48.41-.18.19-.2.17-.43.45l-.09.09-.39.49c-.19.27-.51.8-.66 1.09l-.45.97C5.96 5.05 4.13 4.1 4 4.03c-.15-.08-.1-.09-.26-.03l-.29.1-.56.21-.84.32-.29.1zM12.04 0h-1.12c-.06.03-.73.04-.87.05-.84.05-1.62.16-2.44.32a10.9 10.9 0 00-4.24 1.76c-.26.21-.29.24-.5.43-.39.33-.76.84-1.03 1.29-.22.37-.4.86-.5 1.33.07-.01 1.74-.64 1.9-.7.1-.04.56-.24.63-.2L6.2 5.47a10.83 10.83 0 011.4-2.56c.34-.4.37-.44.73-.78l.09-.08a4.88 4.88 0 013.7-1.24c1.44.15 2.8.96 3.7 1.94l.46.53a8.35 8.35 0 011.4 2.59l-1.41.07c.05.04.39.21.48.26l2.97 1.55c.15.08.36.2.5.26l3.57-1.96-1.17-.11a6.46 6.46 0 00-1.26-2.87l-.24-.27c-.08-.1-.17-.16-.25-.26l-.13-.12-.14-.12c-.54-.43-.8-.66-1.58-1.02a14.76 14.76 0 00-5-1.18l-.98-.06c-.17-.01-.91-.01-1-.04z"/><path class="fil2" d="M1.76 4.73l.29-.1.84-.32.56-.21.29-.1c.16-.06.11-.05.26.03.13.07 1.96 1.02 2.05 1.05l.45-.97c.15-.29.47-.82.66-1.09l.39-.49.09-.09c.23-.28.25-.26.43-.45.16-.15.31-.28.48-.41l.21-.15c.15-.09.28-.19.43-.27.94-.48 1.17-.49 2.15-.68.16-.03 1.1-.17 1.23-.17-.31-.04-1.5-.02-1.86-.01-1.67.05-3.34.32-4.87.86a8.03 8.03 0 00-2.6 1.44l-.6.6c-.15.15-.5.69-.59.85-.09.16-.24.48-.29.68zM11.3 13.55c2.97.12 6.9-.32 9.14-2.22.17-.14.27-.22.43-.39.08-.08.18-.17.28-.3l.06-.06c.26-.3.71-1.05.81-1.45l-2.09.77-1.1-.57c-.13-.07-1.03-.54-1.1-.55l-.21.48a8.83 8.83 0 01-1.05 1.75c-.1.13-.2.28-.31.39-.18.19-.31.34-.52.52l-.09.09-.48.39-.22.13c-.43.31-1.18.6-1.74.71a60.62 60.62 0 01-1.18.21l-.59.08-.04.02z"/><path class="fil0" d="M10.12 6.84l.65-.01.12-.62 1.97-.01c.12 0 .18.03.2.13a.6.6 0 01-.02.3c-.12.02-.54 0-.59.01-.06.01-.06.14-.06.2h1.29c.06-.33.17-.72-.04-.98-.17-.23-.59-.23-.95-.23h-2.36l-.21 1.21z"/><path class="fil1" d="M13.68 6.84h-1.29l-.05.24.62.01c-.04.29-.09.46-.37.49a.93.93 0 01-.41-.02c-.11-.06-.07-.22-.06-.35h-.67c-.02.23-.16.64.21.82.26.13.72.11 1.03.09.81-.06.85-.56.99-1.28zM14.5 6.84h-.68c-.19.92-.22 1.35.75 1.38.56.01 1.03 0 1.26-.5.04-.09.12-.36.11-.47h-.67c-.05.16-.06.28-.18.35a.97.97 0 01-.48.02c-.32-.06-.14-.42-.11-.78zM8.46 6.84h-.68c-.05.27-.16.76-.06 1.02.11.3.43.35.81.36.57.01 1.03 0 1.26-.5.05-.12.11-.33.11-.46l-.67-.01c-.05.16-.06.28-.18.35a.97.97 0 01-.48.02c-.3-.06-.17-.42-.11-.78z"/><path class="fil0" d="M13.82 6.84h.68c.09-.26.02-.53.32-.61.12-.02.33-.02.44.01.16.05.14.14.12.31h.69c.06-.39.07-.64-.22-.8-.25-.14-.69-.13-.99-.1-.74.07-.96.46-1.04 1.19zM7.78 6.84h.68c.06-.27.06-.55.32-.61.12-.02.32-.03.44.01.16.05.15.14.12.31h.69c.06-.39.07-.64-.22-.81a2.2 2.2 0 00-1-.09c-.75.07-.93.46-1.03 1.19z"/><path class="fil1" d="M10.77 6.83l-.65.01c-.05.18-.08.43-.11.62-.03.14-.12.52-.11.64h.65l.22-1.27z"/></g></g></svg>