<?xml version="1.0" encoding="UTF-8"?>
<!DOCTYPE svg PUBLIC "-//W3C//DTD SVG 1.1//EN" "http://www.w3.org/Graphics/SVG/1.1/DTD/svg11.dtd">
<!-- Creator: CorelDRAW 2020 (64-Bit) -->
<svg xmlns="http://www.w3.org/2000/svg" xml:space="preserve" width="670px" height="210px" version="1.1" style="shape-rendering:geometricPrecision; text-rendering:geometricPrecision; image-rendering:optimizeQuality; fill-rule:evenodd; clip-rule:evenodd"
viewBox="0 0 51.22 16.09"
 xmlns:xlink="http://www.w3.org/1999/xlink"
 xmlns:xodm="http://www.corel.com/coreldraw/odm/2003">
 <defs>
  <style type="text/css">
   <![CDATA[
    .fil0 {fill:#005B9C;fill-rule:nonzero}
   ]]>
  </style>
 </defs>
 <g id="Слой_x0020_1">
  <metadata id="CorelCorpID_0Corel-Layer"/>
  <g id="_2514975328800">
   <path class="fil0" d="M20.44 12.19l0 3.15 -0.6 0 0 -3.15 -0.81 0 0 -0.55 2.23 0 0 0.55 -0.82 0zm3.23 -0.58c0.19,0 0.35,0.03 0.49,0.09 0.13,0.05 0.25,0.13 0.33,0.23 0.09,0.1 0.15,0.22 0.2,0.36 0.04,0.14 0.06,0.29 0.06,0.44l0 1.51c0,0.36 -0.1,0.64 -0.29,0.84 -0.2,0.19 -0.46,0.29 -0.8,0.29 -0.19,0 -0.35,-0.03 -0.49,-0.09 -0.14,-0.06 -0.25,-0.14 -0.33,-0.24 -0.09,-0.1 -0.15,-0.23 -0.2,-0.37 -0.04,-0.14 -0.06,-0.29 -0.06,-0.46l0 -0.47 -0.38 0 0 1.6 -0.6 0 0 -3.7 0.6 0 0 1.55 0.38 0 0 -0.46c0,-0.15 0.02,-0.29 0.07,-0.42 0.04,-0.14 0.1,-0.26 0.19,-0.36 0.09,-0.1 0.2,-0.19 0.34,-0.25 0.13,-0.06 0.3,-0.09 0.49,-0.09zm-0.01 0.58c-0.09,0 -0.17,0.02 -0.23,0.05 -0.06,0.03 -0.11,0.07 -0.15,0.12 -0.04,0.05 -0.06,0.11 -0.08,0.17 -0.02,0.06 -0.03,0.12 -0.03,0.19l0.01 1.51c0,0.17 0.04,0.3 0.11,0.41 0.07,0.11 0.2,0.16 0.38,0.16 0.14,0 0.25,-0.04 0.34,-0.13 0.09,-0.09 0.13,-0.22 0.13,-0.39l0 -1.56c0,-0.06 0,-0.12 -0.02,-0.18 -0.02,-0.07 -0.04,-0.12 -0.08,-0.17 -0.04,-0.05 -0.09,-0.09 -0.15,-0.13 -0.06,-0.03 -0.14,-0.05 -0.23,-0.05zm3.98 3.15l0 -2.17 -0.02 0 -0.27 0.7 -0.35 0.8 -0.43 0 -0.37 -0.83 -0.26 -0.67 -0.02 0 0 2.17 -0.61 0 0 -3.7 0.58 0 0.52 1.21 0.36 0.89 0.02 0 0.36 -0.9 0.51 -1.2 0.58 0 0 3.7 -0.6 0zm1.24 0l0 -3.7 2.05 0 0 0.56 -1.45 0 0 0.99 1.25 0 0 0.55 -1.25 0 0 1.02 1.45 0 0 0.58 -2.05 0zm4.15 0l0 -1.6 -1.04 0 0 1.6 -0.61 0 0 -3.7 0.61 0 0 1.55 1.04 0 0 -1.55 0.61 0 0 3.7 -0.61 0zm3.54 -1.15c0,0.38 -0.1,0.66 -0.3,0.86 -0.2,0.19 -0.48,0.29 -0.83,0.29l-1.14 0 0 -3.7 0.61 0 0 1.46 0.53 0c0.2,0 0.37,0.03 0.51,0.08 0.14,0.06 0.25,0.13 0.34,0.23 0.1,0.09 0.16,0.21 0.21,0.34 0.04,0.14 0.07,0.29 0.07,0.44zm-0.62 0.02c0,-0.17 -0.04,-0.3 -0.12,-0.4 -0.08,-0.09 -0.22,-0.14 -0.41,-0.14l-0.51 0 0 1.1 0.51 0c0.19,0 0.32,-0.05 0.41,-0.15 0.08,-0.1 0.12,-0.24 0.12,-0.41z"/>
   <path class="fil0" d="M21.38 5.32c-0.13,0.11 -0.3,0.17 -0.47,0.17l-0.66 0 0 -1.47 0.64 0c0.22,0 0.39,0.06 0.51,0.17 0.13,0.11 0.19,0.29 0.19,0.55 0,0.27 -0.07,0.47 -0.21,0.58zm0.88 -1.98c-0.16,-0.15 -0.36,-0.27 -0.6,-0.34 -0.23,-0.07 -0.49,-0.11 -0.77,-0.11l-1.86 0 0 5.89 1.22 0 0 -2.15 0.71 0c0.29,0 0.54,-0.04 0.77,-0.13 0.22,-0.09 0.41,-0.22 0.57,-0.38 0.16,-0.17 0.28,-0.37 0.37,-0.6 0.08,-0.23 0.12,-0.49 0.12,-0.77 0,-0.32 -0.04,-0.6 -0.14,-0.83 -0.09,-0.24 -0.22,-0.43 -0.39,-0.58z"/>
   <path class="fil0" d="M26.24 7.01c0,0.2 -0.06,0.35 -0.19,0.47 -0.13,0.11 -0.28,0.17 -0.45,0.17 -0.25,0 -0.42,-0.07 -0.53,-0.22 -0.1,-0.15 -0.15,-0.33 -0.15,-0.56l0 -2.19c0,-0.06 0.01,-0.13 0.03,-0.21 0.03,-0.08 0.07,-0.15 0.12,-0.21 0.06,-0.07 0.13,-0.12 0.21,-0.16 0.09,-0.05 0.19,-0.07 0.32,-0.07 0.12,0 0.22,0.03 0.3,0.07 0.09,0.05 0.15,0.11 0.2,0.18 0.05,0.07 0.09,0.14 0.11,0.21 0.02,0.07 0.03,0.14 0.03,0.19l0 2.33zm0.78 -3.57c-0.15,-0.17 -0.35,-0.32 -0.59,-0.43 -0.24,-0.11 -0.51,-0.16 -0.83,-0.16 -0.35,0 -0.64,0.05 -0.88,0.17 -0.24,0.12 -0.44,0.27 -0.59,0.45 -0.15,0.18 -0.26,0.38 -0.33,0.6 -0.07,0.22 -0.1,0.45 -0.1,0.67l0 2.09c0,0.27 0.03,0.53 0.1,0.77 0.08,0.24 0.19,0.45 0.34,0.64 0.15,0.18 0.35,0.33 0.59,0.43 0.24,0.11 0.53,0.16 0.87,0.16 0.27,0 0.52,-0.04 0.75,-0.13 0.23,-0.08 0.43,-0.21 0.59,-0.38 0.17,-0.16 0.3,-0.36 0.39,-0.6 0.1,-0.23 0.14,-0.5 0.14,-0.79l0 -2.19c0,-0.24 -0.03,-0.46 -0.11,-0.69 -0.08,-0.23 -0.19,-0.43 -0.34,-0.61z"/>
   <path class="fil0" d="M29.92 4.47c0.02,-0.08 0.06,-0.15 0.11,-0.21 0.05,-0.07 0.12,-0.12 0.2,-0.16 0.09,-0.05 0.19,-0.07 0.32,-0.07 0.12,0 0.22,0.03 0.3,0.07 0.09,0.05 0.16,0.1 0.21,0.16 0.06,0.06 0.1,0.13 0.13,0.21 0.02,0.08 0.04,0.14 0.05,0.2l1.16 -0.35c-0.04,-0.19 -0.11,-0.38 -0.2,-0.55 -0.1,-0.18 -0.22,-0.34 -0.37,-0.47 -0.16,-0.14 -0.34,-0.25 -0.55,-0.33 -0.22,-0.08 -0.46,-0.12 -0.73,-0.12 -0.35,0 -0.64,0.05 -0.88,0.17 -0.24,0.12 -0.43,0.27 -0.58,0.45 -0.15,0.18 -0.26,0.38 -0.33,0.6 -0.07,0.22 -0.1,0.45 -0.1,0.67l0 2.1c0,0.26 0.03,0.52 0.11,0.76 0.07,0.24 0.18,0.45 0.33,0.64 0.14,0.18 0.34,0.33 0.58,0.43 0.24,0.11 0.53,0.16 0.87,0.16 0.48,0 0.88,-0.13 1.22,-0.39 0.33,-0.26 0.54,-0.61 0.62,-1.07l-1.16 -0.34c-0.03,0.19 -0.1,0.34 -0.23,0.45 -0.13,0.11 -0.28,0.17 -0.45,0.17 -0.25,0 -0.42,-0.07 -0.51,-0.22 -0.1,-0.15 -0.15,-0.33 -0.15,-0.56l0 -2.19c0,-0.06 0.01,-0.13 0.03,-0.21z"/>
   <path class="fil0" d="M34.7 4.47c0.02,-0.08 0.06,-0.15 0.11,-0.21 0.05,-0.07 0.12,-0.12 0.2,-0.16 0.08,-0.05 0.19,-0.07 0.31,-0.07 0.12,0 0.22,0.03 0.31,0.07 0.08,0.05 0.15,0.1 0.21,0.16 0.06,0.06 0.1,0.13 0.12,0.21 0.03,0.08 0.05,0.14 0.06,0.2l1.16 -0.35c-0.04,-0.19 -0.11,-0.38 -0.21,-0.55 -0.09,-0.18 -0.22,-0.34 -0.37,-0.47 -0.15,-0.14 -0.34,-0.25 -0.55,-0.33 -0.21,-0.08 -0.46,-0.12 -0.73,-0.12 -0.34,0 -0.63,0.05 -0.87,0.17 -0.24,0.12 -0.44,0.27 -0.59,0.45 -0.15,0.18 -0.26,0.38 -0.32,0.6 -0.07,0.22 -0.1,0.45 -0.1,0.67l0 2.1c0,0.26 0.03,0.52 0.1,0.76 0.07,0.24 0.18,0.45 0.33,0.64 0.15,0.18 0.35,0.33 0.59,0.43 0.23,0.11 0.52,0.16 0.86,0.16 0.48,0 0.89,-0.13 1.22,-0.39 0.33,-0.26 0.54,-0.61 0.63,-1.07l-1.17 -0.34c-0.02,0.19 -0.1,0.34 -0.23,0.45 -0.13,0.11 -0.28,0.17 -0.45,0.17 -0.24,0 -0.41,-0.07 -0.51,-0.22 -0.1,-0.15 -0.15,-0.33 -0.15,-0.56l0 -2.19c0,-0.06 0.01,-0.13 0.04,-0.21z"/>
   <polygon class="fil0" points="38.35,8.78 41.77,8.78 41.77,7.62 39.57,7.62 39.57,6.37 41.47,6.37 41.47,5.24 39.57,5.24 39.57,4.03 41.77,4.03 41.77,2.89 38.35,2.89 "/>
   <polygon class="fil0" points="42.45,4.01 43.71,4.01 43.71,8.78 44.93,8.78 44.93,4.01 46.19,4.01 46.19,2.89 42.45,2.89 "/>
   <polygon class="fil0" points="50.11,2.89 48.43,6.31 48.41,6.31 48.41,2.89 47.19,2.89 47.19,8.78 48.34,8.78 49.99,5.58 49.99,5.58 49.99,8.78 51.22,8.78 51.22,2.89 "/>
   <path class="fil0" d="M9.67 4.84l-4.68 10.64c0.94,0.39 1.97,0.61 3.06,0.61 1.06,0 2.07,-0.21 3,-0.59l-1.16 -10.63c-0.08,0 -0.15,-0.01 -0.22,-0.03z"/>
   <path class="fil0" d="M9.15 4.52l-8.82 5.81c0.61,2.03 1.99,3.73 3.81,4.74l5.17 -10.4c-0.06,-0.04 -0.12,-0.09 -0.16,-0.15z"/>
   <path class="fil0" d="M10.29 4.81l1.65 10.27c1.83,-1.01 3.23,-2.72 3.83,-4.77l-5.22 -5.62c-0.08,0.05 -0.17,0.1 -0.26,0.12z"/>
   <path class="fil0" d="M9.26 2.94l-1.68 -2.94c-2.19,0.13 -4.15,1.13 -5.53,2.67l6.85 0.82c0.06,-0.22 0.19,-0.41 0.36,-0.55z"/>
   <path class="fil0" d="M14.63 3.4l-3.6 0.43c-0.01,0.21 -0.08,0.41 -0.19,0.57l5.16 4.88c0.06,-0.4 0.1,-0.82 0.1,-1.25 0,-1.72 -0.55,-3.32 -1.47,-4.63z"/>
   <path class="fil0" d="M8.87 3.91l-7.48 -0.4c-0.88,1.29 -1.39,2.85 -1.39,4.52 0,0.46 0.04,0.9 0.11,1.33l8.82 -5.18c-0.03,-0.09 -0.05,-0.18 -0.06,-0.27z"/>
   <path class="fil0" d="M9.97 2.7c0.44,0.01 0.82,0.28 0.98,0.67l3.07 -0.73c-1.36,-1.51 -3.3,-2.5 -5.46,-2.64l1.14 2.73c0.08,-0.02 0.17,-0.03 0.27,-0.03z"/>
  </g>
 </g>
</svg>
