<?xml version="1.0" encoding="UTF-8"?>
<!DOCTYPE svg PUBLIC "-//W3C//DTD SVG 1.1//EN" "http://www.w3.org/Graphics/SVG/1.1/DTD/svg11.dtd">
<!-- Creator: CorelDRAW 2020 (64-Bit) -->
<svg xmlns="http://www.w3.org/2000/svg" xml:space="preserve" width="1257px" height="184px" version="1.1" style="shape-rendering:geometricPrecision; text-rendering:geometricPrecision; image-rendering:optimizeQuality; fill-rule:evenodd; clip-rule:evenodd"
viewBox="0 0 224.36 32.8"
 xmlns:xlink="http://www.w3.org/1999/xlink"
 xmlns:xodm="http://www.corel.com/coreldraw/odm/2003">
 <defs>
  <style type="text/css">
   <![CDATA[
    .str0 {stroke:white;stroke-width:0.3;stroke-miterlimit:22.9256}
    .fil2 {fill:none}
    .fil0 {fill:#141F3B}
    .fil1 {fill:url(#id1)}
    .fil3 {fill:url(#id2);fill-rule:nonzero}
   ]]>
  </style>
    <clipPath id="id0">
     <path d="M0.15 0.15l224.06 0 0 32.5 -224.06 0 0 -32.5z"/>
    </clipPath>
  <linearGradient id="id1" gradientUnits="userSpaceOnUse" x1="193.9" y1="31.25" x2="189.03" y2="11.06">
   <stop offset="0" style="stop-opacity:1; stop-color:#203050"/>
   <stop offset="1" style="stop-opacity:1; stop-color:#141F3B"/>
  </linearGradient>
  <linearGradient id="id2" gradientUnits="userSpaceOnUse" x1="102.44" y1="28.33" x2="102.44" y2="1.07">
   <stop offset="0" style="stop-opacity:1; stop-color:#9DCEF0"/>
   <stop offset="1" style="stop-opacity:1; stop-color:#FEFEFE"/>
  </linearGradient>
 </defs>
 <g id="Слой_x0020_1">
  <metadata id="CorelCorpID_0Corel-Layer"/>
  <g id="_2257982341360">
   <polygon class="fil0" points="0.15,0.15 224.21,0.15 224.21,32.65 0.15,32.65 "/>
   <g style="clip-path:url(#id0)">
    <g>
     <path id="1" class="fil1" d="M224.21 32.65l-224.06 0c0,0 162.85,1.65 224.06,-32.5l0 32.5z"/>
    </g>
   </g>
   <polygon class="fil2 str0" points="0.15,0.15 224.21,0.15 224.21,32.65 0.15,32.65 "/>
   <path class="fil3" d="M11.79 6.2l-1.36 -1.39 2.38 0 0 23.18 -1.02 -1.02 0 -20.77zm2.32 9.35l2.83 -9.35 -0.99 -1.39 2.39 0 -3.14 10.74 3.51 12.44 -1.19 -1.16 -3.41 -11.28zm-4.02 -2.12l-2.39 -8.97 -3.24 0 3.24 11.09 -3.62 12.78 3.18 0 2.83 -10.43 0 10.43 3.06 0 0 -10.43 2.84 10.43 3.17 0 -3.62 -12.78 3.24 -11.09 -3.24 0 -2.39 8.97 0 -8.97 -3.06 0 0 8.97zm-3.86 13.4l3.17 -11.28 -2.59 -9.35 -1.91 -1.39 2.49 0 2.93 10.74 -3.37 12.44 -0.72 -1.16zm20.29 1.5l3.75 -12.89 0 12.89 3.07 0 0 -23.87 -3.07 0 -3.61 12.55 0 -12.55 -3.07 0 0 23.87 2.93 0zm5.46 -1.36l0 -20.8 -1.37 -1.36 2.39 0 0 23.18 -1.02 -1.02zm-6.69 -0.27l0 -20.53 -1.36 -1.36 2.39 0 0 13.29 -1.03 8.6zm1.06 1.05l-0.78 -0.78 5.69 -19.88 -0.85 6.72 -4.06 13.94zm12.69 -6.47l0 5.04c0,0.96 0.68,1.81 1.63,1.98 0.14,0.03 0.28,0.03 0.41,0.03l4.64 0c1.12,0 2.05,-0.92 2.05,-2.01l0 -8.45c0,-0.86 -0.52,-1.81 -1.44,-2.02 0.92,-0.2 1.44,-0.81 1.44,-1.67l0 -7.67c0,-1.09 -0.89,-2.05 -2.05,-2.05l-4.64 0c-1.16,0 -2.04,0.86 -2.04,2.02l0 5.15 3.07 0 0 -4.1 2.59 0 0 6.96 -3.11 0 0 3.07 3.11 0 0 7.71 -2.59 0 0 -3.99 -3.07 0zm2.52 -15.45c-0.48,0 -0.78,0.1 -0.92,0.24l-0.79 -0.68c0.38,-0.38 0.82,-0.58 1.37,-0.58l4.4 0c1.16,0 1.8,0.85 1.8,1.8l0 7.47c0,0.99 -0.68,1.36 -1.36,1.54l-0.51 -0.41c0,0 0.85,-0.48 0.85,-1.4l0 -6.92c0,-0.58 -0.48,-1.06 -1.06,-1.06l-3.78 0zm4.84 12.04c0,-0.99 -0.58,-1.68 -1.7,-1.74l1.43 0c0.65,0.1 1.29,0.75 1.29,1.74l0 8.35c0,0.58 -0.23,0.99 -0.51,1.26l-0.78 -0.78c0.2,-0.28 0.27,-0.55 0.27,-0.82l0 -8.01zm-7.02 3.75l2.38 0 0 3.99 3.28 0 0.75 0.75c-0.17,0.17 -0.31,0.27 -0.55,0.27l-3.48 0c-0.54,0 -1.02,-0.51 -1.02,-1.02l0 -2.63 -1.36 -1.36zm1.36 -11.36l0 -2.97c0,-0.44 0.07,-0.64 0.27,-0.85l0.75 0.75 0 4.09 -1.02 -1.02zm1.13 4.57l3.24 0 0.34 0.27c-0.38,0.52 -1.3,0.75 -1.84,0.75l-0.72 0 -1.02 -1.02zm11.56 13.5l3.07 0 0 -9.78 2.59 0 0 9.78 3.07 0 0 -23.87 -3.07 0 0 11.02 -2.59 0 0 -11.02 -3.07 0 0 23.87zm1.7 -22.16l-1.36 -1.36 2.38 0 0 11.01 3.28 0 1.02 1.02 -5.32 0 0 -10.67zm5.66 0l-1.36 -1.36 2.38 0 0 23.18 -1.02 -1.02 0 -20.8zm-5.66 11.01l1.02 1.03 0 9.78 -1.02 -1.02 0 -9.79zm12.69 -12.72l0 23.87 6.68 0c1.12,0 2.05,-0.92 2.05,-2.01l0 -9.78c0,-1.1 -0.89,-2.05 -2.05,-2.05l-3.62 0 0 -10.03 -3.06 0zm2.72 10.37l3.86 0c1.16,0 1.8,0.85 1.8,1.81l0 9.58c0,0.58 -0.23,0.99 -0.51,1.26l-0.78 -0.78c0.2,-0.28 0.27,-0.55 0.27,-0.82l0 -8.97c0,-0.58 -0.48,-1.06 -1.06,-1.06l-4.6 0 0 -9.78 -1.36 -1.26 2.38 0 0 10.02zm0.34 2.73l2.6 0 0 7.71 -2.6 0 0 -7.71zm-1.36 -0.99l1.02 0.99 0 8.05 3.28 0 0.75 0.75c-0.17,0.17 -0.31,0.27 -0.55,0.27l-4.5 0 0 -10.06zm15.86 -12.11l0 23.87 3.07 0 0 -10.43 2.83 10.43 3.17 0 -3.62 -12.78 3.24 -11.09 -3.24 0 -2.38 8.97 0 -8.97 -3.07 0zm1.7 1.74l-1.36 -1.39 2.39 0 0 23.18 -1.03 -1.02 0 -20.77zm2.32 9.35l2.83 -9.35 -0.99 -1.39 2.39 0 -3.14 10.74 3.51 12.44 -1.19 -1.16 -3.41 -11.28zm9.51 10.77c0,1.09 0.96,2.01 2.05,2.01l4.64 0c1.12,0 2.04,-0.92 2.04,-2.01l0 -19.81c0,-1.09 -0.88,-2.05 -2.04,-2.05l-4.64 0c-1.09,0 -2.05,0.96 -2.05,2.05l0 19.81zm5.67 -1.05l-2.6 0 0 -17.74 2.6 0 0 17.74zm-3.96 -18.18c0,-0.44 0.14,-0.65 0.2,-0.72l0.82 0.82 0 18.42 3.28 0 0.75 0.75c-0.17,0.17 -0.31,0.27 -0.55,0.27l-3.48 0c-0.54,0 -1.02,-0.48 -1.02,-1.02l0 -18.52zm5.66 -0.2c0,-0.58 -0.48,-1.06 -1.06,-1.06l-3.78 0c-0.48,0 -0.79,0.1 -0.92,0.24l-0.79 -0.68c0.38,-0.38 0.82,-0.58 1.37,-0.58l4.4 0c1.05,0 1.8,0.78 1.8,1.8l0 19.61c0,0.58 -0.24,0.99 -0.51,1.26l-0.78 -0.78c0.2,-0.28 0.27,-0.55 0.27,-0.82l0 -18.99zm7.71 -0.38l0 18.76 -1.37 0 0 3.06 2.39 0c1.12,0 2.05,-0.92 2.05,-2.01l0 -18.79 2.59 0 0 20.8 3.07 0 0 -23.87 -6.69 0c-1.09,0 -2.04,0.96 -2.04,2.05l0 0zm8.38 -1.7l0 23.18 -1.02 -1.02 0 -20.8 -0.34 -0.34 -4.5 0c-0.48,0 -0.78,0.1 -0.92,0.24l-0.79 -0.68c0.38,-0.38 0.82,-0.58 1.37,-0.58l6.2 0zm-6.68 2.28c0,-0.44 0.14,-0.65 0.21,-0.72l0.81 0.82 0 19.03c0,0.58 -0.23,0.99 -0.51,1.26l-0.78 -0.78c0.2,-0.28 0.27,-0.55 0.27,-0.82l0 -18.79zm-1.16 19.54l-0.54 0 -1.03 -1.02 1.37 0 0.75 0.75c-0.17,0.17 -0.31,0.27 -0.55,0.27l0 0zm13.85 -20.12l0 18.76 -1.37 0 0 3.06 2.39 0c1.12,0 2.05,-0.92 2.05,-2.01l0 -18.79 2.59 0 0 20.8 3.07 0 0 -23.87 -6.69 0c-1.09,0 -2.04,0.96 -2.04,2.05l0 0zm8.38 -1.7l0 23.18 -1.02 -1.02 0 -20.8 -0.34 -0.34 -4.5 0c-0.48,0 -0.78,0.1 -0.92,0.24l-0.79 -0.68c0.38,-0.38 0.82,-0.58 1.37,-0.58l6.2 0zm-6.68 2.28c0,-0.44 0.14,-0.65 0.21,-0.72l0.81 0.82 0 19.03c0,0.58 -0.23,0.99 -0.51,1.26l-0.78 -0.78c0.2,-0.28 0.27,-0.55 0.27,-0.82l0 -18.79zm-1.16 19.54l-0.54 0 -1.03 -1.02 1.37 0 0.75 0.75c-0.17,0.17 -0.31,0.27 -0.55,0.27l0 0zm21.08 -1.36l-4.85 0 0 -8.09 3.24 0 0 -3.07 -3.24 0 0 -6.58 4.61 0 0 -3.07 -7.68 0 0 23.87 7.92 0 0 -3.06zm-6.21 -9.08l1.02 0.99 0 8.43 4.84 0 0 2.38 -1.36 -1.36 -4.5 0 0 -10.44zm0 -9.99l1.02 0.99 0 7.27 3.24 0 0 2.38 -1.4 -1.36 -2.86 0 0 -9.28zm-1.36 -1.39l6.99 0 0 2.38 -1.4 -1.36 -4.47 0 -1.12 -1.02zm12.88 -0.35l0 23.87 3.07 0 0 -10.43 2.83 10.43 3.18 0 -3.62 -12.78 3.24 -11.09 -3.24 0 -2.39 8.97 0 -8.97 -3.07 0zm1.71 1.74l-1.36 -1.39 2.38 0 0 23.18 -1.02 -1.02 0 -20.77zm2.32 9.35l2.83 -9.35 -0.99 -1.39 2.39 0 -3.14 10.74 3.51 12.44 -1.19 -1.16 -3.41 -11.28zm11.22 12.78l3.07 0 0 -20.8 2.72 0 0 -3.07 -8.52 0 0 3.07 2.73 0 0 20.8zm1.7 -22.16l1.02 1.02 0 20.8 -1.02 -1.02 0 -20.8zm-4.09 -1.36l7.84 0 0 2.38 -1.36 -1.36 -5.46 0 -1.02 -1.02zm15.72 23.52l3.75 -12.89 0 12.89 3.07 0 0 -23.87 -3.07 0 -3.61 12.55 0 -12.55 -3.07 0 0 23.87 2.93 0zm5.46 -1.36l0 -20.8 -1.37 -1.36 2.39 0 0 23.18 -1.02 -1.02zm-6.69 -0.27l0 -20.53 -1.36 -1.36 2.39 0 0 13.29 -1.03 8.6zm1.06 1.05l-0.79 -0.78 5.7 -19.88 -0.85 6.72 -4.06 13.94zm12.68 0.58l6.69 0c1.12,0 2.04,-0.92 2.04,-2.01l0 -8.45c0,-0.86 -0.51,-1.81 -1.43,-2.02 0.62,-0.17 1.06,-0.81 1.06,-1.67l0 -7.67c0,-1.09 -0.89,-2.05 -2.05,-2.05l-6.31 0 0 23.87zm3.07 -3.06l0 -7.71 2.59 0 0 7.71 -2.59 0zm-2.72 -20.46l5.86 0c1.16,0 1.81,0.85 1.81,1.8l0 7.47c0,0.72 -0.38,1.36 -1.06,1.54l-0.51 -0.35c0,0 0.54,-0.54 0.54,-1.46l0 -6.92c0,-0.58 -0.47,-1.06 -1.05,-1.06l-4.57 0 -1.02 -1.02zm2.72 2.72l2.22 0 0 6.96 -2.22 0 0 -6.96zm-1.36 9.04l1.02 0.99 0 8.05 3.28 0 0.75 0.75c-0.17,0.17 -0.31,0.27 -0.55,0.27l-4.5 0 0 -10.06zm0 -10.37l1.02 0.99 0 7.64 2.56 0c0.24,0 0.41,-0.07 0.41,-0.07l0.51 0.34c-0.37,0.52 -1.09,0.75 -1.64,0.75l-2.86 0 0 -9.65zm5.66 11.67c0,-0.99 -0.58,-1.68 -1.71,-1.74l1.44 0c0.64,0.1 1.29,0.75 1.29,1.74l0 8.35c0,0.58 -0.24,0.99 -0.51,1.26l-0.78 -0.78c0.2,-0.28 0.27,-0.55 0.27,-0.82l0 -8.01zm13.5 10.46l3 0 -2.45 -23.87 -5.46 0 -2.52 23.87 3.07 0 0.48 -4.67 3.41 0 0.47 4.67zm-4.63 -23.52l4.84 0 2.42 23.18 -1.19 -1.19 -2.19 -20.97 -2.96 0 -0.92 -1.02zm1.22 1.36l0.92 1.02 -1.43 13.74 3.51 0 1.06 1.03 -5.69 0 1.63 -15.79zm1.23 1.36l1.36 13.06 -2.72 0 1.36 -13.06zm-2.52 20.46l-0.89 -0.88 0.48 -4.68 0.88 0.89 -0.47 4.67z"/>
  </g>
 </g>
</svg>
