<?xml version="1.0" encoding="UTF-8"?>
<!DOCTYPE svg PUBLIC "-//W3C//DTD SVG 1.1//EN" "http://www.w3.org/Graphics/SVG/1.1/DTD/svg11.dtd">
<!-- Creator: CorelDRAW 2020 (64-Bit) -->
<svg xmlns="http://www.w3.org/2000/svg" xml:space="preserve" width="662px" height="184px" version="1.1" style="shape-rendering:geometricPrecision; text-rendering:geometricPrecision; image-rendering:optimizeQuality; fill-rule:evenodd; clip-rule:evenodd"
viewBox="0 0 38.54 10.7"
 xmlns:xlink="http://www.w3.org/1999/xlink"
 xmlns:xodm="http://www.corel.com/coreldraw/odm/2003">
 <defs>
  <style type="text/css">
   <![CDATA[
    .str0 {stroke:white;stroke-width:0.1;stroke-miterlimit:22.9256}
    .fil2 {fill:none}
    .fil0 {fill:#141F3B}
    .fil1 {fill:url(#id1)}
    .fil3 {fill:url(#id2);fill-rule:nonzero}
   ]]>
  </style>
    <clipPath id="id0">
     <path d="M0.05 0.05l38.44 0 0 10.6 -38.44 0 0 -10.6z"/>
    </clipPath>
  <linearGradient id="id1" gradientUnits="userSpaceOnUse" x1="33.29" y1="10.2" x2="32.45" y2="3.61">
   <stop offset="0" style="stop-opacity:1; stop-color:#203050"/>
   <stop offset="1" style="stop-opacity:1; stop-color:#141F3B"/>
  </linearGradient>
  <linearGradient id="id2" gradientUnits="userSpaceOnUse" x1="17.35" y1="9.25" x2="17.35" y2="0.35">
   <stop offset="0" style="stop-opacity:1; stop-color:#9DCEF0"/>
   <stop offset="1" style="stop-opacity:1; stop-color:#FEFEFE"/>
  </linearGradient>
 </defs>
 <g id="Слой_x0020_1">
  <metadata id="CorelCorpID_0Corel-Layer"/>
  <g id="_2257949686784">
   <polygon class="fil0" points="0.05,0.05 38.49,0.05 38.49,10.65 0.05,10.65 "/>
   <g style="clip-path:url(#id0)">
    <g>
     <path id="1" class="fil1" d="M38.49 10.65l-38.44 0c0,0 27.94,0.54 38.44,-10.6l0 10.6z"/>
    </g>
   </g>
   <polygon class="fil2 str0" points="0.05,0.05 38.49,0.05 38.49,10.65 0.05,10.65 "/>
   <path class="fil3" d="M1.56 2.12l0 6.12 -0.45 0 0 1.01 0.78 0c0.37,0 0.67,-0.3 0.67,-0.66l0 -6.13 0.84 0 0 6.79 1 0 0 -7.79 -2.18 0c-0.35,0 -0.66,0.31 -0.66,0.66l0 0zm2.73 -0.55l0 7.56 -0.33 -0.33 0 -6.79 -0.11 -0.11 -1.47 0c-0.16,0 -0.26,0.04 -0.3,0.08l-0.26 -0.22c0.12,-0.13 0.27,-0.19 0.45,-0.19l2.02 0zm-2.18 0.74c0,-0.14 0.05,-0.21 0.07,-0.23l0.27 0.27 0 6.21c0,0.18 -0.08,0.32 -0.17,0.41l-0.26 -0.26c0.07,-0.09 0.09,-0.18 0.09,-0.27l0 -6.13zm-0.38 6.38l-0.17 0 -0.34 -0.33 0.45 0 0.24 0.24c-0.05,0.06 -0.1,0.09 -0.18,0.09l0 0zm5.24 0.56l1.23 -4.21 0 4.21 1 0 0 -7.79 -1 0 -1.18 4.09 0 -4.09 -1 0 0 7.79 0.95 0zm1.78 -0.45l0 -6.79 -0.44 -0.44 0.78 0 0 7.56 -0.34 -0.33zm-2.18 -0.09l0 -6.7 -0.44 -0.44 0.78 0 0 4.34 -0.34 2.8zm0.35 0.35l-0.26 -0.26 1.86 -6.49 -0.28 2.2 -1.32 4.55zm5.98 -4.01l-0.84 0 0 -3.59 -1 0 0 3.94c0,0.35 0.31,0.65 0.67,0.65l1.17 0 0 3.2 1.01 0 0 -7.79 -1.01 0 0 3.59zm0.56 -3.04l-0.44 -0.44 0.77 0 0 7.56 -0.33 -0.33 0 -6.79zm-0.44 3.15l0.33 0.34 -1.4 0c-0.18,0 -0.34,-0.17 -0.34,-0.34l0 -3.15 -0.44 -0.44 0.78 0 0 3.59 1.07 0zm2.73 4.09l1 0 0 -3.2 0.85 0 0 3.2 1 0 0 -7.79 -1 0 0 3.59 -0.85 0 0 -3.59 -1 0 0 7.79zm0.56 -7.24l-0.45 -0.44 0.78 0 0 3.59 1.07 0 0.34 0.34 -1.74 0 0 -3.49zm1.85 0l-0.45 -0.44 0.78 0 0 7.56 -0.33 -0.33 0 -6.79zm-1.85 3.6l0.33 0.33 0 3.19 -0.33 -0.33 0 -3.19zm4.14 2.98c0,0.36 0.31,0.66 0.67,0.66l1.51 0c0.37,0 0.67,-0.3 0.67,-0.66l0 -6.47c0,-0.35 -0.29,-0.66 -0.67,-0.66l-1.51 0c-0.36,0 -0.67,0.31 -0.67,0.66l0 6.47zm1.85 -0.35l-0.85 0 0 -5.78 0.85 0 0 5.78zm-1.29 -5.93c0,-0.14 0.04,-0.21 0.06,-0.23l0.27 0.27 0 6.01 1.07 0 0.24 0.24c-0.05,0.06 -0.1,0.09 -0.18,0.09l-1.13 0c-0.18,0 -0.33,-0.16 -0.33,-0.33l0 -6.05zm1.84 -0.06c0,-0.19 -0.15,-0.35 -0.34,-0.35l-1.24 0c-0.15,0 -0.25,0.04 -0.3,0.08l-0.25 -0.22c0.12,-0.13 0.26,-0.19 0.44,-0.19l1.44 0c0.34,0 0.59,0.25 0.59,0.59l0 6.4c0,0.18 -0.08,0.32 -0.17,0.41l-0.26 -0.26c0.07,-0.09 0.09,-0.18 0.09,-0.27l0 -6.19zm5.14 1.54l0 -1.67c0,-0.35 -0.29,-0.66 -0.66,-0.66l-1.52 0c-0.35,0 -0.67,0.31 -0.67,0.66l0 6.47c0,0.36 0.32,0.66 0.67,0.66l1.52 0c0.36,0 0.66,-0.3 0.66,-0.66l0 -1.69 -1 0 0 1.34 -0.84 0 0 -5.78 0.84 0 0 1.33 1 0zm-2.29 -1.48c0,-0.14 0.05,-0.21 0.07,-0.23l0.26 0.27 0 6.01 1.07 0 0.25 0.24c-0.06,0.06 -0.1,0.09 -0.18,0.09l-1.14 0c-0.17,0 -0.33,-0.16 -0.33,-0.33l0 -6.05zm1.85 1.04l0 -1.1c0,-0.19 -0.16,-0.35 -0.35,-0.35l-1.23 0c-0.16,0 -0.26,0.04 -0.3,0.08l-0.26 -0.22c0.12,-0.13 0.27,-0.19 0.45,-0.19l1.43 0c0.35,0 0.59,0.25 0.59,0.59l0 1.52 -0.33 -0.33zm0.33 3.66l0 1.55c0,0.18 -0.08,0.32 -0.17,0.41l-0.25 -0.26c0.07,-0.09 0.09,-0.18 0.09,-0.27l0 -0.99 -0.45 -0.44 0.78 0zm2.36 2.24l1 0 0 -6.79 0.89 0 0 -1 -2.78 0 0 1 0.89 0 0 6.79zm0.56 -7.24l0.33 0.34 0 6.78 -0.33 -0.33 0 -6.79zm-1.34 -0.44l2.56 0 0 0.78 -0.44 -0.45 -1.78 0 -0.34 -0.33zm5.13 7.68l1.22 -4.21 0 4.21 1.01 0 0 -7.79 -1.01 0 -1.17 4.09 0 -4.09 -1.01 0 0 7.79 0.96 0zm1.78 -0.45l0 -6.79 -0.44 -0.44 0.78 0 0 7.56 -0.34 -0.33zm-2.18 -0.09l0 -6.7 -0.44 -0.44 0.77 0 0 4.34 -0.33 2.8zm0.35 0.35l-0.26 -0.26 1.86 -6.49 -0.28 2.2 -1.32 4.55z"/>
  </g>
 </g>
</svg>
