<?xml version="1.0" encoding="UTF-8"?>
<!DOCTYPE svg PUBLIC "-//W3C//DTD SVG 1.1//EN" "http://www.w3.org/Graphics/SVG/1.1/DTD/svg11.dtd">
<!-- Creator: CorelDRAW 2020 (64-Bit) -->
<svg xmlns="http://www.w3.org/2000/svg" xml:space="preserve" width="685px" height="226px" version="1.1" style="shape-rendering:geometricPrecision; text-rendering:geometricPrecision; image-rendering:optimizeQuality; fill-rule:evenodd; clip-rule:evenodd"
viewBox="0 0 68.52 22.61"
 xmlns:xlink="http://www.w3.org/1999/xlink"
 xmlns:xodm="http://www.corel.com/coreldraw/odm/2003">
 <defs>
  <style type="text/css">
   <![CDATA[
    .str0 {stroke:white;stroke-width:0.17;stroke-miterlimit:22.9256}
    .fil2 {fill:none}
    .fil0 {fill:#141F3B}
    .fil1 {fill:url(#id1)}
    .fil3 {fill:url(#id2);fill-rule:nonzero}
   ]]>
  </style>
   <clipPath id="id0">
    <path d="M0.08 0.08l68.36 0 0 22.45 -68.36 0 0 -22.45z"/>
   </clipPath>
  <linearGradient id="id1" gradientUnits="userSpaceOnUse" x1="59.19" y1="21.57" x2="57.7" y2="7.62">
   <stop offset="0" style="stop-opacity:1; stop-color:#203050"/>
   <stop offset="1" style="stop-opacity:1; stop-color:#141F3B"/>
  </linearGradient>
  <linearGradient id="id2" gradientUnits="userSpaceOnUse" x1="31.9" y1="17.83" x2="31.9" y2="2.94">
   <stop offset="0" style="stop-opacity:1; stop-color:#9DCEF0"/>
   <stop offset="1" style="stop-opacity:1; stop-color:#FEFEFE"/>
  </linearGradient>
 </defs>
 <g id="Слой_x0020_1">
  <metadata id="CorelCorpID_0Corel-Layer"/>
  <polygon class="fil0" points="0.08,0.08 68.44,0.08 68.44,22.53 0.08,22.53 "/>
  <g style="clip-path:url(#id0)">
   <g id="_2258868532992">
    <path id="1" class="fil1" d="M68.44 22.53l-68.36 0c0,0 49.68,1.14 68.36,-22.45l0 22.45z"/>
   </g>
  </g>
  <polygon class="fil2 str0" points="0.08,0.08 68.44,0.08 68.44,22.53 0.08,22.53 "/>
  <path class="fil3" d="M8.35 17.83l3.65 0c0.62,0 1.12,-0.51 1.12,-1.1l0 -4.62c0,-0.47 -0.28,-0.99 -0.78,-1.1 0.33,-0.09 0.58,-0.45 0.58,-0.91l0 -4.19c0,-0.6 -0.49,-1.12 -1.12,-1.12l-3.45 0 0 13.04zm1.68 -1.68l0 -4.21 1.41 0 0 4.21 -1.41 0zm-1.49 -11.18l3.2 0c0.64,0 0.99,0.47 0.99,0.99l0 4.08c0,0.39 -0.21,0.75 -0.58,0.84l-0.28 -0.19c0,0 0.3,-0.3 0.3,-0.8l0 -3.78c0,-0.32 -0.26,-0.58 -0.58,-0.58l-2.49 0 -0.56 -0.56zm1.49 1.49l1.21 0 0 3.8 -1.21 0 0 -3.8zm-0.75 4.94l0.56 0.54 0 4.4 1.79 0 0.41 0.41c-0.09,0.09 -0.17,0.15 -0.3,0.15l-2.46 0 0 -5.5zm0 -5.66l0.56 0.54 0 4.17 1.4 0c0.13,0 0.22,-0.04 0.22,-0.04l0.28 0.19c-0.2,0.28 -0.59,0.41 -0.89,0.41l-1.57 0 0 -5.27zm3.1 6.37c0,-0.54 -0.32,-0.91 -0.94,-0.95l0.79 0c0.35,0.05 0.7,0.41 0.7,0.95l0 4.56c0,0.32 -0.13,0.54 -0.27,0.69l-0.43 -0.43c0.11,-0.15 0.15,-0.3 0.15,-0.44l0 -4.38zm5.34 5.72l2.05 -7.04 0 7.04 1.68 0 0 -13.04 -1.68 0 -1.97 6.85 0 -6.85 -1.68 0 0 13.04 1.6 0zm2.98 -0.75l0 -11.36 -0.74 -0.75 1.3 0 0 12.67 -0.56 -0.56zm-3.65 -0.15l0 -11.21 -0.74 -0.75 1.3 0 0 7.27 -0.56 4.69zm0.58 0.58l-0.43 -0.43 3.11 -10.86 -0.47 3.67 -2.21 7.62zm6.93 -3.54l0 2.76c0,0.52 0.37,0.98 0.89,1.08 0.08,0.02 0.15,0.02 0.22,0.02l2.54 0c0.61,0 1.12,-0.51 1.12,-1.1l0 -4.62c0,-0.47 -0.28,-0.99 -0.79,-1.1 0.51,-0.11 0.79,-0.45 0.79,-0.91l0 -4.19c0,-0.6 -0.49,-1.12 -1.12,-1.12l-2.54 0c-0.63,0 -1.11,0.46 -1.11,1.1l0 2.81 1.67 0 0 -2.24 1.42 0 0 3.8 -1.7 0 0 1.68 1.7 0 0 4.21 -1.42 0 0 -2.18 -1.67 0zm1.38 -8.44c-0.27,0 -0.43,0.06 -0.51,0.13l-0.43 -0.37c0.21,-0.2 0.45,-0.32 0.75,-0.32l2.4 0c0.63,0 0.99,0.47 0.99,0.99l0 4.08c0,0.54 -0.37,0.75 -0.75,0.84l-0.28 -0.22c0,0 0.47,-0.27 0.47,-0.77l0 -3.78c0,-0.32 -0.26,-0.58 -0.58,-0.58l-2.06 0zm2.64 6.58c0,-0.54 -0.32,-0.91 -0.93,-0.95l0.78 0c0.35,0.05 0.71,0.41 0.71,0.95l0 4.56c0,0.32 -0.13,0.54 -0.28,0.69l-0.43 -0.43c0.11,-0.15 0.15,-0.3 0.15,-0.44l0 -4.38zm-3.84 2.05l1.31 0 0 2.18 1.79 0 0.4 0.41c-0.09,0.09 -0.16,0.15 -0.29,0.15l-1.9 0c-0.3,0 -0.56,-0.28 -0.56,-0.56l0 -1.44 -0.75 -0.74zm0.75 -6.21l0 -1.62c0,-0.24 0.04,-0.35 0.15,-0.46l0.41 0.41 0 2.23 -0.56 -0.56zm0.61 2.5l1.77 0 0.19 0.15c-0.21,0.28 -0.71,0.41 -1.01,0.41l-0.39 0 -0.56 -0.56zm7.9 7.38l2.05 -7.04 0 7.04 1.68 0 0 -13.04 -1.68 0 -1.98 6.85 0 -6.85 -1.67 0 0 13.04 1.6 0zm2.98 -0.75l0 -11.36 -0.74 -0.75 1.3 0 0 12.67 -0.56 -0.56zm-3.65 -0.15l0 -11.21 -0.75 -0.75 1.31 0 0 7.27 -0.56 4.69zm0.58 0.58l-0.43 -0.43 3.11 -10.86 -0.47 3.67 -2.21 7.62zm7.86 0.32l1.67 0 0 -11.37 1.49 0 0 -1.67 -4.65 0 0 1.67 1.49 0 0 11.37zm0.93 -12.11l0.56 0.56 0 11.36 -0.56 -0.56 0 -11.36zm-2.24 -0.75l4.29 0 0 1.31 -0.75 -0.75 -2.98 0 -0.56 -0.56zm7.01 -0.18l0 13.04 1.67 0 0 -5.7 1.55 5.7 1.73 0 -1.97 -6.99 1.77 -6.05 -1.77 0 -1.31 4.9 0 -4.9 -1.67 0zm0.93 0.95l-0.75 -0.77 1.31 0 0 12.67 -0.56 -0.56 0 -11.34zm1.26 5.1l1.55 -5.1 -0.54 -0.77 1.3 0 -1.71 5.87 1.92 6.8 -0.65 -0.63 -1.87 -6.17zm8.81 6.99l1.64 0 -1.34 -13.04 -2.98 0 -1.38 13.04 1.68 0 0.26 -2.56 1.86 0 0.26 2.56zm-2.53 -12.86l2.65 0 1.32 12.67 -0.65 -0.65 -1.2 -11.46 -1.62 0 -0.5 -0.56zm0.67 0.75l0.5 0.56 -0.78 7.5 1.92 0 0.58 0.56 -3.11 0 0.89 -8.62zm0.67 0.74l0.75 7.14 -1.49 0 0.74 -7.14zm-1.38 11.18l-0.48 -0.48 0.26 -2.56 0.48 0.49 -0.26 2.55z"/>
 </g>
</svg>
