<svg width="516.313" height="277.668" viewBox="0 0 35.46 19.065" xmlns="http://www.w3.org/2000/svg"><g id="Слой_x0020_1" transform="translate(-18.79 -.633)"><path fill="#0073bb" d="M30.96 6.49h2.21v.72h-1.05v5.08h-1.16zm2.18 5.8h1.13l.11-1.54h.55l.1 1.54h1.14l-.6-5.8h-1.83zm1.28-2.18l.2-2.9h.07l.2 2.9zm3.28.15v1.09c0 .15.11.19.18.19.11 0 .18-.09.18-.19V10c0-.18-.03-.38-.46-.38h-.48v-.64h.49c.33 0 .45-.07.45-.43V7.4c0-.1-.07-.19-.18-.19-.07 0-.18.04-.18.19v.95h-1.17v-.83c0-.4.05-1.03.87-1.03h.96c.81 0 .86.63.86 1.03v.93c0 .63-.44.81-.79.79v.06c.78-.02.79.58.79.79v1.16c0 .41-.05 1.04-.86 1.04h-.96c-.82 0-.87-.63-.87-1.04v-.99zm2.13-3.77h2.69v5.8h-1.16V7.21h-.37v5.08h-1.16zm3.36 5.8h1.16v-1.97h.67c.81 0 .86-.63.86-1.04V7.53c0-.41-.05-1.04-.86-1.04h-1.83zm1.16-2.61V7.21h.15c.13 0 .22.11.22.29v1.89c0 .18-.09.29-.22.29zm2.09 1.57c0 .41.05 1.04.86 1.04h.96c.82 0 .87-.63.87-1.04V7.53c0-.41-.05-1.04-.87-1.04h-.96c-.81 0-.86.63-.86 1.04zm1.53.1c0 .1-.08.19-.19.19a.18.18 0 01-.18-.19V7.4c0-.15.12-.19.18-.19.11 0 .19.09.19.19zm4.77-4.86h1.51v5.8h-1.16V8.65h-.04l-.6 3.64h-.93l-.59-3.64h-.05v3.64h-1.16v-5.8h1.51l.76 4.08zm-23.55.57c-.01.68-.09 1.39-.2 1.81.04-.73-.05-1.76-.22-2.57-.16-.81-.64-2.15-1.02-2.78-.35.6-.79 1.76-1.01 2.77-.23 1.01-.24 2.24-.24 2.6-.06-.31-.21-1.41-.17-2.52.04-.91.25-1.85.37-2.28.45-1.45.95-2.37 1.05-2.52.09.15.73 1.29 1.06 2.48.33 1.19.4 2.34.38 3.01zm-1.43 5.16c-.2-.38-.51-1.09-.54-2.18-.01-1.06.42-1.98.54-2.17.11.19.48.99.52 2.07.03 1.06-.32 1.9-.52 2.28zm1.55-8.16C28.91 2.3 27.9.86 27.76.63c-.22.33-1.03 1.6-1.44 3-.45 1.57-.51 2.96-.36 4.33.15 1.37.73 2.78.73 2.78.31.74.77 1.53 1.07 1.92.44-.58 1.45-2.28 1.77-4.51.17-1.23.18-2.32-.22-4.09z M28.44 13.07h-3.07v2.06l.01-.01c.72-.73 1.9-.73 2.62 0 .72.72.72 1.89 0 2.61 0 .01-.01.01-.01.01 0 .01-.01.01-.01.01-.72.72-1.66 1.08-2.61 1.08-.94 0-1.89-.36-2.61-1.09a3.689 3.689 0 01-.45-4.67 3.688 3.688 0 013.06-1.63V6.49c-3.63 0-6.58 2.95-6.58 6.58a6.585 6.585 0 0011.39 4.5v-4.5zm25.81 0H30.96v3.62h23.29z M31.76 19.65h-.24v-1.96h-.56v-.22h1.36v.22h-.56zm4.2-1.13c0 .63.06.96.46.96s.47-.33.47-.96c0-.48-.09-.87-.47-.87s-.46.39-.46.87zm-.63-.12h.38c0-.46.14-.97.71-.97.64 0 .72.63.72 1.13 0 .6-.08 1.14-.72 1.14-.61 0-.71-.5-.71-1.08h-.38v1.03h-.24v-2.18h.24zm5.12-.93l.43 1.7c.02.09.03.18.04.32h.01c.01-.11.02-.2.05-.32l.43-1.7h.43v2.18h-.24v-1.79c0-.1.01-.2.01-.28h-.01c-.03.13-.05.21-.07.29l-.46 1.78h-.29l-.45-1.8c-.02-.08-.04-.15-.07-.27 0 .12.01.19.01.28v1.79h-.25v-2.18zm5.43 0v.22h-.85v.71h.8v.22h-.8v.81h.86v.22h-1.1v-2.18zm3.12.93h.83v-.93h.24v2.18h-.24v-1.03H49v1.03h-.24v-2.18H49zm4.26 1.03h.28c.29 0 .46-.09.46-.39 0-.35-.2-.42-.53-.42h-.21zm0-1.03h.29c.39 0 .7.13.7.64 0 .43-.26.61-.65.61h-.58v-2.18h.24z"/><path d="M31.68 14.5v-.14c0-.34.21-.61.71-.61.49 0 .7.27.7.61v.95c0 .5-.22.71-.7.71-.49 0-.71-.21-.71-.71v-.14h.52v.23c0 .16.08.22.19.22s.18-.06.18-.23v-.34h-.28v-.42h.28v-.32c0-.11-.09-.16-.18-.16-.08 0-.19.05-.19.17v.18zm2.88.13h.34v-.84h.52v2.18h-.52v-.92h-.34v.92h-.53v-2.18h.53zm1.84-.84h1.21v.42h-.69v.42h.62v.42h-.62v.51h.69v.41H36.4zm2.63.94h.1c.13 0 .25-.06.25-.28 0-.21-.11-.26-.26-.26h-.09zm0 1.24h-.52v-2.18h.76c.3 0 .63.11.63.67 0 .53-.32.66-.63.66h-.24zm2.87-2.18v.42h-.7v1.76h-.52v-2.18zm1.23.53v1.11c0 .13.09.19.18.19s.19-.06.19-.19v-1.11c0-.12-.1-.17-.19-.17s-.18.05-.18.17zm.89.04v.98c0 .43-.22.68-.71.68-.48 0-.7-.25-.7-.68v-.98c0-.34.21-.61.71-.61.49 0 .7.27.7.61zm2.19.75v.2c0 .5-.22.71-.7.71-.49 0-.71-.21-.71-.71v-.95c0-.34.21-.61.71-.61.49 0 .7.27.7.61v.15h-.52v-.19c0-.12-.11-.17-.19-.17-.09 0-.18.04-.18.16v1.08c0 .16.07.23.18.23.11 0 .19-.06.19-.22v-.29zm1.36.47h.09c.16 0 .26-.05.26-.27 0-.22-.12-.29-.25-.29h-.1zm.66-1.79v.4h-.66v.44h.24c.31 0 .64.14.64.68 0 .55-.34.66-.64.66h-.76v-2.18zm3.24 2.18h-.53v-2.18h.53zm-1.61-.39h.09c.15 0 .26-.05.26-.27 0-.22-.12-.29-.25-.29h-.1zm0-.95h.24c.31 0 .63.14.63.68 0 .55-.33.66-.63.66h-.76v-2.18h.52zm3.28 1.34h-.48v-1.76h-.41v-.42h1.27v.42h-.38z" fill="#fefefe"/></g></svg>