<?xml version="1.0" encoding="UTF-8"?>
<!DOCTYPE svg PUBLIC "-//W3C//DTD SVG 1.1//EN" "http://www.w3.org/Graphics/SVG/1.1/DTD/svg11.dtd">
<!-- Creator: CorelDRAW 2020 (64-Bit) -->
<svg xmlns="http://www.w3.org/2000/svg" xml:space="preserve" width="354px" height="213px" version="1.1" style="shape-rendering:geometricPrecision; text-rendering:geometricPrecision; image-rendering:optimizeQuality; fill-rule:evenodd; clip-rule:evenodd"
viewBox="0 0 20.41 12.25"
 xmlns:xlink="http://www.w3.org/1999/xlink"
 xmlns:xodm="http://www.corel.com/coreldraw/odm/2003">
 <defs>
  <style type="text/css">
   <![CDATA[
    .fil0 {fill:#FEFEFE;fill-rule:nonzero}
   ]]>
  </style>
 </defs>
 <g id="Слой_x0020_1">
  <metadata id="CorelCorpID_0Corel-Layer"/>
  <g id="_2514834151440">
   <path class="fil0" d="M14.62 5.1l2.32 0 0 -4.99 -1.53 0 0 3.65 -0.67 0c-0.49,0 -0.75,-0.16 -0.75,-0.78l0 -2.87 -1.53 0 0 2.87c0,1.45 0.69,2.12 2.16,2.12z"/>
   <path class="fil0" d="M7.73 5.57l-2.32 0 0 4.99 1.54 0 0 -3.65 0.67 0c0.49,0 0.74,0.16 0.74,0.78l0 2.87 1.53 0 0 -2.87c0,-1.45 -0.68,-2.12 -2.16,-2.12z"/>
   <polygon class="fil0" points="11.95,5.1 11.95,0.11 10.41,0.11 10.41,1.9 8.95,1.9 8.95,0.11 7.41,0.11 7.41,5.1 8.95,5.1 8.95,3.2 10.41,3.2 10.41,5.1 "/>
   <path class="fil0" d="M17.92 9.42c-0.69,0 -0.94,-0.57 -0.94,-1.35 0,-0.78 0.25,-1.35 0.94,-1.35 0.69,-0.01 0.94,0.57 0.94,1.35 0,0.78 -0.25,1.35 -0.94,1.35zm0 -3.96c-1.69,0 -2.48,1.1 -2.48,2.61 0,1.5 0.79,2.6 2.48,2.6 1.69,0 2.49,-1.1 2.49,-2.6 0,-1.51 -0.79,-2.61 -2.49,-2.61z"/>
   <path class="fil0" d="M4.53 3.96c-0.69,0 -0.91,-0.57 -0.91,-1.35 0,-0.79 0.22,-1.36 0.91,-1.36 0.69,0 0.94,0.57 0.94,1.36 0,0.78 -0.25,1.34 -0.94,1.35zm2.49 -1.35c0,-1.51 -0.79,-2.61 -2.49,-2.61 -1.41,0 -2.15,0.77 -2.36,1.9l-0.63 0 0 -1.79 -1.54 0 0 4.99 1.54 0 0 -1.9 0.62 0c0.17,1.19 0.91,2.01 2.37,2.01 1.69,0 2.49,-1.1 2.49,-2.6z"/>
   <path class="fil0" d="M12.45 9.22l-0.51 0 0 -2.31 0.51 0c0.71,0 1.1,0.28 1.1,1.15 0,0.87 -0.39,1.16 -1.1,1.16zm0.09 -3.65l-2.13 0 0 6.68 1.53 0 0 -1.69 0.6 0c1.67,0 2.58,-0.83 2.58,-2.5 0,-1.67 -0.91,-2.49 -2.58,-2.49z"/>
  </g>
 </g>
</svg>
