<?xml version="1.0" encoding="UTF-8"?>
<!DOCTYPE svg PUBLIC "-//W3C//DTD SVG 1.1//EN" "http://www.w3.org/Graphics/SVG/1.1/DTD/svg11.dtd">
<!-- Creator: CorelDRAW 2020 (64-Bit) -->
<svg xmlns="http://www.w3.org/2000/svg" xml:space="preserve" width="844px" height="61px" version="1.1" style="shape-rendering:geometricPrecision; text-rendering:geometricPrecision; image-rendering:optimizeQuality; fill-rule:evenodd; clip-rule:evenodd"
viewBox="0 0 122.61 8.91"
 xmlns:xlink="http://www.w3.org/1999/xlink"
 xmlns:xodm="http://www.corel.com/coreldraw/odm/2003">
 <defs>
  <style type="text/css">
   <![CDATA[
    .fil0 {fill:#93D5F6;fill-rule:nonzero}
   ]]>
  </style>
 </defs>
 <g id="PowerClip_x0020_Contents">
  <metadata id="CorelCorpID_0Corel-Layer"/>
  <path class="fil0" d="M6.62 8.91l-3.06 0 -1.78 0 0 -1.78 -1.78 0 0 -1.79 1.78 0 0 -1.78 -1.78 0 0 -1.78 1.78 0 0 -1.78 1.78 0 3.06 0 0.85 0c1.86,0 2.71,0.88 2.71,2.76l0 0.8 -1.78 0 0 -0.51c0,-0.87 -0.41,-1.27 -1.27,-1.27l-0.51 0 -3.06 0 0 5.35 3.06 0 0.51 0c0.86,0 1.27,-0.4 1.27,-1.28l0 -0.51 0 -1.78 114.21 0 0 1.78 -112.43 0 0 0.81c0,1.88 -0.85,2.76 -2.71,2.76l-0.85 0z"/>
 </g>
</svg>
