<?xml version="1.0" encoding="UTF-8"?>
<!DOCTYPE svg PUBLIC "-//W3C//DTD SVG 1.1//EN" "http://www.w3.org/Graphics/SVG/1.1/DTD/svg11.dtd">
<!-- Creator: CorelDRAW 2020 (64-Bit) -->
<svg xmlns="http://www.w3.org/2000/svg" xml:space="preserve" width="844px" height="61px" version="1.1" style="shape-rendering:geometricPrecision; text-rendering:geometricPrecision; image-rendering:optimizeQuality; fill-rule:evenodd; clip-rule:evenodd"
viewBox="0 0 93.27 6.78"
 xmlns:xlink="http://www.w3.org/1999/xlink"
 xmlns:xodm="http://www.corel.com/coreldraw/odm/2003">
 <defs>
  <style type="text/css">
   <![CDATA[
    .fil0 {fill:#93D5F6;fill-rule:nonzero}
   ]]>
  </style>
 </defs>
 <g id="PowerClip_x0020_Contents">
  <metadata id="CorelCorpID_0Corel-Layer"/>
  <path class="fil0" d="M88.24 6.78l2.32 0 1.36 0 0 -1.36 1.35 0 0 -1.35 -1.35 0 0 -1.36 1.35 0 0 -1.35 -1.35 0 0 -1.36 -1.36 0 -2.32 0 -0.65 0c-1.41,0 -2.06,0.67 -2.06,2.1l0 0.61 1.36 0 0 -0.39c0,-0.66 0.31,-0.96 0.96,-0.96l0.39 0 2.32 0 0 4.06 -2.32 0 -0.39 0c-0.65,0 -0.96,-0.3 -0.96,-0.97l0 -0.38 0 -1.36 -86.89 0 0 1.36 85.53 0 0 0.61c0,1.43 0.65,2.1 2.06,2.1l0.65 0z"/>
 </g>
</svg>
