<svg xmlns="http://www.w3.org/2000/svg" width="662" height="184" viewBox="0 0 38.54 10.7" shape-rendering="geometricPrecision" text-rendering="geometricPrecision" image-rendering="optimizeQuality" fill-rule="evenodd" clip-rule="evenodd"><defs><linearGradient id="b" gradientUnits="userSpaceOnUse" x1="33.29" y1="10.2" x2="32.45" y2="3.61"><stop offset="0" stop-color="#203050"/><stop offset="1" stop-color="#141f3b"/></linearGradient><linearGradient id="c" gradientUnits="userSpaceOnUse" x1="17.35" y1="9.25" x2="17.35" y2=".35"><stop offset="0" stop-color="#9dcef0"/><stop offset="1" stop-color="#fefefe"/></linearGradient><clipPath id="a"><path d="M.05.05h38.44v10.6H.05V.05z"/></clipPath></defs><path fill="#141f3b" d="M.05.05h38.44v10.6H.05z"/><g clip-path="url(#a)"><path d="M38.49 10.65H.05s27.94.54 38.44-10.6v10.6z" fill="url(#b)"/></g><path fill="none" stroke="#fff" stroke-width=".1" stroke-miterlimit="22.93" d="M.05.05h38.44v10.6H.05z"/><path d="M1.56 2.12v6.12h-.45v1.01h.78c.37 0 .67-.3.67-.66V2.46h.84v6.79h1V1.46H2.22a.68.68 0 00-.66.66zm2.73-.55v7.56l-.33-.33V2.01l-.11-.11H2.38c-.16 0-.26.04-.3.08l-.26-.22a.58.58 0 01.45-.19h2.02zm-2.18.74c0-.14.05-.21.07-.23l.27.27v6.21c0 .18-.08.32-.17.41l-.26-.26a.42.42 0 00.09-.27V2.31zm-.38 6.38h-.17l-.34-.33h.45l.24.24c-.05.06-.1.09-.18.09zm5.24.56L8.2 5.04v4.21h1V1.46h-1L7.02 5.55V1.46h-1v7.79h.95zm1.78-.45V2.01l-.44-.44h.78v7.56l-.34-.33zm-2.18-.09v-6.7l-.44-.44h.78v4.34l-.34 2.8zm.35.35l-.26-.26 1.86-6.49-.28 2.2-1.32 4.55zm5.98-4.01h-.84V1.46h-1V5.4c0 .35.31.65.67.65h1.17v3.2h1.01V1.46H12.9v3.59zm.56-3.04l-.44-.44h.77v7.56l-.33-.33V2.01zm-.44 3.15l.33.34h-1.4a.36.36 0 01-.34-.34V2.01l-.44-.44h.78v3.59h1.07zm2.73 4.09h1v-3.2h.85v3.2h1V1.46h-1v3.59h-.85V1.46h-1v7.79zm.56-7.24l-.45-.44h.78v3.59h1.07l.34.34h-1.74V2.01zm1.85 0l-.45-.44h.78v7.56l-.33-.33V2.01zm-1.85 3.6l.33.33v3.19l-.33-.33V5.61zm4.14 2.98c0 .36.31.66.67.66h1.51c.37 0 .67-.3.67-.66V2.12a.67.67 0 00-.67-.66h-1.51a.68.68 0 00-.67.66v6.47zm1.85-.35h-.85V2.46h.85v5.78zm-1.29-5.93c0-.14.04-.21.06-.23l.27.27v6.01h1.07l.24.24c-.05.06-.1.09-.18.09h-1.13a.34.34 0 01-.33-.33V2.31zm1.84-.06a.35.35 0 00-.34-.35h-1.24a.49.49 0 00-.3.08l-.25-.22a.56.56 0 01.44-.19h1.44c.34 0 .59.25.59.59v6.4c0 .18-.08.32-.17.41l-.26-.26a.42.42 0 00.09-.27V2.25zm5.14 1.54V2.12a.67.67 0 00-.66-.66h-1.52a.69.69 0 00-.67.66v6.47c0 .36.32.66.67.66h1.52c.36 0 .66-.3.66-.66V6.9h-1v1.34h-.84V2.46h.84v1.33h1zM25.7 2.31c0-.14.05-.21.07-.23l.26.27v6.01h1.07l.25.24c-.06.06-.1.09-.18.09h-1.14a.35.35 0 01-.33-.33V2.31zm1.85 1.04v-1.1a.35.35 0 00-.35-.35h-1.23c-.16 0-.26.04-.3.08l-.26-.22a.58.58 0 01.45-.19h1.43c.35 0 .59.25.59.59v1.52l-.33-.33zm.33 3.66v1.55c0 .18-.08.32-.17.41l-.25-.26a.42.42 0 00.09-.27v-.99l-.45-.44h.78zm2.36 2.24h1V2.46h.89v-1h-2.78v1h.89v6.79zm.56-7.24l.33.34v6.78l-.33-.33V2.01zm-1.34-.44h2.56v.78l-.44-.45H29.8l-.34-.33zm5.13 7.68l1.22-4.21v4.21h1.01V1.46h-1.01l-1.17 4.09V1.46h-1.01v7.79h.96zm1.78-.45V2.01l-.44-.44h.78v7.56l-.34-.33zm-2.18-.09v-6.7l-.44-.44h.77v4.34l-.33 2.8zm.35.35l-.26-.26 1.86-6.49-.28 2.2-1.32 4.55z" fill="url(#c)" fill-rule="nonzero"/></svg>