<svg xmlns="http://www.w3.org/2000/svg" width="685" height="226" viewBox="0 0 68.52 22.61" shape-rendering="geometricPrecision" text-rendering="geometricPrecision" image-rendering="optimizeQuality" fill-rule="evenodd" clip-rule="evenodd"><defs><linearGradient id="b" gradientUnits="userSpaceOnUse" x1="59.19" y1="21.57" x2="57.7" y2="7.62"><stop offset="0" stop-color="#203050"/><stop offset="1" stop-color="#141f3b"/></linearGradient><linearGradient id="c" gradientUnits="userSpaceOnUse" x1="31.9" y1="17.83" x2="31.9" y2="2.94"><stop offset="0" stop-color="#9dcef0"/><stop offset="1" stop-color="#fefefe"/></linearGradient><clipPath id="a"><path d="M.08.08h68.36v22.45H.08V.08z"/></clipPath></defs><path fill="#141f3b" d="M.08.08h68.36v22.45H.08z"/><g clip-path="url(#a)"><path d="M68.44 22.53H.08S49.76 23.67 68.44.08v22.45z" fill="url(#b)"/></g><path fill="none" stroke="#fff" stroke-width=".17" stroke-miterlimit="22.93" d="M.08.08h68.36v22.45H.08z"/><path d="M8.35 17.83H12c.62 0 1.12-.51 1.12-1.1v-4.62c0-.47-.28-.99-.78-1.1.33-.09.58-.45.58-.91V5.91c0-.6-.49-1.12-1.12-1.12H8.35v13.04zm1.68-1.68v-4.21h1.41v4.21h-1.41zM8.54 4.97h3.2c.64 0 .99.47.99.99v4.08c0 .39-.21.75-.58.84l-.28-.19s.3-.3.3-.8V6.11a.58.58 0 00-.58-.58H9.1l-.56-.56zm1.49 1.49h1.21v3.8h-1.21v-3.8zm-.75 4.94l.56.54v4.4h1.79l.41.41c-.09.09-.17.15-.3.15H9.28v-5.5zm0-5.66l.56.54v4.17h1.4c.13 0 .22-.04.22-.04l.28.19c-.2.28-.59.41-.89.41H9.28V5.74zm3.1 6.37c0-.54-.32-.91-.94-.95h.79c.35.05.7.41.7.95v4.56c0 .32-.13.54-.27.69l-.43-.43c.11-.15.15-.3.15-.44v-4.38zm5.34 5.72l2.05-7.04v7.04h1.68V4.79h-1.68l-1.97 6.85V4.79h-1.68v13.04h1.6zm2.98-.75V5.72l-.74-.75h1.3v12.67l-.56-.56zm-3.65-.15V5.72l-.74-.75h1.3v7.27l-.56 4.69zm.58.58l-.43-.43 3.11-10.86-.47 3.67-2.21 7.62zm6.93-3.54v2.76a1.1 1.1 0 001.11 1.1h2.54c.61 0 1.12-.51 1.12-1.1v-4.62c0-.47-.28-.99-.79-1.1.51-.11.79-.45.79-.91V5.91c0-.6-.49-1.12-1.12-1.12h-2.54c-.63 0-1.11.46-1.11 1.1V8.7h1.67V6.46h1.42v3.8h-1.7v1.68h1.7v4.21h-1.42v-2.18h-1.67zm1.38-8.44c-.27 0-.43.06-.51.13L25 5.29c.21-.2.45-.32.75-.32h2.4c.63 0 .99.47.99.99v4.08c0 .54-.37.75-.75.84l-.28-.22s.47-.27.47-.77V6.11a.58.58 0 00-.58-.58h-2.06zm2.64 6.58c0-.54-.32-.91-.93-.95h.78c.35.05.71.41.71.95v4.56c0 .32-.13.54-.28.69l-.43-.43c.11-.15.15-.3.15-.44v-4.38zm-3.84 2.05h1.31v2.18h1.79l.4.41c-.09.09-.16.15-.29.15h-1.9a.59.59 0 01-.56-.56V14.9l-.75-.74zm.75-6.21V6.33c0-.24.04-.35.15-.46l.41.41v2.23l-.56-.56zm.61 2.5h1.77l.19.15c-.21.28-.71.41-1.01.41h-.39l-.56-.56zm7.9 7.38l2.05-7.04v7.04h1.68V4.79h-1.68l-1.98 6.85V4.79H32.4v13.04H34zm2.98-.75V5.72l-.74-.75h1.3v12.67l-.56-.56zm-3.65-.15V5.72l-.75-.75h1.31v7.27l-.56 4.69zm.58.58l-.43-.43 3.11-10.86-.47 3.67-2.21 7.62zm7.86.32h1.67V6.46h1.49V4.79h-4.65v1.67h1.49v11.37zm.93-12.11l.56.56v11.36l-.56-.56V5.72zm-2.24-.75h4.29v1.31L44 5.53h-2.98l-.56-.56zm7.01-.18v13.04h1.67v-5.7l1.55 5.7h1.73l-1.97-6.99 1.77-6.05h-1.77l-1.31 4.9v-4.9h-1.67zm.93.95l-.75-.77h1.31v12.67l-.56-.56V5.74zm1.26 5.1l1.55-5.1-.54-.77h1.3l-1.71 5.87 1.92 6.8-.65-.63-1.87-6.17zm8.81 6.99h1.64L58.77 4.79h-2.98l-1.38 13.04h1.68l.26-2.56h1.86l.26 2.56zM55.94 4.97h2.65l1.32 12.67-.65-.65-1.2-11.46h-1.62l-.5-.56zm.67.75l.5.56-.78 7.5h1.92l.58.56h-3.11l.89-8.62zm.67.74l.75 7.14h-1.49l.74-7.14zM55.9 17.64l-.48-.48.26-2.56.48.49-.26 2.55z" fill="url(#c)" fill-rule="nonzero"/></svg>