<svg xmlns="http://www.w3.org/2000/svg" width="634" height="305" viewBox="0 0 25.52 12.29" xmlns:xlink="http://www.w3.org/1999/xlink" shape-rendering="geometricPrecision" text-rendering="geometricPrecision" image-rendering="optimizeQuality" fill-rule="evenodd" clip-rule="evenodd"><defs><linearGradient id="c" gradientUnits="userSpaceOnUse" x1="22.04" y1="11.73" x2="21.49" y2="4.14"><stop offset="0" stop-color="#203050"/><stop offset="1" stop-color="#141f3b"/></linearGradient><linearGradient id="a" gradientUnits="userSpaceOnUse" x1="12.04" y1="11.42" x2="12.04" y2="5.41"><stop offset="0" stop-color="#9dcef0"/><stop offset="1" stop-color="#fefefe"/></linearGradient><linearGradient id="d" gradientUnits="userSpaceOnUse" xlink:href="#a" x1="11.79" y1="5.25" x2="11.79" y2=".98"/><clipPath id="b"><path d="M.03.03h25.46v12.22H.03V.03z"/></clipPath></defs><path fill="#141f3b" d="M.03.03h25.46v12.22H.03z"/><g clip-path="url(#b)"><path d="M25.49 12.25H.03s18.5.62 25.46-12.22v12.22z" fill="url(#c)"/></g><path fill="none" stroke="#fff" stroke-width=".07" stroke-miterlimit="22.926" d="M.03.03h25.46v12.22H.03z"/><path d="M6.68 11.42v-1.03h.8c.25 0 .45-.2.45-.44V6.61c0-.24-.19-.46-.45-.46H5.21a.47.47 0 00-.45.46v3.34c0 .24.21.44.45.44h.8v1.03h.67zM5.43 6.83h.58v2.88h-.58V6.83zm1.83 2.88h-.58V6.83h.58v2.88zm.2-3.48c.25 0 .4.19.4.4v3.29c0 .13-.06.22-.12.28l-.17-.17c.05-.06.06-.12.06-.18V6.69c0-.13-.1-.23-.23-.23H5.31c-.1 0-.17.02-.2.05l-.17-.15c.08-.08.18-.13.3-.13h2.22zm-1.08.31l.23.22v3.03h.72l.17.16c-.04.04-.07.07-.12.07h-1V6.54zM5.13 9.79V6.73c0-.09.03-.14.05-.15l.18.18v3.03h.65l.25.23h-.9a.24.24 0 01-.23-.23zm1.25.3l.23.23v1.03l-.23-.23v-1.03zm4.11 1.33h.66l-.54-5.27h-1.2l-.56 5.27h.68l.1-1.03h.76l.1 1.03zM9.47 6.23h1.07l.53 5.12-.26-.27-.48-4.62h-.66l-.2-.23zm.27.3l.2.23-.31 3.03h.77l.23.23H9.38l.36-3.49zm.27.3l.3 2.88h-.6l.3-2.88zm-.56 4.52l-.19-.2.1-1.03.2.2-.11 1.03zm2.77-5.2v5.27h.68v-2.3l.62 2.3h.7l-.79-2.82.71-2.45h-.71l-.53 1.98V6.15h-.68zm.38.39l-.3-.31h.52v5.12l-.22-.23V6.54zm.51 2.06l.62-2.06-.21-.31h.52l-.69 2.37.78 2.75-.27-.26-.75-2.49zm2.47 2.82h.68V6.83h.6v-.68h-1.88v.68h.6v4.59zm.38-4.89l.23.23v4.59l-.23-.23V6.53zm-.9-.3h1.73v.53l-.3-.3h-1.21l-.22-.23zm2.83-.08v5.27h1.47c.25 0 .45-.2.45-.44V8.82c0-.24-.19-.45-.45-.45h-.8V6.15h-.67zm.6 2.29h.85c.26 0 .4.19.4.4v2.12c0 .12-.05.21-.11.27l-.18-.17c.05-.06.06-.12.06-.18V8.9c0-.13-.1-.23-.23-.23h-1.02V6.51l-.3-.28h.53v2.21zm.07.6h.58v1.71h-.58V9.04zm-.3-.21l.23.21v1.78h.72l.17.17c-.04.03-.07.06-.12.06h-1V8.83zm1.82 2.59h.68V6.15h-.68v5.27zm.08-5.19h.53v5.12l-.23-.23V6.51l-.3-.28z" fill="url(#a)" fill-rule="nonzero"/><path d="M2.49 5.25l.59-2.02v2.02h.48V1.51h-.48l-.57 1.97V1.51h-.48v3.74h.46zm.86-.21V1.78l-.22-.22h.38V5.2l-.16-.16zM2.3 5V1.78l-.21-.22h.37v2.09L2.3 5zm.16.16l-.12-.12.89-3.12-.13 1.06-.64 2.18zm1.99.09h.48V3.72h.41v1.53h.48V1.51h-.48v1.73h-.41V1.51h-.48v3.74zm.27-3.47l-.21-.22h.37v1.73h.51l.16.16h-.83V1.78zm.89 0l-.22-.22h.38V5.2l-.16-.16V1.78zM4.72 3.5l.16.16V5.2l-.16-.16V3.5zm2.25 1.75h.49V1.99h.42v-.48H6.55v.48h.42v3.26zm.27-3.47l.16.16V5.2l-.16-.16V1.78zm-.64-.22h1.23v.38l-.21-.22h-.86l-.16-.16zm3.25 3.21h-.76V3.5h.51v-.48h-.51V1.99h.72v-.48h-1.2v3.74h1.24v-.48zm-.97-1.42l.16.15v1.32h.76v.38l-.22-.22h-.7V3.35zm0-1.57l.16.16v1.14h.51v.37l-.22-.21h-.45V1.78zm-.22-.22h1.1v.38l-.22-.22h-.7l-.18-.16zm2.02-.05v3.74h.48v-1.7h.57c.18 0 .32-.14.32-.31V1.83c0-.17-.14-.32-.32-.32h-1.05zm1.16.38c0-.09-.08-.17-.17-.17h-.77l-.16-.16h.97c.19 0 .29.14.29.29v1.37c0 .09-.04.16-.08.2l-.13-.12c.04-.05.05-.09.05-.13V1.89zm-.27 1.18h-.41V1.99h.41v1.08zm-.62-1.29l.16.16v1.18h.51l.12.12c-.03.03-.05.05-.08.05h-.71V1.78zm0 1.56l.16.16v1.7l-.16-.16v-1.7zm3.12 1.43h-.76V3.5h.51v-.48h-.51V1.99h.72v-.48h-1.2v3.74h1.24v-.48zm-.97-1.42l.16.15v1.32h.76v.38l-.22-.22h-.7V3.35zm0-1.57l.16.16v1.14h.51v.37l-.22-.21h-.45V1.78zm-.22-.22h1.1v.38l-.22-.22h-.7l-.18-.16zm3.39 1.07v-.8c0-.17-.14-.32-.32-.32h-.72c-.18 0-.33.15-.33.32v3.11c0 .17.15.31.33.31h.72c.18 0 .32-.14.32-.31v-.82h-.48v.65h-.4V1.99h.4v.64h.48zm-1.1-.71c0-.07.02-.1.03-.11l.13.13v2.88h.52l.11.12a.09.09 0 01-.08.04h-.55c-.08 0-.16-.07-.16-.16v-2.9zm.89.5v-.53c0-.09-.08-.17-.17-.17h-.59c-.07 0-.12.02-.14.04l-.13-.1c.06-.06.13-.1.22-.1h.69c.16 0 .28.13.28.29v.73l-.16-.16zm.16 1.76v.74c0 .09-.04.16-.08.2L16.02 5c.03-.05.04-.09.04-.13v-.48l-.21-.21h.37zm.87 1.07h.48V3.72h.4v1.53h.48V1.51h-.48v1.73h-.4V1.51h-.48v3.74zm.26-3.47l-.21-.22h.37v1.73h.52l.16.16h-.84V1.78zm.89 0l-.21-.22h.37V5.2l-.16-.16V1.78zm-.89 1.72l.16.16V5.2l-.16-.16V3.5zm1.99-1.99v3.74h1.05c.17 0 .32-.14.32-.31V3.4c0-.17-.14-.32-.32-.32h-.57V1.51h-.48zm.43 1.63h.6c.18 0 .28.13.28.28v1.5c0 .09-.03.16-.08.2L20.45 5c.03-.05.04-.09.04-.13V3.46c0-.09-.07-.16-.16-.16h-.72V1.76l-.22-.2h.38v1.58zm.05.42h.41v1.21h-.41V3.56zm-.21-.15l.16.15v1.26h.51l.12.12c-.03.03-.05.04-.09.04h-.7V3.41zm1.29 1.84h.48V1.51h-.48v3.74zm.05-3.69h.38V5.2l-.16-.16V1.76l-.22-.2zm2.54 3.21h-.76V3.5h.51v-.48h-.51V1.99h.72v-.48h-1.2v3.74h1.24v-.48zm-.98-1.42l.16.15v1.32h.76v.38l-.21-.22h-.71V3.35zm0-1.57l.16.16v1.14h.51v.37l-.22-.21h-.45V1.78zm-.21-.22h1.1v.38l-.22-.22h-.7l-.18-.16z" fill="url(#d)" fill-rule="nonzero"/></svg>