<svg xmlns="http://www.w3.org/2000/svg" width="1257" height="184" viewBox="0 0 224.36 32.8" shape-rendering="geometricPrecision" text-rendering="geometricPrecision" image-rendering="optimizeQuality" fill-rule="evenodd" clip-rule="evenodd"><defs><linearGradient id="b" gradientUnits="userSpaceOnUse" x1="193.9" y1="31.25" x2="189.03" y2="11.06"><stop offset="0" stop-color="#203050"/><stop offset="1" stop-color="#141f3b"/></linearGradient><linearGradient id="c" gradientUnits="userSpaceOnUse" x1="102.44" y1="28.33" x2="102.44" y2="1.07"><stop offset="0" stop-color="#9dcef0"/><stop offset="1" stop-color="#fefefe"/></linearGradient><clipPath id="a"><path d="M.15.15h224.06v32.5H.15V.15z"/></clipPath></defs><path fill="#141f3b" d="M.15.15h224.06v32.5H.15z"/><g clip-path="url(#a)"><path d="M224.21 32.65H.15S163 34.3 224.21.15v32.5z" fill="url(#b)"/></g><path fill="none" stroke="#fff" stroke-width=".3" stroke-miterlimit="22.93" d="M.15.15h224.06v32.5H.15z"/><path d="M11.79 6.2l-1.36-1.39h2.38v23.18l-1.02-1.02V6.2zm2.32 9.35l2.83-9.35-.99-1.39h2.39L15.2 15.55l3.51 12.44-1.19-1.16-3.41-11.28zm-4.02-2.12L7.7 4.46H4.46L7.7 15.55 4.08 28.33h3.18l2.83-10.43v10.43h3.06V17.9l2.84 10.43h3.17l-3.62-12.78 3.24-11.09h-3.24l-2.39 8.97V4.46h-3.06v8.97zm-3.86 13.4L9.4 15.55 6.81 6.2 4.9 4.81h2.49l2.93 10.74-3.37 12.44-.72-1.16zm20.29 1.5l3.75-12.89v12.89h3.07V4.46h-3.07l-3.61 12.55V4.46h-3.07v23.87h2.93zm5.46-1.36V6.17l-1.37-1.36H33v23.18l-1.02-1.02zm-6.69-.27V6.17l-1.36-1.36h2.39V18.1l-1.03 8.6zm1.06 1.05l-.78-.78 5.69-19.88-.85 6.72-4.06 13.94zm12.69-6.47v5.04a2 2 0 002.04 2.01h4.64c1.12 0 2.05-.92 2.05-2.01v-8.45c0-.86-.52-1.81-1.44-2.02.92-.2 1.44-.81 1.44-1.67V6.51c0-1.09-.89-2.05-2.05-2.05h-4.64c-1.16 0-2.04.86-2.04 2.02v5.15h3.07v-4.1h2.59v6.96h-3.11v3.07h3.11v7.71h-2.59v-3.99h-3.07zm2.52-15.45c-.48 0-.78.1-.92.24l-.79-.68c.38-.38.82-.58 1.37-.58h4.4c1.16 0 1.8.85 1.8 1.8v7.47c0 .99-.68 1.36-1.36 1.54l-.51-.41s.85-.48.85-1.4V6.89c0-.58-.48-1.06-1.06-1.06h-3.78zm4.84 12.04c0-.99-.58-1.68-1.7-1.74h1.43c.65.1 1.29.75 1.29 1.74v8.35c0 .58-.23.99-.51 1.26l-.78-.78c.2-.28.27-.55.27-.82v-8.01zm-7.02 3.75h2.38v3.99h3.28l.75.75c-.17.17-.31.27-.55.27h-3.48c-.54 0-1.02-.51-1.02-1.02v-2.63l-1.36-1.36zm1.36-11.36V7.29c0-.44.07-.64.27-.85l.75.75v4.09l-1.02-1.02zm1.13 4.57h3.24l.34.27c-.38.52-1.3.75-1.84.75h-.72l-1.02-1.02zm11.56 13.5h3.07v-9.78h2.59v9.78h3.07V4.46h-3.07v11.02H56.5V4.46h-3.07v23.87zm1.7-22.16l-1.36-1.36h2.38v11.01h3.28l1.02 1.02h-5.32V6.17zm5.66 0l-1.36-1.36h2.38v23.18l-1.02-1.02V6.17zm-5.66 11.01l1.02 1.03v9.78l-1.02-1.02v-9.79zM67.82 4.46v23.87h6.68c1.12 0 2.05-.92 2.05-2.01v-9.78c0-1.1-.89-2.05-2.05-2.05h-3.62V4.46h-3.06zm2.72 10.37h3.86c1.16 0 1.8.85 1.8 1.81v9.58c0 .58-.23.99-.51 1.26l-.78-.78c.2-.28.27-.55.27-.82v-8.97c0-.58-.48-1.06-1.06-1.06h-4.6V6.07l-1.36-1.26h2.38v10.02zm.34 2.73h2.6v7.71h-2.6v-7.71zm-1.36-.99l1.02.99v8.05h3.28l.75.75c-.17.17-.31.27-.55.27h-4.5V16.57zM85.38 4.46v23.87h3.07V17.9l2.83 10.43h3.17l-3.62-12.78 3.24-11.09h-3.24l-2.38 8.97V4.46h-3.07zm1.7 1.74l-1.36-1.39h2.39v23.18l-1.03-1.02V6.2zm2.32 9.35l2.83-9.35-.99-1.39h2.39l-3.14 10.74L94 27.99l-1.19-1.16-3.41-11.28zm9.51 10.77c0 1.09.96 2.01 2.05 2.01h4.64c1.12 0 2.04-.92 2.04-2.01V6.51c0-1.09-.88-2.05-2.04-2.05h-4.64a2.1 2.1 0 00-2.05 2.05v19.81zm5.67-1.05h-2.6V7.53h2.6v17.74zm-3.96-18.18c0-.44.14-.65.2-.72l.82.82v18.42h3.28l.75.75c-.17.17-.31.27-.55.27h-3.48c-.54 0-1.02-.48-1.02-1.02V7.09zm5.66-.2c0-.58-.48-1.06-1.06-1.06h-3.78c-.48 0-.79.1-.92.24l-.79-.68c.38-.38.82-.58 1.37-.58h4.4c1.05 0 1.8.78 1.8 1.8v19.61c0 .58-.24.99-.51 1.26l-.78-.78c.2-.28.27-.55.27-.82V6.89zm7.71-.38v18.76h-1.37v3.06h2.39c1.12 0 2.05-.92 2.05-2.01V7.53h2.59v20.8h3.07V4.46h-6.69a2.1 2.1 0 00-2.04 2.05zm8.38-1.7v23.18l-1.02-1.02V6.17l-.34-.34h-4.5c-.48 0-.78.1-.92.24l-.79-.68c.38-.38.82-.58 1.37-.58h6.2zm-6.68 2.28c0-.44.14-.65.21-.72l.81.82v19.03c0 .58-.23.99-.51 1.26l-.78-.78c.2-.28.27-.55.27-.82V7.09zm-1.16 19.54h-.54l-1.03-1.02h1.37l.75.75c-.17.17-.31.27-.55.27zm13.85-20.12v18.76h-1.37v3.06h2.39c1.12 0 2.05-.92 2.05-2.01V7.53h2.59v20.8h3.07V4.46h-6.69a2.1 2.1 0 00-2.04 2.05zm8.38-1.7v23.18l-1.02-1.02V6.17l-.34-.34h-4.5c-.48 0-.78.1-.92.24l-.79-.68c.38-.38.82-.58 1.37-.58h6.2zm-6.68 2.28c0-.44.14-.65.21-.72l.81.82v19.03c0 .58-.23.99-.51 1.26l-.78-.78c.2-.28.27-.55.27-.82V7.09zm-1.16 19.54h-.54l-1.03-1.02h1.37l.75.75c-.17.17-.31.27-.55.27zM150 25.27h-4.85v-8.09h3.24v-3.07h-3.24V7.53h4.61V4.46h-7.68v23.87H150v-3.06zm-6.21-9.08l1.02.99v8.43h4.84v2.38l-1.36-1.36h-4.5V16.19zm0-9.99l1.02.99v7.27h3.24v2.38l-1.4-1.36h-2.86V6.2zm-1.36-1.39h6.99v2.38l-1.4-1.36h-4.47l-1.12-1.02zm12.88-.35v23.87h3.07V17.9l2.83 10.43h3.18l-3.62-12.78 3.24-11.09h-3.24l-2.39 8.97V4.46h-3.07zm1.71 1.74l-1.36-1.39h2.38v23.18l-1.02-1.02V6.2zm2.32 9.35l2.83-9.35-.99-1.39h2.39l-3.14 10.74 3.51 12.44-1.19-1.16-3.41-11.28zm11.22 12.78h3.07V7.53h2.72V4.46h-8.52v3.07h2.73v20.8zm1.7-22.16l1.02 1.02v20.8l-1.02-1.02V6.17zm-4.09-1.36h7.84v2.38l-1.36-1.36h-5.46l-1.02-1.02zm15.72 23.52l3.75-12.89v12.89h3.07V4.46h-3.07l-3.61 12.55V4.46h-3.07v23.87h2.93zm5.46-1.36V6.17l-1.37-1.36h2.39v23.18l-1.02-1.02zm-6.69-.27V6.17l-1.36-1.36h2.39V18.1l-1.03 8.6zm1.06 1.05l-.79-.78 5.7-19.88-.85 6.72-4.06 13.94zm12.68.58h6.69c1.12 0 2.04-.92 2.04-2.01v-8.45c0-.86-.51-1.81-1.43-2.02.62-.17 1.06-.81 1.06-1.67V6.51c0-1.09-.89-2.05-2.05-2.05h-6.31v23.87zm3.07-3.06v-7.71h2.59v7.71h-2.59zm-2.72-20.46h5.86c1.16 0 1.81.85 1.81 1.8v7.47c0 .72-.38 1.36-1.06 1.54l-.51-.35s.54-.54.54-1.46V6.89c0-.58-.47-1.06-1.05-1.06h-4.57l-1.02-1.02zm2.72 2.72h2.22v6.96h-2.22V7.53zm-1.36 9.04l1.02.99v8.05h3.28l.75.75c-.17.17-.31.27-.55.27h-4.5V16.57zm0-10.37l1.02.99v7.64h2.56c.24 0 .41-.07.41-.07l.51.34c-.37.52-1.09.75-1.64.75h-2.86V6.2zm5.66 11.67c0-.99-.58-1.68-1.71-1.74h1.44c.64.1 1.29.75 1.29 1.74v8.35c0 .58-.24.99-.51 1.26l-.78-.78c.2-.28.27-.55.27-.82v-8.01zm13.5 10.46h3l-2.45-23.87h-5.46l-2.52 23.87h3.07l.48-4.67h3.41l.47 4.67zm-4.63-23.52h4.84l2.42 23.18-1.19-1.19-2.19-20.97h-2.96l-.92-1.02zm1.22 1.36l.92 1.02-1.43 13.74h3.51l1.06 1.03h-5.69l1.63-15.79zm1.23 1.36l1.36 13.06h-2.72l1.36-13.06zm-2.52 20.46l-.89-.88.48-4.68.88.89-.47 4.67z" fill="url(#c)" fill-rule="nonzero"/></svg>