<?xml version="1.0" encoding="UTF-8"?>
<!DOCTYPE svg PUBLIC "-//W3C//DTD SVG 1.1//EN" "http://www.w3.org/Graphics/SVG/1.1/DTD/svg11.dtd">
<!-- Creator: CorelDRAW 2020 (64-Bit) -->
<svg xmlns="http://www.w3.org/2000/svg" xml:space="preserve" width="383px" height="223px" version="1.1" style="shape-rendering:geometricPrecision; text-rendering:geometricPrecision; image-rendering:optimizeQuality; fill-rule:evenodd; clip-rule:evenodd"
viewBox="0 0 23.79 13.85"
 xmlns:xlink="http://www.w3.org/1999/xlink"
 xmlns:xodm="http://www.corel.com/coreldraw/odm/2003">
 <defs>
  <style type="text/css">
   <![CDATA[
    .fil2 {fill:#FEFEFE}
    .fil1 {fill:#EF7F1A}
    .fil0 {fill:#0F56A1}
   ]]>
  </style>
 </defs>
 <g id="Слой_x0020_1">
  <metadata id="CorelCorpID_0Corel-Layer"/>
  <g id="_2257801758544">
   <path class="fil0" d="M11.3 13.55c0.01,-0.01 0.01,-0.01 0.04,-0.02l0.59 -0.08c0.21,-0.02 0.39,-0.05 0.59,-0.09 0.2,-0.04 0.4,-0.08 0.59,-0.12 0.56,-0.11 1.31,-0.4 1.74,-0.71 0.08,-0.05 0.14,-0.08 0.22,-0.13l0.48 -0.39c0.03,-0.03 0.06,-0.06 0.09,-0.09 0.21,-0.18 0.34,-0.33 0.52,-0.52 0.11,-0.11 0.21,-0.26 0.31,-0.39 0.4,-0.48 0.78,-1.18 1.05,-1.75l0.21 -0.48c0.07,0.01 0.97,0.48 1.1,0.55l1.1 0.57 2.09 -0.77c-0.1,0.4 -0.55,1.15 -0.81,1.45 -0.03,0.03 -0.03,0.03 -0.06,0.06 -0.1,0.13 -0.2,0.22 -0.28,0.3 -0.16,0.17 -0.26,0.25 -0.43,0.39 -2.24,1.9 -6.17,2.34 -9.14,2.22zm-7.75 -7.71c-0.29,0.13 -1.38,0.78 -1.78,0.98 -0.29,0.15 -0.59,0.33 -0.89,0.49 -0.15,0.08 -0.3,0.16 -0.45,0.24 -0.09,0.05 -0.38,0.2 -0.43,0.26l1.16 0.1c0.26,1.22 0.61,2.03 1.23,2.83 0.08,0.1 0.16,0.19 0.23,0.28 0.04,0.04 0.09,0.08 0.13,0.13 0.36,0.39 0.79,0.71 1.26,1.01 0.64,0.41 1.35,0.69 2.1,0.93 2.47,0.79 6.65,0.94 9.17,0.55 1.29,-0.2 2.03,-0.4 3.2,-0.85 0.24,-0.09 0.48,-0.21 0.7,-0.32 1.07,-0.52 2.09,-1.33 2.7,-2.36 0.22,-0.37 0.48,-0.94 0.57,-1.44 -0.09,0.02 -0.25,0.08 -0.34,0.12 -0.11,0.04 -0.21,0.08 -0.32,0.12l-1.27 0.47c-0.11,0.04 -0.53,0.24 -0.63,0.18l-2.3 -1.18c-0.06,0.09 -0.14,0.33 -0.19,0.45 -0.17,0.4 -0.41,0.9 -0.63,1.26 -0.34,0.55 -0.43,0.64 -0.79,1.1 -0.1,0.12 -0.44,0.46 -0.56,0.57l-0.26 0.21c-0.05,0.05 -0.11,0.09 -0.18,0.14 -1.74,1.25 -3.69,1.23 -5.54,0.18 -0.67,-0.38 -1.38,-1.01 -1.86,-1.61 -0.42,-0.52 -0.79,-1.08 -1.08,-1.71 -0.07,-0.15 -0.15,-0.31 -0.21,-0.48 -0.06,-0.13 -0.16,-0.36 -0.19,-0.51l1.4 -0.07c-0.02,-0.02 0.01,0 -0.04,-0.03l-0.2 -0.11c-0.09,-0.04 -0.17,-0.09 -0.25,-0.13 -0.29,-0.16 -3.36,-1.77 -3.46,-1.8z"/>
   <path class="fil1" d="M1.76 4.73c0.05,-0.2 0.2,-0.52 0.29,-0.68 0.09,-0.16 0.44,-0.7 0.59,-0.85l0.6 -0.6c0.85,-0.67 1.51,-1.06 2.6,-1.44 1.53,-0.54 3.2,-0.81 4.87,-0.86 0.36,-0.01 1.55,-0.03 1.86,0.01 -0.13,0 -1.07,0.14 -1.23,0.17 -0.98,0.19 -1.21,0.2 -2.15,0.68 -0.15,0.08 -0.28,0.18 -0.43,0.27 -0.09,0.06 -0.13,0.1 -0.21,0.15 -0.17,0.13 -0.32,0.26 -0.48,0.41 -0.18,0.19 -0.2,0.17 -0.43,0.45 -0.03,0.03 -0.06,0.05 -0.09,0.09l-0.39 0.49c-0.19,0.27 -0.51,0.8 -0.66,1.09l-0.45 0.97c-0.09,-0.03 -1.92,-0.98 -2.05,-1.05 -0.15,-0.08 -0.1,-0.09 -0.26,-0.03 -0.1,0.03 -0.2,0.07 -0.29,0.1 -0.19,0.07 -0.37,0.14 -0.56,0.21l-0.84 0.32c-0.1,0.03 -0.19,0.07 -0.29,0.1zm10.28 -4.73l-1.12 0c-0.06,0.03 -0.73,0.04 -0.87,0.05 -0.84,0.05 -1.62,0.16 -2.44,0.32 -1.43,0.29 -3.09,0.88 -4.24,1.76 -0.26,0.21 -0.29,0.24 -0.5,0.43 -0.39,0.33 -0.76,0.84 -1.03,1.29 -0.22,0.37 -0.4,0.86 -0.5,1.33 0.07,-0.01 1.74,-0.64 1.9,-0.7 0.1,-0.04 0.56,-0.24 0.63,-0.2l2.33 1.19c0.14,-0.47 0.62,-1.38 0.86,-1.78 0.12,-0.2 0.4,-0.62 0.54,-0.78 0.34,-0.4 0.37,-0.44 0.73,-0.78 0.03,-0.03 0.06,-0.05 0.09,-0.08 0.97,-0.89 2.36,-1.37 3.7,-1.24 1.44,0.15 2.8,0.96 3.7,1.94l0.46 0.53c0.41,0.48 0.73,1.07 1.02,1.64 0.07,0.13 0.37,0.83 0.38,0.95l-1.41 0.07c0.05,0.04 0.39,0.21 0.48,0.26l2.97 1.55c0.15,0.08 0.36,0.2 0.5,0.26l3.57 -1.96 -1.17 -0.11c-0.14,-0.91 -0.65,-2.17 -1.26,-2.87l-0.24 -0.27c-0.08,-0.1 -0.17,-0.16 -0.25,-0.26 -0.04,-0.05 -0.08,-0.08 -0.13,-0.12 -0.05,-0.04 -0.09,-0.08 -0.14,-0.12 -0.54,-0.43 -0.8,-0.66 -1.58,-1.02 -1.51,-0.71 -3.29,-1.04 -5,-1.18 -0.33,-0.02 -0.65,-0.04 -0.98,-0.06 -0.17,-0.01 -0.91,-0.01 -1,-0.04z"/>
   <path class="fil2" d="M1.76 4.73c0.1,-0.03 0.19,-0.07 0.29,-0.1l0.84 -0.32c0.19,-0.07 0.37,-0.14 0.56,-0.21 0.09,-0.03 0.19,-0.07 0.29,-0.1 0.16,-0.06 0.11,-0.05 0.26,0.03 0.13,0.07 1.96,1.02 2.05,1.05l0.45 -0.97c0.15,-0.29 0.47,-0.82 0.66,-1.09l0.39 -0.49c0.03,-0.04 0.06,-0.06 0.09,-0.09 0.23,-0.28 0.25,-0.26 0.43,-0.45 0.16,-0.15 0.31,-0.28 0.48,-0.41 0.08,-0.05 0.12,-0.09 0.21,-0.15 0.15,-0.09 0.28,-0.19 0.43,-0.27 0.94,-0.48 1.17,-0.49 2.15,-0.68 0.16,-0.03 1.1,-0.17 1.23,-0.17 -0.31,-0.04 -1.5,-0.02 -1.86,-0.01 -1.67,0.05 -3.34,0.32 -4.87,0.86 -1.09,0.38 -1.75,0.77 -2.6,1.44l-0.6 0.6c-0.15,0.15 -0.5,0.69 -0.59,0.85 -0.09,0.16 -0.24,0.48 -0.29,0.68z"/>
   <path class="fil2" d="M11.3 13.55c2.97,0.12 6.9,-0.32 9.14,-2.22 0.17,-0.14 0.27,-0.22 0.43,-0.39 0.08,-0.08 0.18,-0.17 0.28,-0.3 0.03,-0.03 0.03,-0.03 0.06,-0.06 0.26,-0.3 0.71,-1.05 0.81,-1.45l-2.09 0.77 -1.1 -0.57c-0.13,-0.07 -1.03,-0.54 -1.1,-0.55l-0.21 0.48c-0.27,0.57 -0.65,1.27 -1.05,1.75 -0.1,0.13 -0.2,0.28 -0.31,0.39 -0.18,0.19 -0.31,0.34 -0.52,0.52 -0.03,0.03 -0.06,0.06 -0.09,0.09l-0.48 0.39c-0.08,0.05 -0.14,0.08 -0.22,0.13 -0.43,0.31 -1.18,0.6 -1.74,0.71 -0.19,0.04 -0.39,0.08 -0.59,0.12 -0.2,0.04 -0.38,0.07 -0.59,0.09l-0.59 0.08c-0.03,0.01 -0.03,0.01 -0.04,0.02z"/>
   <path class="fil0" d="M10.12 6.84l0.65 -0.01 0.12 -0.62c0.63,0 1.35,0 1.97,-0.01 0.12,0 0.18,0.03 0.2,0.13 0.02,0.08 0.01,0.23 -0.02,0.3 -0.12,0.02 -0.54,0 -0.59,0.01 -0.06,0.01 -0.06,0.14 -0.06,0.2l1.29 0c0.06,-0.33 0.17,-0.72 -0.04,-0.98 -0.17,-0.23 -0.59,-0.23 -0.95,-0.23 -0.78,0 -1.57,0.01 -2.36,0l-0.21 1.21z"/>
   <path class="fil1" d="M13.68 6.84l-1.29 0 -0.05 0.24 0.62 0.01c-0.04,0.29 -0.09,0.46 -0.37,0.49 -0.1,0.02 -0.33,0.02 -0.41,-0.02 -0.11,-0.06 -0.07,-0.22 -0.06,-0.35l-0.67 0c-0.02,0.23 -0.16,0.64 0.21,0.82 0.26,0.13 0.72,0.11 1.03,0.09 0.81,-0.06 0.85,-0.56 0.99,-1.28z"/>
   <path class="fil1" d="M14.5 6.84l-0.68 0c-0.19,0.92 -0.22,1.35 0.75,1.38 0.56,0.01 1.03,0 1.26,-0.5 0.04,-0.09 0.12,-0.36 0.11,-0.47l-0.67 0c-0.05,0.16 -0.06,0.28 -0.18,0.35 -0.11,0.05 -0.35,0.05 -0.48,0.02 -0.32,-0.06 -0.14,-0.42 -0.11,-0.78z"/>
   <path class="fil1" d="M8.46 6.84l-0.68 0c-0.05,0.27 -0.16,0.76 -0.06,1.02 0.11,0.3 0.43,0.35 0.81,0.36 0.57,0.01 1.03,0 1.26,-0.5 0.05,-0.12 0.11,-0.33 0.11,-0.46l-0.67 -0.01c-0.05,0.16 -0.06,0.28 -0.18,0.35 -0.11,0.05 -0.36,0.05 -0.48,0.02 -0.3,-0.06 -0.17,-0.42 -0.11,-0.78z"/>
   <path class="fil0" d="M13.82 6.84l0.68 0c0.09,-0.26 0.02,-0.53 0.32,-0.61 0.12,-0.02 0.33,-0.02 0.44,0.01 0.16,0.05 0.14,0.14 0.12,0.31l0.69 0c0.06,-0.39 0.07,-0.64 -0.22,-0.8 -0.25,-0.14 -0.69,-0.13 -0.99,-0.1 -0.74,0.07 -0.96,0.46 -1.04,1.19z"/>
   <path class="fil0" d="M7.78 6.84l0.68 0c0.06,-0.27 0.06,-0.55 0.32,-0.61 0.12,-0.02 0.32,-0.03 0.44,0.01 0.16,0.05 0.15,0.14 0.12,0.31l0.69 0c0.06,-0.39 0.07,-0.64 -0.22,-0.81 -0.23,-0.12 -0.71,-0.12 -1,-0.09 -0.75,0.07 -0.93,0.46 -1.03,1.19z"/>
   <path class="fil1" d="M10.77 6.83l-0.65 0.01c-0.05,0.18 -0.08,0.43 -0.11,0.62 -0.03,0.14 -0.12,0.52 -0.11,0.64l0.65 0 0.22 -1.27z"/>
  </g>
 </g>
</svg>
