<svg xmlns="http://www.w3.org/2000/svg" width="78" height="10" viewBox="0 0 0.31 0.04" shape-rendering="geometricPrecision" text-rendering="geometricPrecision" image-rendering="optimizeQuality" fill-rule="evenodd" clip-rule="evenodd"><defs><linearGradient id="id3" gradientUnits="userSpaceOnUse" x1=".13" y1="-.03" x2=".13" y2=".14"><stop offset="0" stop-color="#252b3a"/><stop offset=".078" stop-color="#455974"/><stop offset=".149" stop-color="#495b74"/><stop offset=".271" stop-color="#6a7ea0"/><stop offset="1" stop-color="#455579"/></linearGradient><clipPath id="id0"><path d="M.16.03h.1C.26.04.25.04.24.04H.07C.06.04.05.04.05.03h.11z"/></clipPath><style>.fil2{fill:#fefefe}.fil3{fill:#fdfefe}.fil4{fill:#fefefe}.fil5{fill:#fdfefe}.fil6{fill:#fcfdfe}.fil7{fill:#fcfdfd}.fil8{fill:#fbfdfd}.fil9{fill:#fbfcfc}.fil10{fill:#fafcfc}.fil12{fill:#f9fcfc}.fil13{fill:#f9fbfc}.fil15{fill:#f8fbfb}.fil16{fill:#f7fafb}.fil17{fill:#f6fafb}.fil19{fill:#f5f9fa}.fil22{fill:#f4f8f9}.fil24{fill:#f3f7f9}.fil27{fill:#f1f6f8}.fil28{fill:#f1f6f7}.fil31{fill:#eff4f7}.fil35{fill:#ecf3f6}.fil43{fill:#e7eff4}.fil45{fill:#e6eef3}.fil52{fill:#e1eaf1}.fil157{fill:#1d4772}.fil158{fill:#1c4671}.fil1{fill:#1e4671}</style><mask id="id1"><linearGradient id="id2" gradientUnits="userSpaceOnUse" x1=".09" y1="-.01" x2=".09" y2=".05"><stop offset="0" stop-color="#fff"/><stop offset="1" stop-opacity="0" stop-color="#fff"/></linearGradient><path fill="url(#id2)" d="M0 0h.31v.02H0z"/></mask></defs><g id="Слой_x0020_1"><g id="_2767456737584"><rect width=".31" height=".04" rx=".02" ry=".01" fill="url(#id3)"/><g clip-path="url(#id0)"><path class="fil1" d="M.26.03v.01H.05V.03z"/><path id="1" class="fil2" d="M.16.03V.02L.15.03h.01z"/><path id="2" class="fil2" d="M.16.03zm0 0V.02C.15.02.15.02.15.03h.01z"/><path id="3" class="fil2" d="M.16.03H.15s0-.01.01-.01v.01zm0 0V.02C.15.02.15.02.15.03h.01z"/><path id="4" class="fil2" d="M.16.03H.15c0-.01 0-.01.01-.01v.01zm0 0V.02C.15.02.15.02.15.03h.01z"/><path id="5" class="fil2" d="M.16.03H.15c0-.01 0-.01.01-.01v.01zm0 0V.02C.15.02.15.02.15.03h.01z"/><path id="6" class="fil2" d="M.16.03H.15c0-.01 0-.01.01-.01v.01zm0 0V.02C.15.02.15.02.15.03h.01z"/><path id="7" class="fil2" d="M.16.03H.15c0-.01 0-.01.01-.01v.01zm0 0V.02C.15.02.15.02.15.03h.01z"/><path id="8" class="fil2" d="M.16.03H.15c0-.01 0-.01.01-.01v.01zm0 0V.02C.15.02.15.02.15.03h.01z"/><path id="9" class="fil2" d="M.16.03H.15c0-.01 0-.01.01-.01v.01zm0 0V.02C.15.02.15.02.15.03h.01z"/><path id="10" class="fil2" d="M.16.03H.15c0-.01 0-.01.01-.01v.01zm0 0V.02C.15.02.15.02.15.03h.01z"/><path id="11" class="fil2" d="M.16.03H.15c0-.01 0-.01.01-.01v.01zm0 0V.02C.15.02.15.02.15.03h.01z"/><path id="12" class="fil2" d="M.16.03H.15c0-.01 0-.01.01-.01v.01zm0 0V.02C.15.02.15.02.15.03h.01z"/><path id="13" class="fil2" d="M.16.03H.15c0-.01 0-.01.01-.01v.01zm0 0V.02C.15.02.15.02.15.03h.01z"/><path id="14" class="fil2" d="M.16.03H.15c0-.01 0-.01.01-.01v.01zm0 0V.02C.15.02.15.02.15.03h.01z"/><path id="15" class="fil2" d="M.16.03H.15c0-.01 0-.01.01-.01v.01zm0 0V.02C.15.02.15.02.15.03h.01z"/><path id="16" class="fil2" d="M.16.03H.15c0-.01 0-.01.01-.01v.01zm0 0V.02C.15.02.15.02.15.03h.01z"/><path id="17" class="fil2" d="M.16.03H.15c0-.01 0-.01.01-.01v.01zm0 0V.02C.15.02.15.02.15.03h.01z"/><path id="18" class="fil2" d="M.16.03H.15c0-.01 0-.01.01-.01v.01zm0 0V.02C.15.02.15.02.15.03h.01z"/><path id="19" class="fil2" d="M.16.03H.15c0-.01 0-.01.01-.01v.01zm0 0V.02C.15.02.15.02.15.03h.01z"/><path id="20" class="fil2" d="M.16.03H.15c0-.01 0-.01.01-.01v.01zm0 0V.02C.15.02.15.02.15.03h.01z"/><path id="21" class="fil2" d="M.16.03H.15c0-.01 0-.01.01-.01v.01zm0 0V.02C.15.02.15.02.15.03h.01z"/><path id="22" class="fil2" d="M.16.03H.15c0-.01 0-.01.01-.01v.01zm0 0V.02C.15.02.15.02.15.03h.01z"/><path id="23" class="fil2" d="M.16.03H.15c0-.01 0-.01.01-.01v.01zm0 0V.02C.15.02.15.02.15.03h.01z"/><path id="24" class="fil2" d="M.16.03H.15c0-.01 0-.01.01-.01v.01zm0 0h.01C.17.02.16.02.16.02.15.02.15.02.15.03h.01z"/><path id="25" class="fil2" d="M.16.03H.15c0-.01 0-.01.01-.01v.01zm0 0h.01C.17.02.16.02.16.02.15.02.15.02.15.03h.01z"/><path id="26" class="fil2" d="M.16.03H.15c0-.01 0-.01.01-.01 0 0 .01 0 .01.01H.16zm0 0h.01C.17.02.16.02.16.02.15.02.14.02.14.03h.02z"/><path id="27" class="fil2" d="M.16.03H.15c0-.01 0-.01.01-.01 0 0 .01 0 .01.01H.16zm0 0h.01C.17.02.16.02.16.02.15.02.14.02.14.03h.02z"/><path id="28" class="fil2" d="M.16.03H.14C.14.02.15.02.16.02c0 0 .01 0 .01.01H.16zm0 0h.01C.17.02.16.02.16.02.15.02.14.02.14.03h.02z"/><path id="29" class="fil2" d="M.16.03H.14C.14.02.15.02.16.02c0 0 .01 0 .01.01H.16zm0 0h.01C.17.02.16.02.16.02.15.02.14.02.14.03h.02z"/><path id="30" class="fil2" d="M.16.03H.14C.14.02.15.02.16.02c0 0 .01 0 .01.01H.16zm0 0h.01C.17.02.16.02.16.02.15.02.14.02.14.03h.02z"/><path id="31" class="fil2" d="M.16.03H.14C.14.02.15.02.16.02c0 0 .01 0 .01.01H.16zm0 0h.01C.17.02.16.02.16.02.15.02.14.02.14.03h.02z"/><path id="32" class="fil2" d="M.16.03H.14C.14.02.15.02.16.02c0 0 .01 0 .01.01H.16zm0 0h.01C.17.02.16.02.16.02.15.02.14.02.14.03h.02z"/><path id="33" class="fil2" d="M.16.03H.14C.14.02.15.02.16.02c0 0 .01 0 .01.01H.16zm0 0h.01C.17.02.16.02.16.02.15.02.14.02.14.03h.02z"/><path id="34" class="fil2" d="M.16.03H.14C.14.02.15.02.16.02c0 0 .01 0 .01.01H.16zm0 0h.01C.17.02.16.02.16.02.15.02.14.02.14.03h.02z"/><path id="35" class="fil2" d="M.16.03H.14C.14.02.15.02.16.02c0 0 .01 0 .01.01H.16zm0 0h.01C.17.02.16.02.16.02.15.02.14.02.14.03h.02z"/><path id="36" class="fil2" d="M.16.03H.14C.14.02.15.02.16.02c0 0 .01 0 .01.01H.16zm0 0h.01C.17.02.16.02.16.02.15.02.14.02.14.03h.02z"/><path id="37" class="fil2" d="M.16.03H.14C.14.02.15.02.16.02c0 0 .01 0 .01.01H.16zm0 0h.01C.17.02.16.02.16.02.15.02.14.02.14.03h.02z"/><path id="38" class="fil2" d="M.16.03H.14C.14.02.15.02.16.02c0 0 .01 0 .01.01H.16zm0 0h.01C.17.02.16.02.16.02.15.02.14.02.14.03h.02z"/><path id="39" class="fil2" d="M.16.03H.14C.14.02.15.02.16.02c0 0 .01 0 .01.01H.16zm0 0h.01C.17.02.16.02.16.02.15.02.14.02.14.03h.02z"/><path id="40" class="fil2" d="M.16.03H.14C.14.02.15.02.16.02c0 0 .01 0 .01.01H.16zm0 0h.01C.17.02.16.02.16.02.15.02.14.02.14.03h.02z"/><path id="41" class="fil2" d="M.16.03H.14C.14.02.15.02.16.02c0 0 .01 0 .01.01H.16zm0 0h.01C.17.02.16.02.16.02.15.02.14.02.14.03h.02z"/><path id="42" class="fil2" d="M.16.03H.14C.14.02.15.02.16.02c0 0 .01 0 .01.01H.16zm0 0h.01C.17.02.16.02.16.02.15.02.14.02.14.03h.02z"/><path id="43" class="fil2" d="M.16.03H.14C.14.02.15.02.16.02c0 0 .01 0 .01.01H.16zm0 0h.01C.17.02.16.02.16.02.15.02.14.02.14.03h.02z"/><path id="44" class="fil2" d="M.16.03H.14C.14.02.15.02.16.02c0 0 .01 0 .01.01H.16zm0 0h.01C.17.02.17.02.16.02S.14.02.14.03h.02z"/><path id="45" class="fil2" d="M.16.03H.14C.14.02.15.02.16.02s.01 0 .01.01H.16zm0 0h.01C.17.02.17.02.16.02S.14.02.14.03h.02z"/><path id="46" class="fil2" d="M.16.03H.14C.14.02.15.02.16.02s.01 0 .01.01H.16zm0 0h.01C.17.02.17.02.16.02S.14.02.14.03h.02z"/><path id="47" class="fil2" d="M.16.03H.14C.14.02.15.02.16.02s.01 0 .01.01H.16zm0 0h.01C.17.02.17.02.16.02S.14.02.14.03h.02z"/><path id="48" class="fil2" d="M.16.03H.14C.14.02.15.02.16.02s.01 0 .01.01H.16zm0 .01C.17.04.17.03.17.03.17.02.17.02.16.02.14.02.14.02.14.03c0 0 0 .01.02.01z"/><path id="49" class="fil2" d="M.16.04C.14.04.14.03.14.03c0-.01 0-.01.02-.01.01 0 .01 0 .01.01 0 0 0 .01-.01.01zm0 0C.17.04.17.03.17.03.17.02.17.02.16.02.14.02.14.02.14.03c0 0 0 .01.02.01z"/><path id="50" class="fil2" d="M.16.04C.14.04.14.03.14.03c0-.01 0-.01.02-.01.01 0 .01 0 .01.01 0 0 0 .01-.01.01zm0 0C.17.04.18.03.18.03.18.02.17.01.16.01.14.01.14.02.14.03c0 0 0 .01.02.01z"/><path id="51" class="fil2" d="M.16.04C.14.04.14.03.14.03c0-.01 0-.01.02-.01.01 0 .02 0 .02.01 0 0-.01.01-.02.01zm0 0C.17.04.18.03.18.03.18.02.17.01.16.01.14.01.14.02.14.03c0 0 0 .01.02.01z"/><path id="52" class="fil2" d="M.16.04C.14.04.14.03.14.03c0-.01 0-.02.02-.02.01 0 .02.01.02.02 0 0-.01.01-.02.01zm0 0C.17.04.18.03.18.03.18.02.17.01.16.01.14.01.13.02.13.03c0 0 .01.01.03.01z"/><path id="53" class="fil2" d="M.16.04C.14.04.13.03.13.03.13.02.14.01.16.01c.01 0 .02.01.02.02 0 0-.01.01-.02.01zm0 0C.17.04.18.03.18.03.18.02.17.01.16.01.14.01.13.02.13.03c0 0 .01.01.03.01z"/><path id="54" class="fil2" d="M.16.04C.14.04.13.03.13.03.13.02.14.01.16.01c.01 0 .02.01.02.02 0 0-.01.01-.02.01zm0 0C.17.04.18.03.18.03.18.02.17.01.16.01.14.01.13.02.13.03c0 0 .01.01.03.01z"/><path id="55" class="fil2" d="M.16.04C.14.04.13.03.13.03.13.02.14.01.16.01c.01 0 .02.01.02.02 0 0-.01.01-.02.01zm0 0C.17.04.18.03.18.03.18.02.17.01.16.01.14.01.13.02.13.03c0 0 .01.01.03.01z"/><path id="56" class="fil2" d="M.16.04C.14.04.13.03.13.03.13.02.14.01.16.01c.01 0 .02.01.02.02 0 0-.01.01-.02.01zm0 0C.17.04.18.03.18.03.18.02.17.01.16.01.14.01.13.02.13.03c0 0 .01.01.03.01z"/><path id="57" class="fil2" d="M.16.04C.14.04.13.03.13.03.13.02.14.01.16.01c.01 0 .02.01.02.02 0 0-.01.01-.02.01zm0 0C.17.04.18.03.18.03.18.02.17.01.16.01.14.01.13.02.13.03c0 0 .01.01.03.01z"/><path id="58" class="fil2" d="M.16.04C.14.04.13.03.13.03.13.02.14.01.16.01c.01 0 .02.01.02.02 0 0-.01.01-.02.01zm0 0C.17.04.18.03.18.03.18.02.17.01.16.01.14.01.13.02.13.03c0 0 .01.01.03.01z"/><path id="59" class="fil2" d="M.16.04C.14.04.13.03.13.03.13.02.14.01.16.01c.01 0 .02.01.02.02 0 0-.01.01-.02.01zm0 0C.17.04.18.03.18.03.18.02.17.01.16.01.14.01.13.02.13.03c0 0 .01.01.03.01z"/><path id="60" class="fil3" d="M.16.04C.14.04.13.03.13.03.13.02.14.01.16.01c.01 0 .02.01.02.02 0 0-.01.01-.02.01zm0 0C.17.04.18.03.18.03.18.02.17.01.16.01.14.01.13.02.13.03c0 0 .01.01.03.01z"/><path id="61" class="fil3" d="M.16.04C.14.04.13.03.13.03.13.02.14.01.16.01c.01 0 .02.01.02.02 0 0-.01.01-.02.01zm0 0C.17.04.18.03.18.03.18.02.17.01.16.01.14.01.13.02.13.03c0 0 .01.01.03.01z"/><path id="62" class="fil3" d="M.16.04C.14.04.13.03.13.03.13.02.14.01.16.01c.01 0 .02.01.02.02 0 0-.01.01-.02.01zm0 0C.17.04.18.03.18.03.18.02.17.01.16.01.14.01.13.02.13.03c0 0 .01.01.03.01z"/><path id="63" class="fil3" d="M.16.04C.14.04.13.03.13.03.13.02.14.01.16.01c.01 0 .02.01.02.02 0 0-.01.01-.02.01zm0 0C.17.04.18.03.18.03.18.02.17.01.16.01.14.01.13.02.13.03c0 0 .01.01.03.01z"/><path id="64" class="fil4" d="M.16.04C.14.04.13.03.13.03.13.02.14.01.16.01c.01 0 .02.01.02.02 0 0-.01.01-.02.01zm0 0C.17.04.18.03.18.03.18.02.17.01.16.01.14.01.13.02.13.03c0 0 .01.01.03.01z"/><path id="65" class="fil4" d="M.16.04C.14.04.13.03.13.03.13.02.14.01.16.01c.01 0 .02.01.02.02 0 0-.01.01-.02.01zm0 0C.17.04.18.03.18.03.18.02.17.01.16.01.14.01.13.02.13.03c0 0 .01.01.03.01z"/><path id="66" class="fil4" d="M.16.04C.14.04.13.03.13.03.13.02.14.01.16.01c.01 0 .02.01.02.02 0 0-.01.01-.02.01zm0 0C.17.04.18.03.18.03.18.02.17.01.16.01.14.01.13.02.13.03c0 0 .01.01.03.01z"/><path id="67" class="fil4" d="M.16.04C.14.04.13.03.13.03.13.02.14.01.16.01c.01 0 .02.01.02.02 0 0-.01.01-.02.01zm0 0C.17.04.18.03.18.03.18.02.17.01.16.01.14.01.13.02.13.03c0 0 .01.01.03.01z"/><path id="68" class="fil4" d="M.16.04C.14.04.13.03.13.03.13.02.14.01.16.01c.01 0 .02.01.02.02 0 0-.01.01-.02.01zm0 0C.17.04.18.03.18.03.18.02.17.01.16.01.14.01.13.02.13.03c0 0 .01.01.03.01z"/><path id="69" class="fil5" d="M.16.04C.14.04.13.03.13.03.13.02.14.01.16.01c.01 0 .02.01.02.02 0 0-.01.01-.02.01zm0 0C.17.04.18.03.18.03.18.02.17.01.16.01.14.01.13.02.13.03c0 0 .01.01.03.01z"/><path id="70" class="fil5" d="M.16.04C.14.04.13.03.13.03.13.02.14.01.16.01c.01 0 .02.01.02.02 0 0-.01.01-.02.01zm0 0C.17.04.18.03.18.03.18.02.17.01.16.01.14.01.13.02.13.03c0 0 .01.01.03.01z"/><path id="71" class="fil5" d="M.16.04C.14.04.13.03.13.03.13.02.14.01.16.01c.01 0 .02.01.02.02 0 0-.01.01-.02.01zm0 0C.17.04.18.03.18.03.18.02.17.01.16.01.14.01.13.02.13.03c0 0 .01.01.03.01z"/><path id="72" class="fil5" d="M.16.04C.14.04.13.03.13.03.13.02.14.01.16.01c.01 0 .02.01.02.02 0 0-.01.01-.02.01zm0 0C.17.04.18.03.18.03.18.02.17.01.16.01.14.01.13.02.13.03c0 0 .01.01.03.01z"/><path id="73" class="fil5" d="M.16.04C.14.04.13.03.13.03.13.02.14.01.16.01c.01 0 .02.01.02.02 0 0-.01.01-.02.01zm0 0C.17.04.18.03.18.03.18.02.17.01.16.01.14.01.13.02.13.03c0 0 .01.01.03.01z"/><path id="74" class="fil5" d="M.16.04C.14.04.13.03.13.03.13.02.14.01.16.01c.01 0 .02.01.02.02 0 0-.01.01-.02.01zm0 0C.17.04.18.03.18.03.18.02.17.01.16.01.14.01.13.02.13.03c0 0 .01.01.03.01z"/><path id="75" class="fil6" d="M.16.04C.14.04.13.03.13.03.13.02.14.01.16.01c.01 0 .02.01.02.02 0 0-.01.01-.02.01zm0 0C.17.04.19.03.19.03.19.02.17.01.16.01.14.01.13.02.13.03c0 0 .01.01.03.01z"/><path id="76" class="fil6" d="M.16.04C.14.04.13.03.13.03.13.02.14.01.16.01c.01 0 .03.01.03.02 0 0-.02.01-.03.01zm0 0C.17.04.19.03.19.03.19.02.17.01.16.01.14.01.13.02.13.03c0 0 .01.01.03.01z"/><path id="77" class="fil7" d="M.16.04C.14.04.13.03.13.03.13.02.14.01.16.01c.01 0 .03.01.03.02 0 0-.02.01-.03.01zm0 0C.17.04.19.03.19.03.19.02.17.01.16.01.14.01.12.02.12.03c0 0 .02.01.04.01z"/><path id="78" class="fil7" d="M.16.04C.14.04.12.03.12.03.12.02.14.01.16.01c.01 0 .03.01.03.02 0 0-.02.01-.03.01zm0 0C.17.04.19.03.19.03.19.02.17.01.16.01.14.01.12.02.12.03c0 0 .02.01.04.01z"/><path id="79" class="fil7" d="M.16.04C.14.04.12.03.12.03.12.02.14.01.16.01c.01 0 .03.01.03.02 0 0-.02.01-.03.01zm0 0C.17.04.19.03.19.03.19.02.17.01.16.01.14.01.12.02.12.03c0 0 .02.01.04.01z"/><path id="80" class="fil8" d="M.16.04C.14.04.12.03.12.03.12.02.14.01.16.01c.01 0 .03.01.03.02 0 0-.02.01-.03.01zm0 0C.17.04.19.03.19.03.19.02.17.01.16.01.14.01.12.02.12.03c0 0 .02.01.04.01z"/><path id="81" class="fil8" d="M.16.04C.14.04.12.03.12.03.12.02.14.01.16.01c.01 0 .03.01.03.02 0 0-.02.01-.03.01zm0 0C.17.04.19.03.19.03.19.02.17.01.16.01.14.01.12.02.12.03c0 0 .02.01.04.01z"/><path id="82" class="fil9" d="M.16.04C.14.04.12.03.12.03.12.02.14.01.16.01c.01 0 .03.01.03.02 0 0-.02.01-.03.01zm0 0C.17.04.19.03.19.03.19.02.17.01.16.01.14.01.12.02.12.03c0 0 .02.01.04.01z"/><path id="83" class="fil9" d="M.16.04C.14.04.12.03.12.03.12.02.14.01.16.01c.01 0 .03.01.03.02 0 0-.02.01-.03.01zm0 0C.17.04.19.03.19.03.19.02.17.01.16.01.14.01.12.02.12.03c0 0 .02.01.04.01z"/><path id="84" class="fil10" d="M.16.04C.14.04.12.03.12.03.12.02.14.01.16.01c.01 0 .03.01.03.02 0 0-.02.01-.03.01zm0 0C.17.04.19.03.19.03.19.02.17.01.16.01.14.01.12.02.12.03c0 0 .02.01.04.01z"/><path id="85" class="fil10" d="M.16.04C.14.04.12.03.12.03.12.02.14.01.16.01c.01 0 .03.01.03.02 0 0-.02.01-.03.01zm0 0C.17.04.19.03.19.03.19.02.17.01.16.01.14.01.12.02.12.03c0 0 .02.01.04.01z"/><path id="86" class="fil10" d="M.16.04C.14.04.12.03.12.03.12.02.14.01.16.01c.01 0 .03.01.03.02 0 0-.02.01-.03.01zm0 0C.17.04.19.03.19.03.19.02.17.01.16.01.14.01.12.02.12.03c0 0 .02.01.04.01z"/><path id="87" d="M.16.04C.14.04.12.03.12.03.12.02.14.01.16.01c.01 0 .03.01.03.02 0 0-.02.01-.03.01zm0 0C.17.04.19.04.19.03S.17.01.16.01C.14.01.12.02.12.03s.02.01.04.01z" fill="#fafcfc"/><path id="88" class="fil12" d="M.16.04C.14.04.12.04.12.03S.14.01.16.01c.01 0 .03.01.03.02S.17.04.16.04zm0 0C.17.04.19.04.19.03S.17.01.16.01C.14.01.12.02.12.03s.02.01.04.01z"/><path id="89" class="fil12" d="M.16.04C.14.04.12.04.12.03S.14.01.16.01c.01 0 .03.01.03.02S.17.04.16.04zm0 0C.17.04.19.04.19.03S.17.01.16.01C.14.01.12.02.12.03s.02.01.04.01z"/><path id="90" class="fil12" d="M.16.04C.14.04.12.04.12.03S.14.01.16.01c.01 0 .03.01.03.02S.17.04.16.04zm0 0C.18.04.19.04.19.03S.18.01.16.01C.14.01.12.02.12.03s.02.01.04.01z"/><path id="91" class="fil13" d="M.16.04C.14.04.12.04.12.03S.14.01.16.01s.03.01.03.02S.18.04.16.04zm0 0C.18.04.19.04.19.03.19.01.18.01.16.01.14.01.12.01.12.03c0 .01.02.01.04.01z"/><path id="92" class="fil13" d="M.16.04C.14.04.12.04.12.03S.14.01.16.01s.03.01.03.02S.18.04.16.04zm0 0C.18.04.19.04.19.03.19.01.18.01.16.01.14.01.12.01.12.03c0 .01.02.01.04.01z"/><path id="93" class="fil13" d="M.16.04C.14.04.12.04.12.03.12.01.14.01.16.01s.03 0 .03.02C.19.04.18.04.16.04zm0 0C.18.04.19.04.19.03.19.01.18.01.16.01.14.01.12.01.12.03c0 .01.02.01.04.01z"/><path id="94" d="M.16.04C.14.04.12.04.12.03.12.01.14.01.16.01s.03 0 .03.02C.19.04.18.04.16.04zm0 0C.18.04.19.04.19.03.19.01.18.01.16.01.13.01.12.01.12.03c0 .01.01.01.04.01z" fill="#f8fbfc"/><path id="95" class="fil15" d="M.16.04C.13.04.12.04.12.03.12.01.13.01.16.01c.02 0 .03 0 .03.02C.19.04.18.04.16.04zm0 0C.18.04.19.04.19.03.19.01.18.01.16.01.13.01.12.01.12.03c0 .01.01.01.04.01z"/><path id="96" class="fil15" d="M.16.04C.13.04.12.04.12.03.12.01.13.01.16.01c.02 0 .03 0 .03.02C.19.04.18.04.16.04zm0 0C.18.04.19.04.19.03.19.01.18.01.16.01.13.01.12.01.12.03c0 .01.01.01.04.01z"/><path id="97" class="fil16" d="M.16.04C.13.04.12.04.12.03.12.01.13.01.16.01c.02 0 .03 0 .03.02C.19.04.18.04.16.04zm0 .01C.18.05.19.04.19.03.19.01.18.01.16.01.13.01.12.01.12.03c0 .01.01.02.04.02z"/><path id="98" class="fil16" d="M.16.04C.13.04.12.04.12.03.12.01.13.01.16.01c.02 0 .03 0 .03.02C.19.04.18.04.16.04zm0 .01C.18.05.19.04.19.03.19.01.18.01.16.01.13.01.12.01.12.03c0 .01.01.02.04.02z"/><path id="99" class="fil16" d="M.16.05C.13.05.12.04.12.03.12.01.13.01.16.01c.02 0 .03 0 .03.02C.19.04.18.05.16.05zm0 0C.18.05.19.04.19.03.19.01.18.01.16.01.13.01.12.01.12.03c0 .01.01.02.04.02z"/><path id="100" class="fil17" d="M.16.05C.13.05.12.04.12.03.12.01.13.01.16.01c.02 0 .03 0 .03.02C.19.04.18.05.16.05zm0 0C.18.05.2.04.2.03.2.01.18 0 .16 0 .13 0 .12.01.12.03c0 .01.01.02.04.02z"/><path id="101" class="fil17" d="M.16.05C.13.05.12.04.12.03.12.01.13 0 .16 0c.02 0 .03.01.03.03C.19.04.18.05.16.05zm0 0C.18.05.2.04.2.03.2.01.18 0 .16 0 .13 0 .12.01.12.03c0 .01.01.02.04.02z"/><path id="102" d="M.16.05C.13.05.12.04.12.03.12.01.13 0 .16 0 .18 0 .2.01.2.03.2.04.18.05.16.05zm0 0C.18.05.2.04.2.03.2.01.18 0 .16 0 .13 0 .11.01.11.03c0 .01.02.02.05.02z" fill="#f6f9fa"/><path id="103" class="fil19" d="M.16.05C.13.05.12.04.12.03.12.01.13 0 .16 0 .18 0 .2.01.2.03.2.04.18.05.16.05zm0 0C.18.05.2.04.2.03.2.01.18 0 .16 0 .13 0 .11.01.11.03c0 .01.02.02.05.02z"/><path id="104" class="fil19" d="M.16.05C.13.05.11.04.11.03.11.01.13 0 .16 0 .18 0 .2.01.2.03.2.04.18.05.16.05zm0 0C.18.05.2.04.2.03.2.01.18 0 .16 0 .13 0 .11.01.11.03c0 .01.02.02.05.02z"/><path id="105" d="M.16.05C.13.05.11.04.11.03.11.01.13 0 .16 0 .18 0 .2.01.2.03.2.04.18.05.16.05zm0 0C.18.05.2.04.2.03.2.01.18 0 .16 0 .13 0 .11.01.11.03c0 .01.02.02.05.02z" fill="#f5f9fa"/><path id="106" d="M.16.05C.13.05.11.04.11.03.11.01.13 0 .16 0 .18 0 .2.01.2.03.2.04.18.05.16.05zm0 0C.18.05.2.04.2.03.2.01.18 0 .16 0 .13 0 .11.01.11.03c0 .01.02.02.05.02z" fill="#f5f8f9"/><path id="107" class="fil22" d="M.16.05C.13.05.11.04.11.03.11.01.13 0 .16 0 .18 0 .2.01.2.03.2.04.18.05.16.05zm0 0C.18.05.2.04.2.03.2.01.18 0 .16 0 .13 0 .11.01.11.03c0 .01.02.02.05.02z"/><path id="108" class="fil22" d="M.16.05C.13.05.11.04.11.03.11.01.13 0 .16 0 .18 0 .2.01.2.03.2.04.18.05.16.05zm0 0C.18.05.2.04.2.03.2.01.18 0 .16 0 .13 0 .11.01.11.03c0 .01.02.02.05.02z"/><path id="109" d="M.16.05C.13.05.11.04.11.03.11.01.13 0 .16 0 .18 0 .2.01.2.03.2.04.18.05.16.05zm0 0C.18.05.2.04.2.03.2.01.18 0 .16 0 .13 0 .11.01.11.03c0 .01.02.02.05.02z" fill="#f4f8f9"/><path id="110" class="fil24" d="M.16.05C.13.05.11.04.11.03.11.01.13 0 .16 0 .18 0 .2.01.2.03.2.04.18.05.16.05zm0 0C.18.05.2.04.2.03.2.01.18 0 .16 0 .13 0 .11.01.11.03c0 .01.02.02.05.02z"/><path id="111" class="fil24" d="M.16.05C.13.05.11.04.11.03.11.01.13 0 .16 0 .18 0 .2.01.2.03.2.04.18.05.16.05zm0 0C.18.05.2.04.2.03.2.01.18 0 .16 0 .13 0 .11.01.11.03c0 .01.02.02.05.02z"/><path id="112" d="M.16.05C.13.05.11.04.11.03.11.01.13 0 .16 0 .18 0 .2.01.2.03.2.04.18.05.16.05zm0 0C.18.05.2.04.2.03.2.01.18 0 .16 0 .13 0 .11.01.11.03c0 .01.02.02.05.02z" fill="#f2f7f9"/><path id="113" d="M.16.05C.13.05.11.04.11.03.11.01.13 0 .16 0 .18 0 .2.01.2.03.2.04.18.05.16.05zm0 0C.18.05.2.04.2.03.2.01.18 0 .16 0 .13 0 .11.01.11.03c0 .01.02.02.05.02z" fill="#f2f6f8"/><path id="114" class="fil27" d="M.16.05C.13.05.11.04.11.03.11.01.13 0 .16 0 .18 0 .2.01.2.03.2.04.18.05.16.05zm0 0C.18.05.2.04.2.03.2.01.18 0 .16 0 .13 0 .11.01.11.03c0 .01.02.02.05.02z"/><path id="115" class="fil27" d="M.16.05C.13.05.11.04.11.03.11.01.13 0 .16 0 .18 0 .2.01.2.03.2.04.18.05.16.05zm0 0C.18.05.2.04.2.03.2.01.18 0 .16 0 .13 0 .11.01.11.03c0 .01.02.02.05.02z"/><path id="116" class="fil28" d="M.16.05C.13.05.11.04.11.03.11.01.13 0 .16 0 .18 0 .2.01.2.03.2.04.18.05.16.05zm0 0C.18.05.2.04.2.03.2.01.18 0 .16 0 .13 0 .11.01.11.03c0 .01.02.02.05.02z"/><path id="117" class="fil28" d="M.16.05C.13.05.11.04.11.03.11.01.13 0 .16 0 .18 0 .2.01.2.03.2.04.18.05.16.05zm0 0C.18.05.2.04.2.03.2.01.18 0 .16 0 .13 0 .11.01.11.03c0 .01.02.02.05.02z"/><path id="118" d="M.16.05C.13.05.11.04.11.03.11.01.13 0 .16 0 .18 0 .2.01.2.03.2.04.18.05.16.05zm0 0C.18.05.2.04.2.03.2.01.18 0 .16 0 .13 0 .11.01.11.03c0 .01.02.02.05.02z" fill="#f0f5f7"/><path id="119" d="M.16.05C.13.05.11.04.11.03.11.01.13 0 .16 0 .18 0 .2.01.2.03.2.04.18.05.16.05zm0 0C.18.05.2.04.2.03.2.01.18 0 .16 0 .13 0 .11.01.11.03c0 .01.02.02.05.02z" fill="#f0f5f7"/><path id="120" class="fil31" d="M.16.05C.13.05.11.04.11.03.11.01.13 0 .16 0 .18 0 .2.01.2.03.2.04.18.05.16.05zm0 0C.18.05.2.04.2.03.2.01.18 0 .16 0 .13 0 .11.01.11.03c0 .01.02.02.05.02z"/><path id="121" class="fil31" d="M.16.05C.13.05.11.04.11.03.11.01.13 0 .16 0 .18 0 .2.01.2.03.2.04.18.05.16.05zm0 0C.18.05.2.04.2.03.2.01.18 0 .16 0 .13 0 .11.01.11.03c0 .01.02.02.05.02z"/><path id="122" d="M.16.05C.13.05.11.04.11.03.11.01.13 0 .16 0 .18 0 .2.01.2.03.2.04.18.05.16.05zm0 0C.18.05.2.04.2.03.2.01.18 0 .16 0 .13 0 .11.01.11.03c0 .01.02.02.05.02z" fill="#eef4f7"/><path id="123" d="M.16.05C.13.05.11.04.11.03.11.01.13 0 .16 0 .18 0 .2.01.2.03.2.04.18.05.16.05zm0 0C.18.05.2.04.2.03.2.01.18 0 .16 0 .13 0 .11.01.11.03c0 .01.02.02.05.02z" fill="#edf4f6"/><path id="124" d="M.16.05C.13.05.11.04.11.03.11.01.13 0 .16 0 .18 0 .2.01.2.03.2.04.18.05.16.05zm0 0C.18.05.2.04.2.03.2.01.18 0 .16 0 .13 0 .11.01.11.03c0 .01.02.02.05.02z" fill="#edf3f6"/><path id="125" class="fil35" d="M.16.05C.13.05.11.04.11.03.11.01.13 0 .16 0 .18 0 .2.01.2.03.2.04.18.05.16.05zm0 0C.18.05.21.04.21.03.21.01.18 0 .16 0 .13 0 .11.01.11.03c0 .01.02.02.05.02z"/><path id="126" class="fil35" d="M.16.05C.13.05.11.04.11.03.11.01.13 0 .16 0 .18 0 .2.01.2.03.2.04.18.05.16.05zm0 0C.18.05.21.04.21.03.21.01.18 0 .16 0 .13 0 .11.01.11.03c0 .01.02.02.05.02z"/><path id="127" d="M.16.05C.13.05.11.04.11.03.11.01.13 0 .16 0c.02 0 .05.01.05.03C.21.04.18.05.16.05zm0 0C.18.05.21.04.21.03.21.01.18 0 .16 0 .13 0 .11.01.11.03c0 .01.02.02.05.02z" fill="#ecf2f6"/><path id="128" d="M.16.05C.13.05.11.04.11.03.11.01.13 0 .16 0c.02 0 .05.01.05.03C.21.04.18.05.16.05zm0 0C.18.05.21.04.21.03.21.01.18 0 .16 0 .13 0 .1.01.1.03c0 .01.03.02.06.02z" fill="#ebf1f5"/><path id="129" d="M.16.05C.13.05.1.04.1.03.1.01.13 0 .16 0c.02 0 .05.01.05.03C.21.04.18.05.16.05zm0 0C.18.05.21.04.21.03.21.01.18 0 .16 0 .13 0 .1.01.1.03c0 .01.03.02.06.02z" fill="#ebf1f5"/><path id="130" d="M.16.05C.13.05.1.04.1.03.1.01.13 0 .16 0c.02 0 .05.01.05.03C.21.04.18.05.16.05zm0 0C.18.05.21.04.21.03.21.01.18 0 .16 0 .13 0 .1.01.1.03c0 .01.03.02.06.02z" fill="#eaf1f5"/><path id="131" d="M.16.05C.13.05.1.04.1.03.1.01.13 0 .16 0c.02 0 .05.01.05.03C.21.04.18.05.16.05zm0 0C.18.05.21.04.21.03.21.01.18 0 .16 0 .13 0 .1.01.1.03c0 .01.03.02.06.02z" fill="#e9f1f5"/><path id="132" d="M.16.05C.13.05.1.04.1.03.1.01.13 0 .16 0c.02 0 .05.01.05.03C.21.04.18.05.16.05zm0 0C.18.05.21.04.21.03.21.01.18 0 .16 0 .13 0 .1.01.1.03c0 .01.03.02.06.02z" fill="#e9f0f4"/><path id="133" d="M.16.05C.13.05.1.04.1.03.1.01.13 0 .16 0c.02 0 .05.01.05.03C.21.04.18.05.16.05zm0 0C.18.05.21.04.21.03.21.01.18 0 .16 0 .13 0 .1.01.1.03c0 .01.03.02.06.02z" fill="#e8f0f4"/><path id="134" class="fil43" d="M.16.05C.13.05.1.04.1.03.1.01.13 0 .16 0c.02 0 .05.01.05.03C.21.04.18.05.16.05zm0 0C.18.05.21.04.21.03.21.01.18 0 .16 0 .13 0 .1.01.1.03c0 .01.03.02.06.02z"/><path id="135" class="fil43" d="M.16.05C.13.05.1.04.1.03.1.01.13 0 .16 0c.02 0 .05.01.05.03C.21.04.18.05.16.05zm0 0C.19.05.21.04.21.03.21.01.18 0 .16 0 .13 0 .1.01.1.03c0 .01.03.02.06.02z"/><path id="136" d="M.16.05C.13.05.1.04.1.03.1.01.13 0 .16 0c.02 0 .05.01.05.03C.21.04.18.05.16.05zm0 0C.19.05.21.04.21.03.21.01.19 0 .16 0 .13 0 .1.01.1.03c0 .01.03.02.06.02z" fill="#e7eef3"/><path id="137" class="fil45" d="M.16.05C.13.05.1.04.1.03.1.01.13 0 .16 0s.05.01.05.03C.21.04.19.05.16.05zm0 0C.19.05.21.04.21.03.21.01.19 0 .16 0 .13 0 .1.01.1.03c0 .01.03.02.06.02z"/><path id="138" class="fil45" d="M.16.05C.13.05.1.04.1.03.1.01.13 0 .16 0s.05.01.05.03C.21.04.19.05.16.05zm0 0C.19.05.21.04.21.03.21.01.19 0 .16 0 .13 0 .1.01.1.03c0 .01.03.02.06.02z"/><path id="139" d="M.16.05C.13.05.1.04.1.03.1.01.13 0 .16 0s.05.01.05.03C.21.04.19.05.16.05zm0 0C.19.05.21.04.21.03.21.01.19 0 .16 0 .12 0 .1.01.1.03c0 .01.02.02.06.02z" fill="#e5edf2"/><path id="140" d="M.16.05C.13.05.1.04.1.03.1.01.13 0 .16 0s.05.01.05.03C.21.04.19.05.16.05zm0 0C.19.05.21.04.21.03.21.01.19 0 .16 0 .12 0 .1.01.1.03c0 .01.02.02.06.02z" fill="#e4edf2"/><path id="141" d="M.16.05C.12.05.1.04.1.03.1.01.12 0 .16 0c.03 0 .05.01.05.03C.21.04.19.05.16.05zm0 0C.19.05.21.04.21.03.21.01.19 0 .16 0 .12 0 .1.01.1.03c0 .01.02.02.06.02z" fill="#e3ecf2"/><path id="142" d="M.16.05C.12.05.1.04.1.03.1.01.12 0 .16 0c.03 0 .05.01.05.03C.21.04.19.05.16.05zm0 0C.19.05.21.04.21.03.21.01.19 0 .16 0 .12 0 .1.01.1.03c0 .01.02.02.06.02z" fill="#e3ecf2"/><path id="143" d="M.16.05C.12.05.1.04.1.03.1.01.12 0 .16 0c.03 0 .05.01.05.03C.21.04.19.05.16.05zm0 0C.19.05.21.04.21.03.21.01.19 0 .16 0 .12 0 .1.01.1.03c0 .01.02.02.06.02z" fill="#e2ebf1"/><path id="144" d="M.16.05C.12.05.1.04.1.03.1.01.12 0 .16 0c.03 0 .05.01.05.03C.21.04.19.05.16.05zm0 0C.19.05.21.04.21.03.21.01.19 0 .16 0 .12 0 .1.01.1.03c0 .01.02.02.06.02z" fill="#e1ebf1"/><path id="145" class="fil52" d="M.16.05C.12.05.1.04.1.03.1.01.12 0 .16 0c.03 0 .05.01.05.03C.21.04.19.05.16.05zm0 0C.19.05.21.04.21.03.21.01.19 0 .16 0 .12 0 .1.01.1.03c0 .01.02.02.06.02z"/><path id="146" class="fil52" d="M.16.05C.12.05.1.04.1.03.1.01.12 0 .16 0c.03 0 .05.01.05.03C.21.04.19.05.16.05zm0 .01C.19.06.21.04.21.03.21.01.19 0 .16 0 .12 0 .1.01.1.03c0 .01.02.03.06.03z"/><path id="147" d="M.16.05C.12.05.1.04.1.03.1.01.12 0 .16 0c.03 0 .05.01.05.03C.21.04.19.05.16.05zm0 .01C.19.06.21.04.21.03.21.01.19 0 .16 0 .12 0 .1.01.1.03c0 .01.02.03.06.03z" fill="#e0eaf1"/><path id="148" d="M.16.06C.12.06.1.04.1.03.1.01.12 0 .16 0c.03 0 .05.01.05.03C.21.04.19.06.16.06zm0 0C.19.06.21.04.21.03.21.01.19 0 .16 0 .12 0 .1.01.1.03c0 .01.02.03.06.03z" fill="#dfe9f0"/><path id="149" d="M.16.06C.12.06.1.04.1.03.1.01.12 0 .16 0c.03 0 .05.01.05.03C.21.04.19.06.16.06zm0 0C.19.06.21.04.21.03.21.01.19-.01.16-.01.12-.01.1.01.1.03c0 .01.02.03.06.03z" fill="#dee8f0"/><path id="150" d="M.16.06C.12.06.1.04.1.03c0-.02.02-.04.06-.04.03 0 .05.02.05.04C.21.04.19.06.16.06zm0 0C.19.06.21.04.21.03.21.01.19-.01.16-.01.12-.01.1.01.1.03c0 .01.02.03.06.03z" fill="#dde8ef"/><path id="151" d="M.16.06C.12.06.1.04.1.03c0-.02.02-.04.06-.04.03 0 .05.02.05.04C.21.04.19.06.16.06zm0 0C.19.06.22.04.22.03.22.01.19-.01.16-.01.12-.01.1.01.1.03c0 .01.02.03.06.03z" fill="#dde7ef"/><path id="152" d="M.16.06C.12.06.1.04.1.03c0-.02.02-.04.06-.04.03 0 .06.02.06.04C.22.04.19.06.16.06zm0 0C.19.06.22.04.22.03.22.01.19-.01.16-.01.12-.01.1.01.1.03c0 .01.02.03.06.03z" fill="#dce7ef"/><path id="153" d="M.16.06C.12.06.1.04.1.03c0-.02.02-.04.06-.04.03 0 .06.02.06.04C.22.04.19.06.16.06zm0 0C.19.06.22.04.22.03.22.01.19-.01.16-.01.12-.01.09.01.09.03c0 .01.03.03.07.03z" fill="#dbe6ef"/><path id="154" d="M.16.06C.12.06.09.04.09.03c0-.02.03-.04.07-.04.03 0 .06.02.06.04C.22.04.19.06.16.06zm0 0C.19.06.22.04.22.03.22.01.19-.01.16-.01.12-.01.09.01.09.03c0 .01.03.03.07.03z" fill="#dbe6ef"/><path id="155" d="M.16.06C.12.06.09.04.09.03c0-.02.03-.04.07-.04.03 0 .06.02.06.04C.22.04.19.06.16.06zm0 0C.19.06.22.04.22.03.22.01.19-.01.16-.01.12-.01.09.01.09.03c0 .01.03.03.07.03z" fill="#dae5ee"/><path id="156" d="M.16.06C.12.06.09.04.09.03c0-.02.03-.04.07-.04.03 0 .06.02.06.04C.22.04.19.06.16.06zm0 0C.19.06.22.04.22.03.22.01.19-.01.16-.01.12-.01.09.01.09.03c0 .01.03.03.07.03z" fill="#d9e4ed"/><path id="157" d="M.16.06C.12.06.09.04.09.03c0-.02.03-.04.07-.04.03 0 .06.02.06.04C.22.04.19.06.16.06zm0 0C.19.06.22.04.22.03.22.01.19-.01.16-.01.12-.01.09.01.09.03c0 .01.03.03.07.03z" fill="#d8e4ed"/><path id="158" d="M.16.06C.12.06.09.04.09.03c0-.02.03-.04.07-.04.03 0 .06.02.06.04C.22.04.19.06.16.06zm0 0C.19.06.22.04.22.03.22.01.19-.01.16-.01.12-.01.09.01.09.03c0 .01.03.03.07.03z" fill="#d7e3ed"/><path id="159" d="M.16.06C.12.06.09.04.09.03c0-.02.03-.04.07-.04.03 0 .06.02.06.04C.22.04.19.06.16.06zm0 0C.19.06.22.04.22.03.22.01.19-.01.16-.01.12-.01.09.01.09.03c0 .01.03.03.07.03z" fill="#d6e3ed"/><path id="160" d="M.16.06C.12.06.09.04.09.03c0-.02.03-.04.07-.04.03 0 .06.02.06.04C.22.04.19.06.16.06zm0 0C.19.06.22.04.22.03.22.01.19-.01.16-.01.12-.01.09.01.09.03c0 .01.03.03.07.03z" fill="#d6e2ec"/><path id="161" d="M.16.06C.12.06.09.04.09.03c0-.02.03-.04.07-.04.03 0 .06.02.06.04C.22.04.19.06.16.06zm0 0C.19.06.22.04.22.03.22.01.19-.01.16-.01.12-.01.09.01.09.03c0 .01.03.03.07.03z" fill="#d6e2ec"/><path id="162" d="M.16.06C.12.06.09.04.09.03c0-.02.03-.04.07-.04.03 0 .06.02.06.04C.22.04.19.06.16.06zm0 0C.19.06.22.04.22.03.22.01.19-.01.16-.01.12-.01.09.01.09.03c0 .01.03.03.07.03z" fill="#d5e1ec"/><path id="163" d="M.16.06C.12.06.09.04.09.03c0-.02.03-.04.07-.04.03 0 .06.02.06.04C.22.04.19.06.16.06zm0 0C.19.06.22.04.22.03.22.01.19-.01.16-.01.12-.01.09.01.09.03c0 .01.03.03.07.03z" fill="#d4e0eb"/><path id="164" d="M.16.06C.12.06.09.04.09.03c0-.02.03-.04.07-.04.03 0 .06.02.06.04C.22.04.19.06.16.06zm0 0C.19.06.22.04.22.03.22.01.19-.01.16-.01.12-.01.09.01.09.03c0 .01.03.03.07.03z" fill="#d3dfeb"/><path id="165" d="M.16.06C.12.06.09.04.09.03c0-.02.03-.04.07-.04.03 0 .06.02.06.04C.22.04.19.06.16.06zm0 0C.19.06.22.04.22.03.22.01.19-.01.16-.01.12-.01.09.01.09.03c0 .01.03.03.07.03z" fill="#d2dfeb"/><path id="166" d="M.16.06C.12.06.09.04.09.03c0-.02.03-.04.07-.04.03 0 .06.02.06.04C.22.04.19.06.16.06zm0 0C.19.06.22.04.22.03.22.01.19-.01.16-.01.12-.01.09.01.09.03c0 .01.03.03.07.03z" fill="#d1deea"/><path id="167" d="M.16.06C.12.06.09.04.09.03c0-.02.03-.04.07-.04.03 0 .06.02.06.04C.22.04.19.06.16.06zm0 0C.19.06.22.04.22.03.22.01.19-.01.16-.01.12-.01.09.01.09.03c0 .01.03.03.07.03z" fill="#d0deea"/><path id="168" d="M.16.06C.12.06.09.04.09.03c0-.02.03-.04.07-.04.03 0 .06.02.06.04C.22.04.19.06.16.06zm0 0C.19.06.22.04.22.03.22.01.19-.01.16-.01.12-.01.09.01.09.03c0 .01.03.03.07.03z" fill="#cfddea"/><path id="169" d="M.16.06C.12.06.09.04.09.03c0-.02.03-.04.07-.04.03 0 .06.02.06.04C.22.04.19.06.16.06zm0 0C.19.06.22.04.22.03.22.01.19-.01.16-.01.12-.01.09.01.09.03c0 .01.03.03.07.03z" fill="#cedce9"/><path id="170" d="M.16.06C.12.06.09.04.09.03c0-.02.03-.04.07-.04.03 0 .06.02.06.04C.22.04.19.06.16.06zm0 0C.19.06.22.04.22.03.22.01.19-.01.16-.01.12-.01.09.01.09.03c0 .01.03.03.07.03z" fill="#ccdae8"/><path id="171" d="M.16.06C.12.06.09.04.09.03c0-.02.03-.04.07-.04.03 0 .06.02.06.04C.22.04.19.06.16.06zm0 0C.19.06.22.04.22.03.22.01.19-.01.16-.01.12-.01.09.01.09.03c0 .01.03.03.07.03z" fill="#cbd9e7"/><path id="172" d="M.16.06C.12.06.09.04.09.03c0-.02.03-.04.07-.04.03 0 .06.02.06.04C.22.04.19.06.16.06zm0 0C.19.06.22.04.22.03.22.01.19-.01.16-.01.12-.01.09.01.09.03c0 .01.03.03.07.03z" fill="#c9d8e7"/><path id="173" d="M.16.06C.12.06.09.04.09.03c0-.02.03-.04.07-.04.03 0 .06.02.06.04C.22.04.19.06.16.06zm0 0C.19.06.22.04.22.03.22.01.19-.01.16-.01.12-.01.09.01.09.03c0 .01.03.03.07.03z" fill="#c7d6e6"/><path id="174" d="M.16.06C.12.06.09.04.09.03c0-.02.03-.04.07-.04.03 0 .06.02.06.04C.22.04.19.06.16.06zm0 0C.19.06.22.04.22.03.22.01.19-.01.16-.01.12-.01.09.01.09.03c0 .01.03.03.07.03z" fill="#c5d5e5"/><path id="175" d="M.16.06C.12.06.09.04.09.03c0-.02.03-.04.07-.04.03 0 .06.02.06.04C.22.04.19.06.16.06zm0 0C.19.06.22.04.22.03.22.01.19-.01.16-.01.12-.01.09.01.09.03c0 .01.03.03.07.03z" fill="#c3d3e4"/><path id="176" d="M.16.06C.12.06.09.04.09.03c0-.02.03-.04.07-.04.03 0 .06.02.06.04C.22.04.19.06.16.06zm0 0C.19.06.23.05.23.03.23.01.19-.01.16-.01.12-.01.09.01.09.03s.03.03.07.03z" fill="#c1d1e3"/><path id="177" d="M.16.06C.12.06.09.05.09.03c0-.02.03-.04.07-.04.03 0 .06.02.06.04S.19.06.16.06zm0 0C.19.06.23.05.23.03.23.01.19-.01.16-.01.12-.01.09.01.09.03s.03.03.07.03z" fill="#bfcfe1"/><path id="178" d="M.16.06C.12.06.09.05.09.03c0-.02.03-.04.07-.04.03 0 .07.02.07.04S.19.06.16.06zm0 0C.19.06.23.05.23.03.23.01.19-.01.16-.01.12-.01.08.01.08.03s.04.03.08.03z" fill="#bccde0"/><path id="179" d="M.16.06C.12.06.09.05.09.03c0-.02.03-.04.07-.04.03 0 .07.02.07.04S.19.06.16.06zm0 0C.19.06.23.05.23.03.23.01.19-.01.16-.01.12-.01.08.01.08.03s.04.03.08.03z" fill="#baccdf"/><path id="180" d="M.16.06C.12.06.08.05.08.03c0-.02.04-.04.08-.04.03 0 .07.02.07.04S.19.06.16.06zm0 0C.19.06.23.05.23.03.23 0 .19-.01.16-.01.12-.01.08.01.08.03s.04.03.08.03z" fill="#b8cade"/><path id="181" d="M.16.06C.12.06.08.05.08.03c0-.02.04-.04.08-.04.03 0 .07.02.07.04S.19.06.16.06zm0 0C.2.06.23.05.23.03.23 0 .2-.01.16-.01.12-.01.08 0 .08.03c0 .02.04.03.08.03z" fill="#b6c8dc"/><path id="182" d="M.16.06C.12.06.08.05.08.03c0-.03.04-.04.08-.04.03 0 .07.01.07.04C.23.05.19.06.16.06zm0 0C.2.06.23.05.23.03.23 0 .2-.01.16-.01.12-.01.08 0 .08.03c0 .02.04.03.08.03z" fill="#b3c5db"/><path id="183" d="M.16.06C.12.06.08.05.08.03c0-.03.04-.04.08-.04s.07.01.07.04C.23.05.2.06.16.06zm0 0C.2.06.23.05.23.03.23 0 .2-.01.16-.01.12-.01.08 0 .08.03c0 .02.04.03.08.03z" fill="#b1c3d9"/><path id="184" d="M.16.06C.12.06.08.05.08.03c0-.03.04-.04.08-.04s.07.01.07.04C.23.05.2.06.16.06zm0 0C.2.06.23.05.23.03.23 0 .2-.01.16-.01.12-.01.08 0 .08.03c0 .02.04.03.08.03z" fill="#aec1d8"/><path id="185" d="M.16.06C.12.06.08.05.08.03c0-.03.04-.04.08-.04s.07.01.07.04C.23.05.2.06.16.06zm0 0C.2.06.23.05.23.03.23 0 .2-.01.16-.01.11-.01.08 0 .08.03c0 .02.03.03.08.03z" fill="#abbfd6"/><path id="186" d="M.16.06C.12.06.08.05.08.03c0-.03.04-.04.08-.04s.07.01.07.04C.23.05.2.06.16.06zm0 0C.2.06.23.05.23.03.23 0 .2-.01.16-.01.11-.01.08 0 .08.03c0 .02.03.03.08.03z" fill="#a9bdd4"/><path id="187" d="M.16.06C.11.06.08.05.08.03c0-.03.03-.04.08-.04.04 0 .07.01.07.04C.23.05.2.06.16.06zm0 0C.2.06.23.05.23.03.23 0 .2-.01.16-.01.11-.01.08 0 .08.03c0 .02.03.03.08.03z" fill="#a5b9d2"/><path id="188" d="M.16.06C.11.06.08.05.08.03c0-.03.03-.04.08-.04.04 0 .07.01.07.04C.23.05.2.06.16.06zm0 0C.2.06.23.05.23.03.23 0 .2-.01.16-.01.11-.01.08 0 .08.03c0 .02.03.03.08.03z" fill="#a3b8d1"/><path id="189" d="M.16.06C.11.06.08.05.08.03c0-.03.03-.04.08-.04.04 0 .07.01.07.04C.23.05.2.06.16.06zm0 0C.2.06.23.05.23.03.23 0 .2-.01.16-.01.11-.01.08 0 .08.03c0 .02.03.03.08.03z" fill="#a0b5cf"/><path id="190" d="M.16.06C.11.06.08.05.08.03c0-.03.03-.04.08-.04.04 0 .07.01.07.04C.23.05.2.06.16.06zm0 0C.2.06.23.05.23.03.23 0 .2-.01.16-.01.11-.01.08 0 .08.03c0 .02.03.03.08.03z" fill="#9eb3cd"/><path id="191" d="M.16.06C.11.06.08.05.08.03c0-.03.03-.04.08-.04.04 0 .07.01.07.04C.23.05.2.06.16.06zm0 0C.2.06.23.05.23.03.23 0 .2-.01.16-.01.11-.01.08 0 .08.03c0 .02.03.03.08.03z" fill="#9ab0cb"/><path id="192" d="M.16.06C.11.06.08.05.08.03c0-.03.03-.04.08-.04.04 0 .07.01.07.04C.23.05.2.06.16.06zm0 0C.2.06.23.05.23.03.23 0 .2-.01.16-.01.11-.01.08 0 .08.03c0 .02.03.03.08.03z" fill="#97aeca"/><path id="193" d="M.16.06C.11.06.08.05.08.03c0-.03.03-.04.08-.04.04 0 .07.01.07.04C.23.05.2.06.16.06zm0 0C.2.06.23.05.23.03.23 0 .2-.01.16-.01.11-.01.08 0 .08.03c0 .02.03.03.08.03z" fill="#95abc8"/><path id="194" d="M.16.06C.11.06.08.05.08.03c0-.03.03-.04.08-.04.04 0 .07.01.07.04C.23.05.2.06.16.06zm0 0C.2.06.23.05.23.03.23 0 .2-.01.16-.01.11-.01.08 0 .08.03c0 .02.03.03.08.03z" fill="#91a9c6"/><path id="195" d="M.16.06C.11.06.08.05.08.03c0-.03.03-.04.08-.04.04 0 .07.01.07.04C.23.05.2.06.16.06zm0 0C.2.06.23.05.23.03.23 0 .2-.01.16-.01.11-.01.08 0 .08.03c0 .02.03.03.08.03z" fill="#8ea6c4"/><path id="196" d="M.16.06C.11.06.08.05.08.03c0-.03.03-.04.08-.04.04 0 .07.01.07.04C.23.05.2.06.16.06zm0 .01C.2.07.23.05.23.03.23 0 .2-.01.16-.01.11-.01.08 0 .08.03c0 .02.03.04.08.04z" fill="#8ba3c2"/><path id="197" d="M.16.07C.11.07.08.05.08.03c0-.03.03-.04.08-.04.04 0 .07.01.07.04C.23.05.2.07.16.07zm0 0C.2.07.23.05.23.03.23 0 .2-.01.16-.01.11-.01.08 0 .08.03c0 .02.03.04.08.04z" fill="#88a1c0"/><path id="198" d="M.16.07C.11.07.08.05.08.03c0-.03.03-.04.08-.04.04 0 .07.01.07.04C.23.05.2.07.16.07zm0 0C.2.07.23.05.23.03.23 0 .2-.02.16-.02.11-.02.08 0 .08.03c0 .02.03.04.08.04z" fill="#859fbf"/><path id="199" d="M.16.07C.11.07.08.05.08.03c0-.03.03-.04.08-.04.04 0 .07.01.07.04C.23.05.2.07.16.07zm0 0C.2.07.23.05.23.03.23 0 .2-.02.16-.02.11-.02.08 0 .08.03c0 .02.03.04.08.04z" fill="#829cbc"/><path id="200" d="M.16.07C.11.07.08.05.08.03c0-.03.03-.05.08-.05.04 0 .07.02.07.05C.23.05.2.07.16.07zm0 0C.2.07.23.05.23.03.23 0 .2-.02.16-.02.11-.02.08 0 .08.03c0 .02.03.04.08.04z" fill="#7f99ba"/><path id="201" d="M.16.07C.11.07.08.05.08.03c0-.03.03-.05.08-.05.04 0 .07.02.07.05C.23.05.2.07.16.07zm0 0C.2.07.24.05.24.03.24 0 .2-.02.16-.02.11-.02.08 0 .08.03c0 .02.03.04.08.04z" fill="#7c97b9"/><path id="202" d="M.16.07C.11.07.08.05.08.03c0-.03.03-.05.08-.05.04 0 .07.02.07.05C.23.05.2.07.16.07zm0 0C.2.07.24.05.24.03.24 0 .2-.02.16-.02.11-.02.08 0 .08.03c0 .02.03.04.08.04z" fill="#7894b7"/><path id="203" d="M.16.07C.11.07.08.05.08.03c0-.03.03-.05.08-.05.04 0 .08.02.08.05C.24.05.2.07.16.07zm0 0C.2.07.24.05.24.03.24 0 .2-.02.16-.02.11-.02.07 0 .07.03c0 .02.04.04.09.04z" fill="#7692b5"/><path id="204" d="M.16.07C.11.07.08.05.08.03c0-.03.03-.05.08-.05.04 0 .08.02.08.05C.24.05.2.07.16.07zm0 0C.2.07.24.05.24.03.24 0 .2-.02.16-.02.11-.02.07 0 .07.03c0 .02.04.04.09.04z" fill="#738fb3"/><path id="205" d="M.16.07C.11.07.07.05.07.03c0-.03.04-.05.09-.05.04 0 .08.02.08.05C.24.05.2.07.16.07zm0 0C.2.07.24.05.24.03.24 0 .2-.02.16-.02.11-.02.07 0 .07.03c0 .02.04.04.09.04z" fill="#708db1"/><path id="206" d="M.16.07C.11.07.07.05.07.03c0-.03.04-.05.09-.05.04 0 .08.02.08.05C.24.05.2.07.16.07zm0 0C.2.07.24.05.24.03.24 0 .2-.02.16-.02.11-.02.07 0 .07.03c0 .02.04.04.09.04z" fill="#6c8aae"/><path id="207" d="M.16.07C.11.07.07.05.07.03c0-.03.04-.05.09-.05.04 0 .08.02.08.05C.24.05.2.07.16.07zm0 0C.2.07.24.05.24.03.24 0 .2-.02.16-.02.11-.02.07 0 .07.03c0 .02.04.04.09.04z" fill="#6a88ad"/><path id="208" d="M.16.07C.11.07.07.05.07.03c0-.03.04-.05.09-.05.04 0 .08.02.08.05C.24.05.2.07.16.07zm0 0C.2.07.24.05.24.03.24 0 .2-.02.16-.02.11-.02.07 0 .07.03c0 .02.04.04.09.04z" fill="#6685ab"/><path id="209" d="M.16.07C.11.07.07.05.07.03c0-.03.04-.05.09-.05.04 0 .08.02.08.05C.24.05.2.07.16.07zm0 0C.2.07.24.05.24.03.24 0 .2-.02.16-.02.11-.02.07 0 .07.03c0 .02.04.04.09.04z" fill="#6483a9"/><path id="210" d="M.16.07C.11.07.07.05.07.03c0-.03.04-.05.09-.05.04 0 .08.02.08.05C.24.05.2.07.16.07zm0 0C.2.07.24.05.24.03.24 0 .2-.02.16-.02.11-.02.07 0 .07.03c0 .02.04.04.09.04z" fill="#6180a7"/><path id="211" d="M.16.07C.11.07.07.05.07.03c0-.03.04-.05.09-.05.04 0 .08.02.08.05C.24.05.2.07.16.07zm0 0C.2.07.24.05.24.03.24 0 .2-.02.16-.02.11-.02.07 0 .07.03c0 .02.04.04.09.04z" fill="#5f7ea5"/><path id="212" d="M.16.07C.11.07.07.05.07.03c0-.03.04-.05.09-.05.04 0 .08.02.08.05C.24.05.2.07.16.07zm0 0C.2.07.24.05.24.03.24 0 .2-.02.16-.02.11-.02.07 0 .07.03c0 .02.04.04.09.04z" fill="#5c7ba3"/><path id="213" d="M.16.07C.11.07.07.05.07.03c0-.03.04-.05.09-.05.04 0 .08.02.08.05C.24.05.2.07.16.07zm0 0C.2.07.24.05.24.03.24 0 .2-.02.16-.02.11-.02.07 0 .07.03c0 .02.04.04.09.04z" fill="#5979a1"/><path id="214" d="M.16.07C.11.07.07.05.07.03c0-.03.04-.05.09-.05.04 0 .08.02.08.05C.24.05.2.07.16.07zm0 0C.2.07.24.05.24.03.24 0 .2-.02.16-.02.11-.02.07 0 .07.03c0 .02.04.04.09.04z" fill="#57779f"/><path id="215" d="M.16.07C.11.07.07.05.07.03c0-.03.04-.05.09-.05.04 0 .08.02.08.05C.24.05.2.07.16.07zm0 0C.2.07.24.05.24.03.24 0 .2-.02.16-.02.11-.02.07 0 .07.03c0 .02.04.04.09.04z" fill="#54759d"/><path id="216" d="M.16.07C.11.07.07.05.07.03c0-.03.04-.05.09-.05.04 0 .08.02.08.05C.24.05.2.07.16.07zm0 0C.2.07.24.05.24.03.24 0 .2-.02.16-.02.11-.02.07 0 .07.03c0 .02.04.04.09.04z" fill="#51729b"/><path id="217" d="M.16.07C.11.07.07.05.07.03c0-.03.04-.05.09-.05.04 0 .08.02.08.05C.24.05.2.07.16.07zm0 0C.2.07.24.05.24.03.24 0 .2-.02.16-.02.11-.02.07 0 .07.03c0 .02.04.04.09.04z" fill="#507099"/><path id="218" d="M.16.07C.11.07.07.05.07.03c0-.03.04-.05.09-.05.04 0 .08.02.08.05C.24.05.2.07.16.07zm0 0C.2.07.24.05.24.03.24 0 .2-.02.16-.02.11-.02.07 0 .07.03c0 .02.04.04.09.04z" fill="#4d6e98"/><path id="219" d="M.16.07C.11.07.07.05.07.03c0-.03.04-.05.09-.05.04 0 .08.02.08.05C.24.05.2.07.16.07zm0 0C.2.07.24.05.24.03.24 0 .2-.02.16-.02.11-.02.07 0 .07.03c0 .02.04.04.09.04z" fill="#4a6c96"/><path id="220" d="M.16.07C.11.07.07.05.07.03c0-.03.04-.05.09-.05.04 0 .08.02.08.05C.24.05.2.07.16.07zm0 0C.2.07.24.05.24.03.24 0 .2-.02.16-.02.11-.02.07 0 .07.03c0 .02.04.04.09.04z" fill="#486a94"/><path id="221" d="M.16.07C.11.07.07.05.07.03c0-.03.04-.05.09-.05.04 0 .08.02.08.05C.24.05.2.07.16.07zm0 0C.2.07.24.05.24.03.24 0 .2-.02.16-.02.11-.02.07 0 .07.03c0 .02.04.04.09.04z" fill="#466892"/><path id="222" d="M.16.07C.11.07.07.05.07.03c0-.03.04-.05.09-.05.04 0 .08.02.08.05C.24.05.2.07.16.07zm0 0C.2.07.24.05.24.03.24 0 .2-.02.16-.02.11-.02.07 0 .07.03c0 .02.04.04.09.04z" fill="#446691"/><path id="223" d="M.16.07C.11.07.07.05.07.03c0-.03.04-.05.09-.05.04 0 .08.02.08.05C.24.05.2.07.16.07zm0 0C.2.07.24.05.24.03.24 0 .2-.02.16-.02.11-.02.07 0 .07.03c0 .02.04.04.09.04z" fill="#41648e"/><path id="224" d="M.16.07C.11.07.07.05.07.03c0-.03.04-.05.09-.05.04 0 .08.02.08.05C.24.05.2.07.16.07zm0 0C.2.07.24.05.24.03.24 0 .2-.02.16-.02.11-.02.07 0 .07.03c0 .02.04.04.09.04z" fill="#40638d"/><path id="225" d="M.16.07C.11.07.07.05.07.03c0-.03.04-.05.09-.05.04 0 .08.02.08.05C.24.05.2.07.16.07zm0 0C.2.07.24.05.24.03.24 0 .2-.02.16-.02.11-.02.07 0 .07.03c0 .02.04.04.09.04z" fill="#3d608c"/><path id="226" d="M.16.07C.11.07.07.05.07.03c0-.03.04-.05.09-.05.04 0 .08.02.08.05C.24.05.2.07.16.07zm0 0C.2.07.24.05.24.03.24 0 .2-.02.16-.02.11-.02.07 0 .07.03c0 .02.04.04.09.04z" fill="#3b5f8a"/><path id="227" d="M.16.07C.11.07.07.05.07.03c0-.03.04-.05.09-.05.04 0 .08.02.08.05C.24.05.2.07.16.07zm0 0C.21.07.25.05.25.03.25 0 .21-.02.16-.02.11-.02.07 0 .07.03c0 .02.04.04.09.04z" fill="#395d89"/><path id="228" d="M.16.07C.11.07.07.05.07.03c0-.03.04-.05.09-.05.04 0 .09.02.09.05C.25.05.2.07.16.07zm0 0C.21.07.25.05.25.03.25 0 .21-.02.16-.02.11-.02.07 0 .07.03c0 .02.04.04.09.04z" fill="#375b87"/><path id="229" d="M.16.07C.11.07.07.05.07.03c0-.03.04-.05.09-.05.05 0 .09.02.09.05C.25.05.21.07.16.07zm0 0C.21.07.25.05.25.03.25 0 .21-.02.16-.02c-.05 0-.1.02-.1.05 0 .02.05.04.1.04z" fill="#355a85"/><path id="230" d="M.16.07C.11.07.06.05.06.03c0-.03.05-.05.1-.05s.09.02.09.05C.25.05.21.07.16.07zm0 0C.21.07.25.05.25.03.25 0 .21-.02.16-.02c-.05 0-.1.02-.1.05 0 .02.05.04.1.04z" fill="#345884"/><path id="231" d="M.16.07C.11.07.06.05.06.03c0-.03.05-.05.1-.05s.09.02.09.05C.25.05.21.07.16.07zm0 0C.21.07.25.05.25.03.25 0 .21-.02.16-.02c-.06 0-.1.02-.1.05 0 .02.04.04.1.04z" fill="#325783"/><path id="232" d="M.16.07C.11.07.06.05.06.03c0-.03.04-.05.1-.05.05 0 .09.02.09.05C.25.05.21.07.16.07zm0 0C.21.07.25.05.25.03.25 0 .21-.02.16-.02c-.06 0-.1.02-.1.05 0 .02.04.04.1.04z" fill="#315682"/><path id="233" d="M.16.07C.1.07.06.05.06.03c0-.03.04-.05.1-.05.05 0 .09.02.09.05C.25.05.21.07.16.07zm0 0C.21.07.25.05.25.03.25 0 .21-.02.16-.02c-.06 0-.1.02-.1.05 0 .02.04.04.1.04z" fill="#2f5480"/><path id="234" d="M.16.07C.1.07.06.05.06.03c0-.03.04-.05.1-.05.05 0 .09.02.09.05C.25.05.21.07.16.07zm0 0C.21.07.25.05.25.03.25 0 .21-.02.16-.02c-.06 0-.1.02-.1.05 0 .02.04.04.1.04z" fill="#2d537f"/><path id="235" d="M.16.07C.1.07.06.05.06.03c0-.03.04-.05.1-.05.05 0 .09.02.09.05C.25.05.21.07.16.07zm0 0C.21.07.25.05.25.03.25 0 .21-.02.16-.02c-.06 0-.1.02-.1.05 0 .02.04.04.1.04z" fill="#2c527e"/><path id="236" d="M.16.07C.1.07.06.05.06.03c0-.03.04-.05.1-.05.05 0 .09.02.09.05C.25.05.21.07.16.07zm0 0C.21.07.25.05.25.03.25 0 .21-.02.16-.02c-.06 0-.1.02-.1.05 0 .02.04.04.1.04z" fill="#2a517c"/><path id="237" d="M.16.07C.1.07.06.05.06.03c0-.03.04-.05.1-.05.05 0 .09.02.09.05C.25.05.21.07.16.07zm0 0C.21.07.25.05.25.03.25 0 .21-.02.16-.02c-.06 0-.1.02-.1.05 0 .02.04.04.1.04z" fill="#29507c"/><path id="238" d="M.16.07C.1.07.06.05.06.03c0-.03.04-.05.1-.05.05 0 .09.02.09.05C.25.05.21.07.16.07zm0 0C.21.07.25.05.25.03.25 0 .21-.02.16-.02c-.06 0-.1.02-.1.05 0 .02.04.04.1.04z" fill="#284f7b"/><path id="239" d="M.16.07C.1.07.06.05.06.03c0-.03.04-.05.1-.05.05 0 .09.02.09.05C.25.05.21.07.16.07zm0 0C.21.07.25.05.25.03.25 0 .21-.02.16-.02c-.06 0-.1.02-.1.05 0 .02.04.04.1.04z" fill="#274e7a"/><path id="240" d="M.16.07C.1.07.06.05.06.03c0-.03.04-.05.1-.05.05 0 .09.02.09.05C.25.05.21.07.16.07zm0 0C.21.07.25.05.25.03.25 0 .21-.02.16-.02c-.06 0-.1.02-.1.05 0 .02.04.04.1.04z" fill="#264d79"/><path id="241" d="M.16.07C.1.07.06.05.06.03c0-.03.04-.05.1-.05.05 0 .09.02.09.05C.25.05.21.07.16.07zm0 0C.21.07.25.05.25.03.25 0 .21-.02.16-.02c-.06 0-.1.02-.1.05 0 .02.04.04.1.04z" fill="#244c78"/><path id="242" d="M.16.07C.1.07.06.05.06.03c0-.03.04-.05.1-.05.05 0 .09.02.09.05C.25.05.21.07.16.07zm0 0C.21.07.25.05.25.03.25 0 .21-.02.16-.02c-.06 0-.1.02-.1.05 0 .02.04.04.1.04z" fill="#244b77"/><path id="243" d="M.16.07C.1.07.06.05.06.03c0-.03.04-.05.1-.05.05 0 .09.02.09.05C.25.05.21.07.16.07zm0 0C.21.07.25.05.25.03.25 0 .21-.02.16-.02c-.06 0-.1.02-.1.05 0 .02.04.04.1.04z" fill="#234b76"/><path id="244" d="M.16.07C.1.07.06.05.06.03c0-.03.04-.05.1-.05.05 0 .09.02.09.05C.25.05.21.07.16.07zm0 0C.21.07.25.05.25.03.25 0 .21-.02.16-.02c-.06 0-.1.02-.1.05 0 .02.04.04.1.04z" fill="#214a75"/><path id="245" d="M.16.07C.1.07.06.05.06.03c0-.03.04-.05.1-.05.05 0 .09.02.09.05C.25.05.21.07.16.07zm0 .01C.21.08.25.05.25.03.25 0 .21-.02.16-.02c-.06 0-.1.02-.1.05 0 .02.04.05.1.05z" fill="#204974"/><path id="246" d="M.16.08C.1.08.06.05.06.03c0-.03.04-.05.1-.05.05 0 .09.02.09.05C.25.05.21.08.16.08zm0 0C.21.08.25.05.25.03.25 0 .21-.02.16-.02c-.06 0-.1.02-.1.05 0 .02.04.05.1.05z" fill="#204974"/><path id="247" d="M.16.08C.1.08.06.05.06.03c0-.03.04-.05.1-.05.05 0 .09.02.09.05C.25.05.21.08.16.08zm0 0C.21.08.25.05.25.03.25 0 .21-.03.16-.03c-.06 0-.1.03-.1.06 0 .02.04.05.1.05z" fill="#1f4873"/><path id="248" d="M.16.08C.1.08.06.05.06.03c0-.03.04-.05.1-.05.05 0 .09.02.09.05C.25.05.21.08.16.08zm0 0C.21.08.25.05.25.03.25 0 .21-.03.16-.03c-.06 0-.1.03-.1.06 0 .02.04.05.1.05z" fill="#1e4873"/><path id="249" d="M.16.08C.1.08.06.05.06.03c0-.03.04-.06.1-.06.05 0 .09.03.09.06C.25.05.21.08.16.08zm0 0C.21.08.25.05.25.03.25 0 .21-.03.16-.03c-.06 0-.1.03-.1.06 0 .02.04.05.1.05z" fill="#1e4773"/><path id="250" d="M.16.08C.1.08.06.05.06.03c0-.03.04-.06.1-.06.05 0 .09.03.09.06C.25.05.21.08.16.08zm0 0C.21.08.25.05.25.03.25 0 .21-.03.16-.03c-.06 0-.1.03-.1.06 0 .02.04.05.1.05z" fill="#1d4772"/><path id="251" class="fil157" d="M.16.08C.1.08.06.05.06.03c0-.03.04-.06.1-.06.05 0 .09.03.09.06C.25.05.21.08.16.08zm0 0C.21.08.25.05.25.03.25 0 .21-.03.16-.03c-.06 0-.1.03-.1.06 0 .02.04.05.1.05z"/><path id="252" class="fil157" d="M.16.08C.1.08.06.05.06.03c0-.03.04-.06.1-.06.05 0 .09.03.09.06C.25.05.21.08.16.08zm0 0c.05 0 .1-.03.1-.05 0-.03-.05-.06-.1-.06-.06 0-.1.03-.1.06 0 .02.04.05.1.05z"/><path id="253" class="fil158" d="M.16.08C.1.08.06.05.06.03c0-.03.04-.06.1-.06.05 0 .09.03.1.06 0 .02-.05.05-.1.05zm0 0c.05 0 .1-.03.1-.05 0-.03-.05-.06-.1-.06-.06 0-.1.03-.1.06 0 .02.04.05.1.05z"/><path id="254" class="fil158" d="M.16.08C.1.08.06.05.06.03c0-.03.04-.06.1-.06.05 0 .1.03.1.06 0 .02-.05.05-.1.05zm0 0c.05 0 .1-.03.1-.05 0-.03-.05-.06-.1-.06C.1-.03.05 0 .05.03c0 .02.05.05.11.05z"/><path id="255" class="fil158" d="M.16.08C.1.08.06.05.06.03c0-.03.04-.06.1-.06.05 0 .1.03.1.06 0 .02-.05.05-.1.05zm0 0c.05 0 .1-.03.1-.05 0-.03-.05-.06-.1-.06C.1-.03.05 0 .05.03c0 .02.05.05.11.05z"/><path id="256" class="fil1" d="M.16.08C.1.08.05.05.05.03c0-.03.05-.06.11-.06.05 0 .1.03.1.06 0 .02-.05.05-.1.05zm0 0c.05 0 .1-.03.1-.05 0-.03-.05-.06-.1-.06C.1-.03.05 0 .05.03c0 .02.05.05.11.05z"/></g><path d="M.02.01h.27C.3.01.31.02.31.02V.01S.3 0 .29 0H.02C.01 0 0 .01 0 .01v.01S.01.01.02.01z" mask="url(#id1)" fill="#203050"/></g></g></svg>