<svg xmlns="http://www.w3.org/2000/svg" width="531" height="136" viewBox="0 0 16.56 4.24" xmlns:xlink="http://www.w3.org/1999/xlink" shape-rendering="geometricPrecision" text-rendering="geometricPrecision" image-rendering="optimizeQuality" fill-rule="evenodd" clip-rule="evenodd"><defs><linearGradient id="c" gradientUnits="userSpaceOnUse" x1="14.3" y1="4.03" x2="13.94" y2="1.43"><stop offset="0" stop-color="#203050"/><stop offset="1" stop-color="#141f3b"/></linearGradient><linearGradient id="a" gradientUnits="userSpaceOnUse" x1="8.28" y1=".15" x2="8.28" y2="5.93"><stop offset="0" stop-color="#9dcef0"/><stop offset="1" stop-color="#fefefe"/></linearGradient><linearGradient id="d" gradientUnits="userSpaceOnUse" xlink:href="#a" x1="8.28" y1="-.17" x2="8.28" y2="7.73"/><linearGradient id="e" gradientUnits="userSpaceOnUse" xlink:href="#a" x1="8.28" y1="-.9" x2="8.28" y2="7"/><linearGradient id="g" gradientUnits="userSpaceOnUse" xlink:href="#a" x1="7.91" y1=".35" x2="7.91" y2="6.13"/><linearGradient id="f" gradientUnits="userSpaceOnUse" xlink:href="#a" x1="8.71" y1=".35" x2="8.71" y2="6.13"/><linearGradient id="i" gradientUnits="userSpaceOnUse" xlink:href="#a" x1="9.2" y1=".07" x2="9.2" y2="5.85"/><linearGradient id="h" gradientUnits="userSpaceOnUse" xlink:href="#a" x1="7.35" y1=".07" x2="7.35" y2="5.85"/><clipPath id="b"><path d="M.03.03h16.5v4.18H.03V.03z"/></clipPath></defs><path fill="#141f3b" d="M.03.03h16.5v4.18H.03z"/><g clip-path="url(#b)"><path d="M16.53 4.21H.03s11.99.21 16.5-4.18v4.18z" fill="url(#c)"/></g><path fill="none" stroke="#fff" stroke-width=".05" stroke-miterlimit="22.926" d="M.03.03h16.5v4.18H.03z"/><g fill-rule="nonzero"><path d="M4.11.94h.06V.56h-.05L4 .76 3.98.8 3.96.76l-.13-.2h-.04v.38h.05v-.3l.02.05.11.17h.02l.1-.17.03-.05-.01.06v.24zm.17-.38h-.06l.15.28c-.01.04-.03.06-.05.06-.01 0-.03 0-.04-.01l-.01.04c.01.01.03.02.05.02.03 0 .05-.01.06-.03.02-.02.03-.05.06-.11l.1-.25h-.05l-.08.2-.01.05-.02-.05-.1-.2zm.53.38h.05V.56h-.22c-.01.17-.02.27-.04.31-.02.02-.03.03-.06.02v.05c.01 0 .02.01.03.01.03 0 .05-.02.07-.05.01-.03.02-.06.03-.11.01-.04.01-.1.02-.18h.12v.33zm.15 0c.02 0 .05.01.09.01.05 0 .09-.01.12-.04.03-.02.05-.05.05-.09 0-.02-.01-.04-.02-.06 0-.01-.02-.02-.03-.03-.02-.01-.03-.02-.05-.02-.01 0-.03-.01-.05-.01-.03 0-.05.01-.06.01V.56h-.05v.38zm.1-.04h-.05V.76c.01-.01.03-.01.05-.01.07 0 .1.02.1.07 0 .03-.01.05-.03.06-.02.01-.04.02-.07.02zm.43-.34h-.31v.05h.13v.33h.05V.61h.13V.56zm.31.38h.05V.56h-.03l-.19.25-.03.05v-.3h-.05v.38h.03l.2-.25.02-.04v.29zm.47 0h.05V.56h-.04l-.12.2-.02.04-.02-.04-.13-.2h-.04v.38H6V.7L5.99.64H6l.02.05.11.17h.01l.11-.17.02-.05v.3zm.15 0h.23V.9h-.18V.77h.16V.73h-.16V.61h.18V.56h-.23v.38zm.65-.05h-.06V.56h-.22c0 .06 0 .1-.01.15 0 .04-.01.07-.01.1-.01.02-.02.04-.02.06-.01.01-.01.02-.02.02h-.04v.12h.04V.94h.29l.01.07h.04V.89zm-.28 0c.03-.05.04-.14.05-.28h.12v.28h-.17zm.59.05h.06V.56H7.4l-.19.25-.03.05.01-.04V.56h-.06v.38h.03l.2-.25.02-.04h.01l-.01.04v.25zm.4 0h.06V.56H7.8l-.19.25-.03.05.01-.04V.56h-.06v.38h.04l.19-.25.03-.04-.01.04v.25zM7.59.48c0 .05.04.07.1.07.06 0 .09-.03.1-.07L7.74.47c0 .02 0 .02-.01.03-.01.01-.02.01-.04.01s-.03 0-.04-.01C7.64.49 7.64.49 7.64.47l-.05.01zm.59.46h.05V.56h-.05v.17h-.19V.56h-.06v.38h.06V.77h.19v.17zm.39 0h.05L8.47.56h-.03l-.15.38h.05l.04-.1h.15l.04.1zM8.44.69l.01-.06.02.06.04.11h-.12l.05-.11zm.48-.12C8.89.56 8.86.56 8.83.56c-.05 0-.09.01-.12.03-.02.02-.04.05-.04.09 0 .03.01.05.03.07.02.02.04.03.07.04l-.04.02-.09.13h.07l.1-.15.05-.01v.16h.06V.57zm-.1.04h.04v.14h-.03c-.03 0-.06-.01-.07-.02a.055.055 0 01-.03-.05c0-.05.03-.07.09-.07zm.39.16h.16c0 .03-.01.06-.02.08-.01.02-.03.03-.05.04-.01.01-.03.01-.06.01s-.06 0-.08-.01l-.01.04a.2.2 0 00.09.02c.03 0 .05 0 .07-.01A.21.21 0 009.37.9c.02-.01.04-.03.05-.06.01-.02.01-.05.01-.09 0-.03 0-.06-.01-.09A.21.21 0 009.38.6L9.32.57C9.3.56 9.28.56 9.25.56a.25.25 0 00-.1.02l.01.04A.2.2 0 019.25.6c.03 0 .06.01.09.04.02.02.03.05.03.09h-.16v.04zm.53.17h.07L9.66.77 9.63.74l.02-.01.14-.17h-.06l-.14.17-.03.01V.56h-.05v.38h.05V.77h.03l.15.17zm.38-.06c-.02.02-.04.02-.08.02S9.97.89 9.95.86C9.92.84 9.91.8 9.91.75s.01-.08.04-.11c.02-.02.05-.03.09-.03.03 0 .06 0 .08.01l.01-.05c-.03-.01-.06-.01-.1-.01h-.05c-.02.01-.03.02-.05.03-.01.01-.03.02-.04.03l-.03.06c0 .02-.01.05-.01.07 0 .07.02.12.05.15.04.03.08.05.13.05s.08-.01.11-.02l-.02-.05zm.32.06h.06V.56h-.29v.38h.05V.61h.18v.33zm.14-.19c0 .06.01.11.04.15.03.03.07.05.13.05.05 0 .09-.02.12-.05.03-.04.05-.08.05-.15 0-.06-.02-.1-.05-.14a.166.166 0 00-.12-.05c-.06 0-.1.01-.13.05-.03.03-.04.08-.04.14zm.05 0c0-.05.01-.08.03-.11.02-.02.05-.04.09-.04.03 0 .06.02.08.05.02.02.03.06.03.1 0 .05-.01.09-.03.12-.02.02-.05.03-.08.03-.04 0-.07-.01-.09-.04a.18.18 0 01-.03-.11zm.43.02h.02c.07 0 .1.02.1.06 0 .02-.01.04-.03.05-.02.02-.04.02-.07.02-.04 0-.07 0-.09-.01l-.02.04c.03.01.06.02.11.02.04 0 .08-.01.11-.03.03-.02.05-.05.05-.09 0-.02-.01-.05-.03-.06-.01-.02-.04-.03-.06-.03.02-.01.04-.02.05-.04.02-.01.02-.03.02-.05 0-.02 0-.04-.02-.05-.01-.02-.03-.03-.04-.03-.02-.01-.04-.01-.07-.01h-.06c-.02.01-.04.01-.05.02l.02.04a.2.2 0 01.09-.02c.05 0 .08.02.08.06 0 .02-.01.03-.02.04-.02.01-.03.02-.05.02H11.03v.05h.03zm.51.17h.05V.56h-.03l-.2.25-.02.05h-.01l.01-.04V.56h-.06v.38h.04l.19-.25.03-.04v.29zm.49-.05H12V.56h-.05v.33h-.18V.56h-.05v.38h.29l.01.07h.04V.89zm.31.05h.06V.56h-.04l-.19.25-.03.05.01-.04V.56h-.06v.38h.03l.2-.25.02-.04h.01l-.01.04v.25zm.39-.37c-.02-.01-.05-.01-.09-.01-.04 0-.08.01-.11.03-.03.02-.04.05-.04.09 0 .03.01.05.02.07.02.02.04.03.07.04l-.03.02-.09.13h.06l.1-.15.06-.01v.16h.05V.57zm-.09.04h.04v.14h-.04c-.03 0-.05-.01-.07-.02a.055.055 0 01-.03-.05c0-.05.04-.07.1-.07z" fill="url(#d)"/><path d="M7.65 3.38H7.6v.38h.05v-.17h.07c.01.05.02.1.05.13.03.03.06.04.12.04.05 0 .09-.01.12-.05.02-.03.04-.08.04-.14 0-.06-.02-.11-.04-.15a.166.166 0 00-.12-.05c-.05 0-.09.02-.12.05-.03.03-.04.07-.05.12h-.07v-.16zm.13.19c0-.1.04-.15.11-.15.03 0 .06.01.08.04.01.03.02.06.02.11s-.01.09-.03.11c-.01.03-.04.04-.07.04-.03 0-.05-.01-.07-.02l-.03-.06c-.01-.02-.01-.04-.01-.07zm.57-.19h-.22v.38h.05v-.33h.17v-.05zm.04.38h.05v-.14h.05c.02 0 .04 0 .06-.01.02 0 .04-.01.05-.02.02-.01.03-.02.04-.04.01-.02.01-.04.01-.06 0-.02 0-.04-.01-.06-.01-.01-.03-.02-.04-.03-.02-.01-.04-.02-.05-.02-.02 0-.04-.01-.06-.01-.04 0-.07.01-.1.01v.38zm.1-.34c.07 0 .1.02.1.07 0 .06-.03.08-.1.08h-.05v-.15h.05zm.44.34h.05l-.15-.39H8.8l-.16.39h.06l.04-.1h.14l.05.1zm-.14-.25l.02-.06.02.06.04.1h-.12l.04-.1z" fill="url(#e)"/><path fill="url(#f)" d="M16.1 3.65H9.28v-.06h6.82z"/><path fill="url(#g)" d="M7.3 3.65H.46v-.06H7.3z"/><path fill="url(#h)" d="M.46.78h3.07V.71H.46z"/><path fill="url(#i)" d="M13.03.78h3.07V.71h-3.07z"/></g><path d="M.69 1.22v1.79h.23V2.2h.28c.08 0 .15-.07.15-.15v-.67c0-.09-.07-.16-.15-.16H.69zm.56.18c0-.04-.04-.07-.08-.07H.8l-.08-.08h.47c.08 0 .13.06.13.13v.66c0 .05-.01.08-.03.1l-.06-.06c.01-.02.02-.04.02-.06V1.4zm-.13.57h-.2v-.52h.2v.52zm-.3-.62l.08.08V2h.24l.06.05c-.01.01-.02.02-.04.02H.82v-.72zm0 .75l.08.07v.82l-.08-.08V2.1zm.68.76c0 .08.07.15.16.15H2c.09 0 .16-.07.16-.15V1.38c0-.09-.07-.16-.16-.16h-.34c-.09 0-.16.07-.16.16v1.48zm.43-.08h-.2V1.45h.2v1.33zm-.3-1.36c0-.03.01-.05.02-.05l.06.06v1.38h.24l.06.06c-.01.01-.02.02-.04.02h-.26c-.04 0-.08-.04-.08-.08V1.42zm.42-.02c0-.04-.03-.07-.07-.07h-.29c-.03 0-.06 0-.07.01l-.06-.05a.15.15 0 01.11-.04H2c.08 0 .13.06.13.13v1.47c0 .05-.02.08-.04.1l-.06-.06c.02-.02.02-.04.02-.06V1.4zm.97.36v-.38c0-.09-.07-.16-.16-.16h-.34c-.09 0-.16.07-.16.16v1.48c0 .08.07.15.16.15h.34c.09 0 .16-.07.16-.15v-.39h-.23v.31h-.2V1.45h.2v.31h.23zm-.53-.34c0-.03.01-.05.01-.05l.07.06v1.38h.24l.06.06c-.01.01-.02.02-.04.02h-.26c-.04 0-.08-.04-.08-.08V1.42zm.42.24V1.4c0-.04-.03-.07-.08-.07h-.28c-.03 0-.06 0-.07.01l-.06-.05c.03-.03.06-.04.11-.04h.33c.07 0 .13.06.13.13v.35l-.08-.07zm.08.84v.35c0 .05-.02.08-.04.1l-.06-.06c.02-.02.02-.04.02-.06V2.6l-.1-.1h.18zm.85-.74v-.38c0-.09-.07-.16-.15-.16h-.35c-.08 0-.15.07-.15.16v1.48c0 .08.07.15.15.15h.35c.08 0 .15-.07.15-.15v-.39h-.23v.31h-.19V1.45h.19v.31h.23zm-.53-.34c0-.03.01-.05.02-.05l.06.06v1.38h.25l.05.06c-.01.01-.02.02-.04.02h-.26c-.04 0-.08-.04-.08-.08V1.42zm.43.24V1.4c0-.04-.04-.07-.08-.07h-.29c-.03 0-.05 0-.06.01l-.06-.05c.02-.03.06-.04.1-.04h.33c.08 0 .13.06.13.13v.35l-.07-.07zm.07.84v.35c0 .05-.01.08-.03.1l-.06-.06c.01-.02.02-.04.02-.06V2.6l-.1-.1h.17zm.42.51l.28-.96v.96h.23V1.22h-.23l-.27.94v-.94h-.23v1.79h.22zm.41-.1V1.35l-.11-.1h.18v1.74l-.07-.08zm-.51-.02V1.35l-.1-.1h.18v1l-.08.64zm.08.08l-.06-.06.43-1.49-.06.5-.31 1.05zm.96-.72h.2v.76h.23V1.22h-.47c-.09 0-.16.07-.16.16v.67c0 .06.04.11.08.12-.07.02-.11.09-.11.16v.68h.23v-.76zm-.03-1h.43v1.74l-.07-.08V1.35l-.03-.02h-.31c-.03 0-.06 0-.07.01l-.06-.05a.15.15 0 01.11-.04zm.06.77v-.57h.17v.57H5.2zm-.02.03h.19l.09.08h-.22c-.1 0-.14-.05-.14-.1v-.59c0-.04.01-.05.02-.07l.06.06v.62zm-.03.94l-.08-.08v-.66c0-.02.02-.04.04-.07l.04.05v.76zm.84-.78h.59v-.23h-.59v.23zM6.01 2h.54v.18l-.1-.1h-.36L6.01 2zM8 3.01V1.22h-.23l-.29.9-.27-.9h-.23v1.79h.24v-.96l.17.58h.19l.19-.58v.96H8zm-.11-.1V1.35l-.1-.1h.18v1.74l-.08-.08zm-.7.08l-.08-.08V1.52l.08.46v1.01zm-.05-1.64L7 1.25h.19l.29.96v.24l-.34-1.1zm.42 1.24l-.05-.11.33-1.06-.06.5-.22.67zm.64.27c0 .08.07.15.15.15h.35c.09 0 .15-.07.15-.15V1.38c0-.09-.06-.16-.15-.16h-.35c-.08 0-.15.07-.15.16v1.48zm.42-.08h-.19V1.45h.19v1.33zm-.29-1.36c0-.03.01-.05.01-.05l.06.06v1.38h.25l.06.06c-.02.01-.03.02-.04.02H8.4c-.04 0-.07-.04-.07-.08V1.42zm.42-.02c0-.04-.03-.07-.08-.07h-.28c-.04 0-.06 0-.07.01l-.06-.05c.03-.03.06-.04.1-.04h.33c.08 0 .14.06.14.13v1.47c0 .05-.02.08-.04.1l-.06-.06c.02-.02.02-.04.02-.06V1.4zm.54.85h.19v.76h.23V1.22h-.47c-.09 0-.15.07-.15.16v.67c0 .06.03.11.08.12-.07.02-.11.09-.11.16v.68h.23v-.76zm-.04-1h.44v1.74l-.08-.08V1.35l-.02-.02h-.31c-.04 0-.06 0-.07.01l-.06-.05c.03-.03.06-.04.1-.04zm.07.77v-.57h.16v.57h-.16zm-.03.03h.19l.09.08h-.21c-.11 0-.14-.05-.14-.1v-.59c0-.04 0-.05.02-.07l.05.06v.62zm-.03.94l-.07-.08v-.66c0-.02.01-.04.03-.07l.04.05v.76zm1.11.02l.28-.96v.96h.23V1.22h-.23l-.27.94v-.94h-.23v1.79h.22zm.41-.1V1.35l-.1-.1h.18v1.74l-.08-.08zm-.5-.02V1.35l-.1-.1h.18v1l-.08.64zm.08.08l-.06-.06.43-1.49-.07.5-.3 1.05zm1.38-1.21v-.38c0-.09-.06-.16-.15-.16h-.35c-.08 0-.15.07-.15.16v1.48c0 .08.07.15.15.15h.35c.09 0 .15-.07.15-.15v-.39h-.23v.31h-.19V1.45h.19v.31h.23zm-.52-.34c0-.03.01-.05.01-.05l.06.06v1.38h.25l.06.06c-.02.01-.03.02-.04.02h-.27c-.04 0-.07-.04-.07-.08V1.42zm.42.24V1.4c0-.04-.03-.07-.08-.07h-.28c-.04 0-.06 0-.07.01l-.06-.05c.03-.03.06-.04.1-.04h.33c.08 0 .14.06.14.13v.35l-.08-.07zm.08.84v.35c0 .05-.02.08-.04.1l-.06-.06c.02-.02.02-.04.02-.06V2.6l-.1-.1h.18zm.32.51h.23V1.45h.21v-.23h-.64v.23h.2v1.56zm.13-1.66l.08.08v1.56l-.08-.08V1.35zm-.31-.1h.59v.18l-.1-.1h-.41l-.08-.08zm.74 1.61c0 .08.08.15.16.15h.35c.08 0 .15-.07.15-.15V1.38c0-.09-.07-.16-.15-.16h-.35c-.08 0-.16.07-.16.16v1.48zm.43-.08h-.2V1.45h.2v1.33zm-.3-1.36c0-.03.01-.05.02-.05l.06.06v1.38h.24l.06.06c-.01.01-.02.02-.04.02h-.26c-.04 0-.08-.04-.08-.08V1.42zm.43-.02c0-.04-.04-.07-.08-.07h-.29c-.03 0-.06 0-.07.01l-.05-.05c.02-.03.06-.04.1-.04h.33c.08 0 .13.06.13.13v1.47c0 .05-.01.08-.04.1l-.05-.06c.01-.02.02-.04.02-.06V1.4zm.3-.18v1.79h.23V2.2h.27c.09 0 .16-.07.16-.15v-.67c0-.09-.07-.16-.16-.16h-.5zm.56.18c0-.04-.04-.07-.08-.07h-.37l-.08-.08h.47c.08 0 .13.06.13.13v.66c0 .05-.02.08-.04.1l-.06-.06c.02-.02.03-.04.03-.06V1.4zm-.13.57h-.2v-.52h.2v.52zm-.3-.62l.08.08V2h.24l.06.05c-.01.01-.02.02-.04.02h-.34v-.72zm0 .75l.08.07v.82l-.08-.08V2.1zm.9.91l.28-.96v.96H15V1.22h-.23l-.27.94v-.94h-.23v1.79h.22zm.41-.1V1.35l-.1-.1h.17v1.74l-.07-.08zm-.5-.02V1.35l-.11-.1h.18v1l-.07.64zm.08.08l-.06-.06.42-1.49-.06.5-.3 1.05zm.96-.72h.19v.76h.23V1.22h-.47c-.09 0-.15.07-.15.16v.67c0 .06.03.11.07.12-.06.02-.1.09-.1.16v.68h.23v-.76zm-.04-1h.44v1.74l-.08-.08V1.35l-.03-.02h-.31c-.03 0-.05 0-.06.01l-.06-.05c.02-.03.06-.04.1-.04zm.07.77v-.57h.16v.57h-.16zm-.03.03h.19l.09.08h-.22c-.1 0-.14-.05-.14-.1v-.59c0-.04.01-.05.02-.07l.06.06v.62zm-.03.94l-.07-.08v-.66c0-.02.01-.04.03-.07l.04.05v.76z" fill="url(#a)" fill-rule="nonzero"/></svg>