<svg xmlns="http://www.w3.org/2000/svg" width="229" height="123" viewBox="0 0 2.92 1.57" shape-rendering="geometricPrecision" text-rendering="geometricPrecision" image-rendering="optimizeQuality" fill-rule="evenodd" clip-rule="evenodd"><defs><style>.fil0,.fil1{fill:#fefefe;fill-rule:nonzero}.fil0{fill:#0073bb}</style></defs><g id="Слой_x0020_1"><g id="_2767588881376"><path class="fil0" d="M1 .48h.18v.06H1.1v.42H1zM1.18.96h.1V.83h.05l.01.13h.09L1.38.48h-.15l-.05.48zm.11-.18L1.3.54h.01l.02.24h-.04zM1.56.79v.09c0 .02.01.02.01.02.01 0 .02-.01.02-.02V.77c0-.01-.01-.03-.04-.03h-.04V.69h.04c.03 0 .04-.01.04-.04V.56c0-.01-.01-.02-.02-.02 0 0-.01.01-.01.02v.08h-.1V.57c0-.04.01-.09.07-.09h.08c.07 0 .07.05.07.09v.07c0 .06-.03.07-.06.07.06 0 .06.05.06.07v.1c0 .03 0 .08-.07.08h-.08c-.06 0-.07-.05-.07-.08V.79h.1zM1.73.48h.22v.48h-.09V.54h-.03v.42h-.1zM2.01.96h.1V.8h.05c.07 0 .07-.05.07-.09V.57c0-.04 0-.09-.07-.09h-.15v.48zm.1-.21V.54h.01c.01 0 .02.01.02.03v.15c0 .02-.01.03-.02.03h-.01zM2.28.88c0 .03 0 .08.07.08h.08c.07 0 .07-.05.07-.08V.57c0-.04 0-.09-.07-.09h-.08c-.07 0-.07.05-.07.09v.31zm.12 0c0 .01 0 .02-.01.02s-.02 0-.02-.02V.56c0-.01.01-.02.02-.02s.01.01.01.02v.32zM2.8.48h.12v.48h-.09v-.3h-.01l-.05.3H2.7l-.05-.3h-.01v.3h-.09V.48h.12l.07.34zM.86.53C.86.59.85.64.84.68.84.62.84.53.82.47A.78.78 0 00.74.24C.71.29.67.38.65.47.64.55.64.65.64.68A.844.844 0 01.62.47C.62.4.64.32.65.28.69.17.73.09.74.08c.01.01.06.1.09.2.02.1.03.19.03.25zM.74.95A.379.379 0 01.69.78C.69.69.73.61.74.6c.01.01.04.08.04.17C.78.85.76.92.74.95zM.87.28C.83.14.75.02.74 0 .72.03.65.13.62.25.58.38.58.49.59.6.6.72.65.83.65.83c.03.06.06.13.09.16C.78.94.86.8.88.62.9.52.9.43.87.28z"/><path class="fil0" d="M.79 1.02H.54v.17c.06-.06.16-.06.22 0s.06.16 0 .22a.31.31 0 01-.22.09c-.08 0-.15-.03-.21-.09a.304.304 0 01-.04-.39C.3 1.01.31.99.33.98.39.92.46.89.54.89V.48a.544.544 0 10.4.92v-.38H.79zM2.92 1.03H1v.29h1.92z"/><path class="fil1" d="M1.06 1.14v-.01c0-.03.02-.05.06-.05.04 0 .06.02.06.05v.08c0 .04-.02.06-.06.06-.04 0-.06-.02-.06-.06V1.2h.04v.02c0 .01.01.02.02.02s.02-.01.02-.02v-.03h-.03v-.04h.03v-.02c0-.01-.01-.02-.02-.02s-.02.01-.02.02v.01h-.04zM1.3 1.15h.03v-.07h.04v.18h-.04v-.07H1.3v.07h-.04v-.18h.04zM1.45 1.08h.1v.04h-.06v.03h.06v.04h-.06v.04h.06v.03h-.1zM1.67 1.16h.01c.01 0 .02 0 .02-.02s-.01-.02-.03-.02v.04zm0 .1h-.05v-.18h.07c.02 0 .05.01.05.06 0 .04-.03.05-.05.05h-.02v.07zM1.9 1.08v.04h-.05v.14H1.8v-.18zM2.01 1.13v.09c0 .01 0 .02.01.02s.02-.01.02-.02v-.09c0-.01-.01-.02-.02-.02s-.01.01-.01.02zm.07 0v.08c0 .04-.02.06-.06.06-.04 0-.06-.02-.06-.06v-.08c0-.03.02-.05.06-.05.04 0 .06.02.06.05zM2.26 1.19v.02c0 .04-.02.06-.06.06-.04 0-.06-.02-.06-.06v-.08c0-.03.02-.05.06-.05.04 0 .06.02.06.05v.01h-.04v-.01c0-.01-.01-.02-.02-.02s-.01.01-.01.02v.09c0 .01 0 .02.01.02s.02-.01.02-.02v-.03h.04zM2.37 1.23h.01c.01 0 .02 0 .02-.02s-.01-.02-.02-.02h-.01v.04zm.06-.15v.04h-.06v.03h.02c.03 0 .05.02.05.06 0 .05-.02.05-.05.05h-.06v-.18h.1zM2.69 1.26h-.04v-.18h.04v.18zm-.13-.03h.01c.01 0 .02 0 .02-.02s-.01-.02-.02-.02h-.01v.04zm0-.08h.02c.02 0 .05.02.05.06 0 .05-.03.05-.05.05h-.06v-.18h.04v.07zM2.83 1.26h-.04v-.14h-.03v-.04h.1v.04h-.03z"/><path class="fil0" d="M1.07 1.57h-.02v-.16H1v-.02h.12v.02h-.05zM1.41 1.47c0 .06.01.08.04.08.04 0 .04-.02.04-.08 0-.04-.01-.07-.04-.07s-.04.03-.04.07zm-.05-.01h.03c0-.03.02-.08.06-.08.06 0 .06.06.06.1 0 .05 0 .09-.06.09-.05 0-.06-.04-.06-.09h-.03v.09h-.02v-.18h.02v.07zM1.78 1.39l.04.14v.02c.01 0 .01-.01.01-.02l.03-.14h.04v.18h-.02v-.15-.02c0 .01 0 .01-.01.02l-.03.15h-.03l-.04-.15V1.4 1.57h-.02v-.18h.03zM2.23 1.39v.02h-.07v.05h.07v.02h-.07v.07h.07v.02h-.09v-.18zM2.49 1.46h.07v-.07h.02v.18h-.02v-.09h-.07v.09h-.02v-.18h.02zM2.84 1.55h.02c.03 0 .04-.01.04-.03 0-.03-.02-.04-.04-.04h-.02v.07zm0-.09h.02c.04 0 .06.02.06.06 0 .03-.02.05-.05.05h-.05v-.18h.02v.07z"/></g></g></svg>