<svg version="1.1" id="Layer_1" xmlns="http://www.w3.org/2000/svg" x="0" y="0" viewBox="0 0 219 127" xml:space="preserve"><style>.st0,.st1{fill-rule:evenodd;clip-rule:evenodd;fill:#ef7f1a}.st1{fill:#0f56a1}</style><path class="st0" d="M16.3 43.6c.9-4.6 5.6-12.1 8.3-13.9l1.9-2.8c.9-.9 1.9-1.9 2.8-1.9 0-.9 0-.9.9-.9 3.7-3.7 7.4-5.6 12.1-8.3 18.5-10.2 42.6-13 64.9-13h8.3c-.9 0-10.2.9-11.1 1.9-9.3 1.9-12.1 1.9-19.5 5.6-2.8 1.9-5.6 3.7-8.3 5.6l-6.5 6.5c0 .9 0 .9-.9 1.9-1 .7-1 .7-1.9 1.7 0 .9-.9.9-.9 1.9-1.9 1.9-5.6 7.4-6.5 10.2l-3.7 8.3c-.9 0-3.7-1.9-4.6-1.9l-14.8-7.4c-.9-.9-.9-.9-1.9-.9l-7.4 3.7c-1.9 0-9.3 2.7-11.2 3.7zM110.9 0H92.4C76.6 1.9 58.1 4.6 44.1 12.1c-6.5 2.8-9.3 4.6-14.8 9.3-8.3 6.5-13.9 15.8-16.7 26 .9 0 15.8-5.6 17.6-6.5 6.5-2.8 3.7-2.8 11.1.9l10.2 5.6c1.9.9 4.6 1.9 5.6 2.8.9-.9.9-2.8 1.9-4.6 3.7-9.3 10.2-18.5 16.7-25l1.9-1.9c1.9-.9 3.7-2.8 5.6-3.7 7.4-5.6 17.6-8.3 28.7-7.4 13.9 1.9 26 10.2 33.4 17.6 6.5 6.5 9.3 11.1 13.9 20.4 0 .9 2.8 7.4 2.8 8.3l-13 .9c.9 0 19.5 10.2 22.2 11.1 3.7 1.9 10.2 5.6 13.9 7.4.9 0 .9 0 2.8-1.9l9.3-4.6c6.5-2.8 13-7.4 19.5-11.1h1.9l-11.1-.9c-1.9-10.2-6.5-20.4-11.1-26.9-6.5-6.5-13-12.1-21.3-15.8C148-.9 112.7.9 110.9 0z"/><path class="st1" d="M104.4 123.3h5.5c1.9-.9 2.8-.9 5.6-.9 10.2-1.9 13.9-3.7 23.2-9.3l2.8-2.8c.9 0 1.9-.9 1.9-.9 3.7-2.8 5.6-5.6 7.4-8.3 4.6-5.6 7.4-11.1 10.2-16.7l1.9-3.7c.9 0 3.7 1.9 4.6 1.9 4.6 2.8 9.3 5.6 13.9 7.4 1.9.9.9.9 5.6-.9 1.9-.9 2.8-.9 4.6-1.9 1.9-.9 9.3-3.7 10.2-3.7-.9 5.6-4.6 10.2-7.4 13.9l-6.5 6.5c-21.3 16.7-56.5 21.3-84.4 20.4l.9-1zm-35.2-51c-.9 0-15.8-8.3-17.6-9.3-2.8-.9-5.6-2.8-8.3-4.6-2.8-.9-5.6-2.8-8.3-4.6-.9 0-1.9-.9-2.8 0l-6.5 3.7c-1.9.9-24.1 13-25 13.9l10.2.9c2.8 13 7.4 22.2 15.8 30.6 3.7 3.7 6.5 5.6 11.1 8.3 1.9.9 3.7 1.9 5.6 2.8 16.7 9.3 42.6 12.1 62.1 12.1 23.2.9 44.5-.9 64-9.3 12.1-4.6 25-13 31.5-24.1 1.9-3.7 4.6-9.3 4.6-13-.9 0-9.3 2.8-11.1 3.7-1.9.9-4.6 1.9-6.5 1.9-.9.9-1.9.9-2.8 1.9-.9 0-1.9.9-2.8 0-3.7-1.9-6.5-3.7-10.2-5.6L161.1 77c0 .9-.9 2.8-.9 3.7-1.9 4.6-4.6 8.3-6.5 12.1-3.7 5.6-4.6 6.5-7.4 11.1-1.9.9-4.6 3.7-5.6 4.6-9.3 7.4-21.3 12.1-33.4 11.1-8.3-.9-19.5-5.6-26-11.1-2.8-1.9-3.7-2.8-6.5-5.6l-1.9-1.9-3.7-4.6c-1.9-1.9-3.7-4.6-4.6-6.5-1.9-2.8-3.7-5.6-4.6-8.3-.9-1.9-2.8-6.5-3.7-8.3 2.8 0 4.6-.9 6.5-.9.8-.1 5.4-.1 6.4-.1zM93.3 62.1h5.6l.9-5.6h18.6c.9 0 1.9 0 1.9.9v2.8c-.9.9-1.9 0-3.7 0-2.8 0-2.8 0-2.8 1.9h12.1c0-2.8 1.9-6.5 0-8.3-1.9-1.9-5.6-1.9-9.3-1.9H95.3c-.2 0-2 10.2-2 10.2z"/><path class="st0" d="M125.7 62.1h-12.1v2.8h5.6c-.9 2.8-.9 3.7-3.7 4.6-4.6 0-4.6-.9-3.7-3.7h-6.5c0 1.9-1.9 5.6 1.9 7.4 2.8 1.9 6.5.9 9.3.9 7.4-.9 8.3-4.6 9.2-12zM133.1 62.1h-6.5c-1.9 9.3-1.9 13 7.4 13 4.6 0 9.3 0 11.1-4.6.9-.9.9-2.8.9-3.7h-5.6c-.9.9-.9 1.9-1.9 2.8h-4.6c-2.6-.1-.8-4.7-.8-7.5zM77.5 62.1H72c-.9 2.8-1.9 7.4-.9 10.2.9 1.9 3.7 2.8 7.4 2.8 5.6 0 9.3 0 12.1-4.6 0-.9.9-2.8.9-3.7H85c0 .9-.9 1.9-1.9 2.8h-3.7c-2.8-.1-1.9-3.8-1.9-7.5z"/><path class="st1" d="M126.6 62.1h6.5c.9-1.9 0-4.6 2.8-5.6.9 0 2.8 0 4.6.9.9 0 .9.9.9 2.8h5.6c.9-3.7.9-6.5-1.9-7.4-1.9-1.9-5.6-1.9-8.3-.9-7.4 0-9.2 3.7-10.2 10.2zM72 62.1h5.6c.9-1.9.9-4.6 3.7-5.6.9 0 2.8 0 3.7.9.9 0 .9.9.9 2.8h6.5c0-3.7.9-6.5-1.9-7.4-2.8-1.8-6.5-1.8-9.3-.9-7.4 0-8.3 3.7-9.2 10.2z"/><path class="st0" d="M98.8 62.1h-5.6c-.9 1.9-.9 4.6-.9 6.5-.9.9-.9 4.6-.9 5.6H97l1.8-12.1z"/></svg>