<svg xmlns="http://www.w3.org/2000/svg" width="194" height="117" viewBox="0 0 1.91 1.14" shape-rendering="geometricPrecision" text-rendering="geometricPrecision" image-rendering="optimizeQuality" fill-rule="evenodd" clip-rule="evenodd"><defs><style>.fil0{fill:#0078dc;fill-rule:nonzero}</style></defs><g id="Слой_x0020_1"><g id="_2767590202832"><path class="fil0" d="M1.31.28V.01h-.15v.27c0 .13.07.2.21.2h.21V.01h-.14v.34h-.06c-.05 0-.07-.01-.07-.07zM.78.72v.27h.14V.72c0-.14-.06-.2-.2-.2H.51v.47h.14V.65h.06c.05 0 .07.01.07.07zM.97.18H.84V.01H.69v.47h.15V.3h.13v.18h.15V.01H.97zM1.67.88c-.06 0-.08-.05-.08-.13 0-.07.02-.12.08-.12.07 0 .09.05.09.12 0 .08-.02.13-.09.13zm0-.37c-.15 0-.23.1-.23.24 0 .14.08.25.23.25.16 0 .24-.11.24-.25S1.83.51 1.67.51zM.42.37C.36.37.34.32.34.24.34.17.36.12.42.12c.07 0 .09.05.09.12C.51.32.49.37.42.37zm0-.37C.29 0 .22.07.2.18H.14V.01H0v.47h.14V.3H.2c.02.11.09.19.22.19C.58.49.66.38.66.24S.58 0 .42 0zM1.12.86V.65h.04c.07 0 .11.02.11.1s-.04.11-.11.11h-.04zm0 .13h.05c.16 0 .24-.08.24-.24 0-.15-.08-.23-.24-.23h-.2v.62h.15V.99z"/></g></g></svg>