<svg xmlns="http://www.w3.org/2000/svg" width="670" height="210" viewBox="0 0 51.22 16.09" shape-rendering="geometricPrecision" text-rendering="geometricPrecision" image-rendering="optimizeQuality" fill-rule="evenodd" clip-rule="evenodd"><defs><style>.fil0{fill:#ffffff;fill-rule:nonzero}</style></defs><g id="Слой_x0020_1"><g id="_2514975328800"><path class="fil0" d="M20.44 12.19v3.15h-.6v-3.15h-.81v-.55h2.23v.55h-.82zm3.23-.58c.19 0 .35.03.49.09.13.05.25.13.33.23.09.1.15.22.2.36.04.14.06.29.06.44v1.51c0 .36-.1.64-.29.84-.2.19-.46.29-.8.29-.19 0-.35-.03-.49-.09a.83.83 0 01-.33-.24 1.1 1.1 0 01-.2-.37 1.65 1.65 0 01-.06-.46v-.47h-.38v1.6h-.6v-3.7h.6v1.55h.38v-.46c0-.15.02-.29.07-.42.04-.14.1-.26.19-.36.09-.1.2-.19.34-.25.13-.06.3-.09.49-.09zm-.01.58a.52.52 0 00-.23.05.44.44 0 00-.15.12c-.04.05-.06.11-.08.17a.58.58 0 00-.03.19l.01 1.51c0 .17.04.3.11.41.07.11.2.16.38.16.14 0 .25-.04.34-.13.09-.09.13-.22.13-.39v-1.56c0-.06 0-.12-.02-.18a.45.45 0 00-.08-.17.64.64 0 00-.15-.13.52.52 0 00-.23-.05zm3.98 3.15v-2.17h-.02l-.27.7-.35.8h-.43l-.37-.83-.26-.67h-.02v2.17h-.61v-3.7h.58l.52 1.21.36.89h.02l.36-.9.51-1.2h.58v3.7h-.6zm1.24 0v-3.7h2.05v.56h-1.45v.99h1.25v.55h-1.25v1.02h1.45v.58h-2.05zm4.15 0v-1.6h-1.04v1.6h-.61v-3.7h.61v1.55h1.04v-1.55h.61v3.7h-.61zm3.54-1.15c0 .38-.1.66-.3.86-.2.19-.48.29-.83.29H34.3v-3.7h.61v1.46h.53c.2 0 .37.03.51.08.14.06.25.13.34.23.1.09.16.21.21.34.04.14.07.29.07.44zm-.62.02c0-.17-.04-.3-.12-.4-.08-.09-.22-.14-.41-.14h-.51v1.1h.51c.19 0 .32-.05.41-.15.08-.1.12-.24.12-.41zM21.38 5.32a.73.73 0 01-.47.17h-.66V4.02h.64c.22 0 .39.06.51.17.13.11.19.29.19.55 0 .27-.07.47-.21.58zm.88-1.98a1.47 1.47 0 00-.6-.34 2.65 2.65 0 00-.77-.11h-1.86v5.89h1.22V6.63h.71a1.73 1.73 0 001.34-.51 1.84 1.84 0 00.49-1.37c0-.32-.04-.6-.14-.83a1.42 1.42 0 00-.39-.58zM26.24 7.01a.6.6 0 01-.19.47.68.68 0 01-.45.17c-.25 0-.42-.07-.53-.22a.97.97 0 01-.15-.56V4.68l.03-.21a.65.65 0 01.33-.37.63.63 0 01.32-.07c.12 0 .22.03.3.07a.7.7 0 01.31.39l.03.19v2.33zm.78-3.57a1.77 1.77 0 00-1.42-.59c-.35 0-.64.05-.88.17a1.77 1.77 0 00-.92 1.05c-.07.22-.1.45-.1.67v2.09a2.07 2.07 0 00.44 1.41c.15.18.35.33.59.43.24.11.53.16.87.16.27 0 .52-.04.75-.13.23-.08.43-.21.59-.38.17-.16.3-.36.39-.6.1-.23.14-.5.14-.79V4.74a2.03 2.03 0 00-.45-1.3zM29.92 4.47a.53.53 0 01.11-.21.53.53 0 01.2-.16.63.63 0 01.32-.07.66.66 0 01.51.23c.06.06.1.13.13.21l.05.2 1.16-.35a2.13 2.13 0 00-.2-.55 1.71 1.71 0 00-.92-.8 2.1 2.1 0 00-.73-.12c-.35 0-.64.05-.88.17a1.77 1.77 0 00-.91 1.05c-.07.22-.1.45-.1.67v2.1c0 .26.03.52.11.76.07.24.18.45.33.64.14.18.34.33.58.43.24.11.53.16.87.16.48 0 .88-.13 1.22-.39.33-.26.54-.61.62-1.07l-1.16-.34a.68.68 0 01-.68.62c-.25 0-.42-.07-.51-.22a.97.97 0 01-.15-.56V4.68l.03-.21zM34.7 4.47a.53.53 0 01.11-.21.53.53 0 01.2-.16.6.6 0 01.31-.07c.12 0 .22.03.31.07.08.05.15.1.21.16s.1.13.12.21l.06.2 1.16-.35a1.84 1.84 0 00-.21-.55 1.68 1.68 0 00-.92-.8 2.07 2.07 0 00-.73-.12c-.34 0-.63.05-.87.17-.24.12-.44.27-.59.45-.15.18-.26.38-.32.6-.07.22-.1.45-.1.67v2.1c0 .26.03.52.1.76s.18.45.33.64c.15.18.35.33.59.43a2 2 0 00.86.16c.48 0 .89-.13 1.22-.39.33-.26.54-.61.63-1.07L36 7.03a.68.68 0 01-.68.62c-.24 0-.41-.07-.51-.22a.97.97 0 01-.15-.56V4.68a.6.6 0 01.04-.21zM38.35 8.78h3.42V7.62h-2.2V6.37h1.9V5.24h-1.9V4.03h2.2V2.89h-3.42zM42.45 4.01h1.26v4.77h1.22V4.01h1.26V2.89h-3.74zM50.11 2.89l-1.68 3.42h-.02V2.89h-1.22v5.89h1.15l1.65-3.2v3.2h1.23V2.89zM9.67 4.84L4.99 15.48a7.96 7.96 0 006.06.02L9.89 4.87a.78.78 0 01-.22-.03zM9.15 4.52L.33 10.33a8.09 8.09 0 003.81 4.74l5.17-10.4a.57.57 0 01-.16-.15zM10.29 4.81l1.65 10.27a8.05 8.05 0 003.83-4.77l-5.22-5.62a.88.88 0 01-.26.12zM9.26 2.94L7.58 0a8.05 8.05 0 00-5.53 2.67l6.85.82c.06-.22.19-.41.36-.55zM14.63 3.4l-3.6.43a1.1 1.1 0 01-.19.57L16 9.28a8.04 8.04 0 00-1.37-5.88zM8.87 3.91l-7.48-.4A8 8 0 00.11 9.36l8.82-5.18a1.31 1.31 0 01-.06-.27zM9.97 2.7c.44.01.82.28.98.67l3.07-.73A8.05 8.05 0 008.56 0L9.7 2.73c.08-.02.17-.03.27-.03z"/></g></g></svg>