<svg xmlns="http://www.w3.org/2000/svg" width="593" height="46" viewBox="0 0 55.14 4.26" shape-rendering="geometricPrecision" text-rendering="geometricPrecision" image-rendering="optimizeQuality" fill-rule="evenodd" clip-rule="evenodd"><path d="M1.58 4.25c.7 0 1.21-.34 1.44-.91.02-.03 0-.06-.03-.07l-.66-.3c-.04-.02-.07-.01-.09.03-.11.27-.31.47-.65.47-.32 0-.53-.17-.62-.46-.05-.15-.07-.3-.07-.88 0-.59.02-.74.07-.89.09-.28.3-.45.62-.45.34 0 .54.2.65.46.02.04.05.05.09.03l.66-.29c.03-.01.05-.04.03-.08C2.79.34 2.28 0 1.58 0 .86 0 .33.34.12 1.01c-.1.27-.12.48-.12 1.12 0 .63.02.84.12 1.11.21.67.74 1.01 1.46 1.01zm2.24-.04h.4c.58 0 .87-.35 1.03-.72L6.68.13c.02-.04.01-.06-.03-.06h-.81c-.06 0-.07.02-.08.05l-.72 1.82h-.02L4.21.12C4.2.09 4.19.07 4.12.07h-.81c-.03 0-.06.02-.04.07L4.6 2.97l-.08.19c-.07.15-.18.26-.45.26h-.25c-.03 0-.06.02-.06.05v.68c0 .04.03.06.06.06zm3.39-.02h.77c.04 0 .06-.03.06-.06V2.75c0-.02.01-.04.04-.04h.73c.89 0 1.44-.54 1.44-1.32S9.71.07 8.81.07h-1.6c-.04 0-.06.02-.06.06v4c0 .03.02.06.06.06zm.87-2.25c-.03 0-.04-.01-.04-.03V.87c0-.02.01-.03.04-.03h.67c.38 0 .6.22.6.55 0 .34-.22.55-.6.55h-.67zm2.8 2.25h.77c.03 0 .06-.03.06-.06V.9c0-.03.01-.04.03-.04h1.58c.04 0 .06-.02.06-.05V.13c0-.04-.02-.06-.06-.06h-2.44c-.04 0-.06.02-.06.06v4c0 .03.02.06.06.06zm3.19.02h.4c.59 0 .87-.35 1.03-.72L16.93.13c.02-.04.01-.06-.03-.06h-.81c-.06 0-.07.02-.08.05l-.72 1.82h-.02L14.46.12c-.01-.03-.02-.05-.09-.05h-.81c-.03 0-.06.02-.04.07l1.34 2.83-.09.19c-.07.15-.18.26-.45.26h-.25c-.03 0-.06.02-.06.05v.68c0 .04.03.06.06.06zm4.24-.02h.77c.04 0 .06-.03.06-.06V.9c0-.03.01-.04.04-.04h1.04c.03 0 .06-.02.06-.06V.13c0-.04-.03-.06-.06-.06h-3.05c-.04 0-.06.02-.06.06V.8c0 .04.02.06.06.06h1.04c.03 0 .04.01.04.04v3.23c0 .03.02.06.06.06zm3.82.06c.69 0 1.2-.34 1.43-.91.02-.03.01-.06-.03-.07l-.66-.3c-.03-.02-.06-.01-.08.03-.12.27-.31.47-.66.47-.32 0-.52-.17-.62-.46-.04-.15-.06-.3-.06-.88 0-.59.02-.74.06-.89.1-.28.3-.45.62-.45.35 0 .54.2.66.46.02.04.05.05.08.03l.66-.29c.04-.01.05-.04.03-.08-.23-.57-.74-.91-1.43-.91-.72 0-1.25.34-1.47 1.01-.09.27-.11.48-.11 1.12 0 .63.02.84.11 1.11.22.67.75 1.01 1.47 1.01zm2.07-.06h.77c.03 0 .06-.03.06-.06v-1.6c0-.02.01-.03.04-.03h.28c.22 0 .42.05.54.37l.26.67c.19.5.47.67.96.67h.29c.03 0 .06-.02.06-.06v-.68c0-.03-.03-.05-.06-.05h-.07c-.2 0-.3-.06-.38-.28l-.25-.66c-.08-.22-.19-.37-.4-.43v-.02c.17-.07.28-.25.35-.44l.2-.5c.08-.21.17-.28.4-.28h.05c.03 0 .06-.02.06-.05V.1c0-.04-.03-.06-.06-.06h-.25c-.47 0-.75.15-.95.66l-.26.64c-.08.2-.22.36-.48.36h-.29c-.03 0-.04-.01-.04-.03V.13c0-.04-.03-.06-.06-.06h-.77c-.04 0-.06.02-.06.06v4c0 .03.02.06.06.06zm3.54-.06c-.02.03 0 .06.04.06h.79c.05 0 .07-.02.08-.06l.23-.73h1.44l.24.73c.01.04.04.06.08.06h.79c.04 0 .05-.03.04-.06l-1.39-4c-.02-.04-.04-.06-.08-.06h-.77c-.04 0-.06.02-.08.06l-1.41 4zm1.39-1.48l.47-1.44h.02l.46 1.44h-.95zm2.65 1.56h.28c.48 0 .76-.17.95-.67l.23-.57c.13-.29.28-.32.48-.32h.31c.02 0 .03.02.03.04v1.44c0 .03.03.06.06.06h.78c.03 0 .05-.03.05-.06V.12c0-.03-.01-.05-.05-.05h-1.7c-.86 0-1.36.55-1.36 1.24 0 .68.41 1 .84 1.1v.03c-.14.09-.22.21-.28.35l-.17.4c-.06.15-.15.23-.36.23h-.09c-.03 0-.06.02-.06.05v.68c0 .04.03.06.06.06zm1.51-2.31c-.31 0-.55-.17-.55-.53s.24-.53.55-.53h.74c.02 0 .03.01.03.04v.98c0 .02-.01.04-.03.04h-.74zm3.94 2.29H38c.04 0 .06-.03.06-.06V.9c0-.03.01-.04.04-.04h1.58c.04 0 .06-.02.06-.05V.13c0-.04-.02-.06-.06-.06h-2.45c-.04 0-.06.02-.06.06v4c0 .03.02.06.06.06zm3.03 0h.77c.04 0 .06-.03.06-.06V2.75c0-.02.01-.04.04-.04h.73c.89 0 1.44-.54 1.44-1.32S42.76.07 41.86.07h-1.6c-.04 0-.06.02-.06.06v4c0 .03.02.06.06.06zm.87-2.25c-.03 0-.04-.01-.04-.03V.87c0-.02.01-.03.04-.03h.68c.37 0 .6.22.6.55 0 .34-.23.55-.6.55h-.68zm3.93 2.32c.7 0 1.25-.32 1.48-.93.11-.31.14-.59.14-1.21 0-.6-.03-.85-.12-1.13-.22-.67-.79-.99-1.5-.99-.69 0-1.17.3-1.41.87-.01.03-.01.06.03.08l.63.28c.05.02.07.01.09-.03.13-.27.32-.44.65-.44.32 0 .58.17.68.46.03.11.06.24.06.46 0 .03-.01.05-.04.05h-1.1c-.02 0-.05.01-.05.06v.63c0 .05.03.06.05.06h1.1c.02 0 .04.01.04.04 0 .28-.03.44-.08.55-.1.29-.37.42-.66.42-.33 0-.52-.16-.66-.44-.02-.03-.04-.04-.08-.03l-.63.29c-.04.02-.04.04-.03.08.23.55.72.87 1.41.87zm3.77-.01c.7 0 1.21-.34 1.44-.91.02-.03.01-.06-.03-.07l-.66-.3c-.04-.02-.07-.01-.09.03-.11.27-.3.47-.65.47-.32 0-.53-.17-.62-.46-.05-.15-.06-.3-.06-.88 0-.59.01-.74.06-.89.09-.28.3-.45.62-.45.35 0 .54.2.65.46.02.04.05.05.09.03l.66-.29c.04-.01.05-.04.03-.08-.23-.57-.74-.91-1.44-.91-.72 0-1.24.34-1.46 1.01-.09.27-.12.48-.12 1.12 0 .63.03.84.12 1.11.22.67.74 1.01 1.46 1.01zm1.94-1.3h1.74c.04 0 .06-.02.06-.06v-.62c0-.03-.02-.06-.06-.06h-1.74c-.04 0-.06.03-.06.06v.62c0 .04.02.06.06.06zm3.52 1.18c0 .03.03.06.06.06h.73c.04 0 .06-.03.06-.06v-4c0-.04-.02-.06-.06-.06h-.68c-.04 0-.08.01-.11.03l-.69.5a.09.09 0 00-.04.08v.76c0 .04.03.06.07.03l.65-.45h.01v3.11z" fill="#014590" fill-rule="nonzero"/></svg>