<svg version="1.1" viewBox="0.0 0.0 600.0 371.0" fill="none" stroke="none" stroke-linecap="square" stroke-miterlimit="10" width="600" height="371" xmlns:xlink="http://www.w3.org/1999/xlink" xmlns="http://www.w3.org/2000/svg"><path fill="#ffffff" d="M0 0L600.0 0L600.0 371.0L0 371.0L0 0Z" fill-rule="nonzero"/><path stroke="#333333" stroke-width="1.0" stroke-linecap="butt" d="M77.5 300.5L581.5 300.5" fill-rule="nonzero"/><path stroke="#cccccc" stroke-width="1.0" stroke-linecap="butt" d="M77.5 262.5L581.5 262.5" fill-rule="nonzero"/><path stroke="#cccccc" stroke-width="1.0" stroke-linecap="butt" d="M77.5 224.5L581.5 224.5" fill-rule="nonzero"/><path stroke="#cccccc" stroke-width="1.0" stroke-linecap="butt" d="M77.5 185.5L581.5 185.5" fill-rule="nonzero"/><path stroke="#cccccc" stroke-width="1.0" stroke-linecap="butt" d="M77.5 147.5L581.5 147.5" fill-rule="nonzero"/><path stroke="#cccccc" stroke-width="1.0" stroke-linecap="butt" d="M77.5 109.5L581.5 109.5" fill-rule="nonzero"/><clipPath id="id_0"><path d="M77.55 109.416664L581.45 109.416664L581.45 300.45L77.55 300.45L77.55 109.416664Z" clip-rule="nonzero"/></clipPath><path stroke="#000000" stroke-width="2.0" stroke-linecap="butt" stroke-opacity="0.0" clip-path="url(#id_0)" d="M157.0 300.0L105.0 300.0L105.0 134.0C105.0 132.89543 105.89543 132.0 107.0 132.0L155.0 132.0C156.10457 132.0 157.0 132.89543 157.0 134.0Z" fill-rule="nonzero"/><path fill="#4285f4" clip-path="url(#id_0)" d="M157.0 300.0L105.0 300.0L105.0 134.0C105.0 132.89543 105.89543 132.0 107.0 132.0L155.0 132.0C156.10457 132.0 157.0 132.89543 157.0 134.0Z" fill-rule="nonzero"/><path stroke="#000000" stroke-width="2.0" stroke-linecap="butt" stroke-opacity="0.0" clip-path="url(#id_0)" d="M236.0 300.0L184.0 300.0L184.0 165.0C184.0 163.89543 184.89543 163.0 186.0 163.0L234.0 163.0C235.10457 163.0 236.0 163.89543 236.0 165.0Z" fill-rule="nonzero"/><path fill="#4285f4" clip-path="url(#id_0)" d="M236.0 300.0L184.0 300.0L184.0 165.0C184.0 163.89543 184.89543 163.0 186.0 163.0L234.0 163.0C235.10457 163.0 236.0 163.89543 236.0 165.0Z" fill-rule="nonzero"/><path stroke="#000000" stroke-width="2.0" stroke-linecap="butt" stroke-opacity="0.0" clip-path="url(#id_0)" d="M316.0 300.0L264.0 300.0L264.0 173.0C264.0 171.89543 264.89542 171.0 266.0 171.0L314.0 171.0C315.10458 171.0 316.0 171.89543 316.0 173.0Z" fill-rule="nonzero"/><path fill="#4285f4" clip-path="url(#id_0)" d="M316.0 300.0L264.0 300.0L264.0 173.0C264.0 171.89543 264.89542 171.0 266.0 171.0L314.0 171.0C315.10458 171.0 316.0 171.89543 316.0 173.0Z" fill-rule="nonzero"/><path stroke="#000000" stroke-width="2.0" stroke-linecap="butt" stroke-opacity="0.0" clip-path="url(#id_0)" d="M395.0 300.0L343.0 300.0L343.0 211.0C343.0 209.89543 343.89542 209.0 345.0 209.0L393.0 209.0C394.10458 209.0 395.0 209.89543 395.0 211.0Z" fill-rule="nonzero"/><path fill="#4285f4" clip-path="url(#id_0)" d="M395.0 300.0L343.0 300.0L343.0 211.0C343.0 209.89543 343.89542 209.0 345.0 209.0L393.0 209.0C394.10458 209.0 395.0 209.89543 395.0 211.0Z" fill-rule="nonzero"/><path stroke="#000000" stroke-width="2.0" stroke-linecap="butt" stroke-opacity="0.0" clip-path="url(#id_0)" d="M475.0 300.0L423.0 300.0L423.0 188.0C423.0 186.89543 423.89542 186.0 425.0 186.0L473.0 186.0C474.10458 186.0 475.0 186.89543 475.0 188.0Z" fill-rule="nonzero"/><path fill="#4285f4" clip-path="url(#id_0)" d="M475.0 300.0L423.0 300.0L423.0 188.0C423.0 186.89543 423.89542 186.0 425.0 186.0L473.0 186.0C474.10458 186.0 475.0 186.89543 475.0 188.0Z" fill-rule="nonzero"/><path stroke="#000000" stroke-width="2.0" stroke-linecap="butt" stroke-opacity="0.0" clip-path="url(#id_0)" d="M554.0 300.0L502.0 300.0L502.0 264.0C502.0 262.89542 502.89542 262.0 504.0 262.0L552.0 262.0C553.10455 262.0 554.0 262.89542 554.0 264.0Z" fill-rule="nonzero"/><path fill="#4285f4" clip-path="url(#id_0)" d="M554.0 300.0L502.0 300.0L502.0 264.0C502.0 262.89542 502.89542 262.0 504.0 262.0L552.0 262.0C553.10455 262.0 554.0 262.89542 554.0 264.0Z" fill-rule="nonzero"/><path fill="#000000" d="M319.9375 340.85626L325.5 340.85626L325.5 341.8719L321.07812 341.8719L321.07812 349.45L319.9375 349.45L319.9375 340.85626ZM326.40625 346.34064Q326.40625 344.60626 327.35938 343.77814Q328.15625 343.09064 329.3125 343.09064Q330.59375 343.09064 331.40625 343.9344Q332.23438 344.7625 332.23438 346.2469Q332.23438 347.45 331.875 348.1375Q331.51562 348.825 330.8125 349.21564Q330.125 349.59064 329.3125 349.59064Q328.01562 349.59064 327.20312 348.7625Q326.40625 347.91876 326.40625 346.34064ZM327.48438 346.34064Q327.48438 347.52814 328.0 348.1219Q328.53125 348.71564 329.3125 348.71564Q330.10938 348.71564 330.625 348.1219Q331.14062 347.52814 331.14062 346.3094Q331.14062 345.15314 330.60938 344.5594Q330.09375 343.96564 329.3125 343.96564Q328.53125 343.96564 328.0 344.5594Q327.48438 345.1375 327.48438 346.34064ZM334.625 343.23126L338.95312 343.23126L338.95312 348.575L339.64062 348.575L339.64062 351.21564L338.76562 351.21564L338.76562 349.45L333.875 349.45L333.875 351.21564L333.0 351.21564L333.0 348.575L333.5625 348.575Q334.67188 347.075 334.625 343.23126ZM335.5 344.10626Q335.39062 347.1219 334.5625 348.575L337.90625 348.575L337.90625 344.10626L335.5 344.10626Z" fill-rule="nonzero"/><path fill="#000000" d="M20.956263 249.99583L20.956263 243.24583L29.550013 243.24583L29.550013 244.38646L21.971888 244.38646L21.971888 248.85521L29.550013 248.85521L29.550013 249.99583L20.956263 249.99583ZM31.940638 241.13646L23.331263 241.13646L23.331263 240.18333L24.128138 240.18333Q23.659388 239.83958 23.425013 239.41771Q23.190638 238.98021 23.190638 238.37083Q23.190638 237.57396 23.596888 236.96458Q24.003138 236.35521 24.753138 236.05833Q25.503138 235.74583 26.393763 235.74583Q27.346888 235.74583 28.112513 236.08958Q28.878138 236.41771 29.284388 237.07396Q29.690638 237.73021 29.690638 238.44896Q29.690638 238.98021 29.471888 239.40208Q29.237513 239.82396 28.909388 240.08958L31.940638 240.08958L31.940638 241.13646ZM26.471888 240.18333Q27.675013 240.18333 28.253138 239.69896Q28.815638 239.21458 28.815638 238.52708Q28.815638 237.82396 28.221888 237.32396Q27.628138 236.82396 26.378138 236.82396Q25.190638 236.82396 24.612513 237.30833Q24.018763 237.79271 24.018763 238.48021Q24.018763 239.15208 24.643763 239.66771Q25.268763 240.18333 26.471888 240.18333ZM23.331263 234.13646L23.331263 233.08958L28.065638 233.08958L23.331263 230.16771L23.331263 229.02708L29.550013 229.02708L29.550013 230.07396L24.831263 230.07396L29.550013 233.01146L29.550013 234.13646L23.331263 234.13646ZM23.331263 227.13646L23.331263 226.07396L25.909388 226.07396L25.909388 223.15208L23.331263 223.15208L23.331263 222.10521L29.550013 222.10521L29.550013 223.15208L26.784388 223.15208L26.784388 226.07396L29.550013 226.07396L29.550013 227.13646L23.331263 227.13646ZM23.331263 215.24583L29.550013 215.24583L29.550013 216.29271L27.128138 216.29271L27.128138 216.90208Q27.128138 217.46458 27.268763 217.73021Q27.409388 217.99583 28.190638 218.52708L29.550013 219.44896L29.550013 220.74583L27.878138 219.62083Q27.112513 219.08958 27.003138 218.57396Q26.878138 219.48021 26.362513 219.91771Q25.831263 220.35521 25.143763 220.35521Q24.331263 220.35521 23.831263 219.79271Q23.331263 219.21458 23.331263 218.12083L23.331263 215.24583ZM24.206263 216.29271L24.206263 217.79271Q24.206263 218.73021 24.503138 219.01146Q24.784388 219.27708 25.175013 219.27708Q25.737513 219.27708 26.003138 218.88646Q26.253138 218.48021 26.253138 217.46458L26.253138 216.29271L24.206263 216.29271ZM23.331263 213.71458L23.331263 208.65208L24.206263 208.65208L24.206263 210.65208L29.550013 210.65208L29.550013 211.69896L24.206263 211.69896L24.206263 213.71458L23.331263 213.71458ZM26.440638 207.52708Q24.706263 207.52708 23.878138 206.57396Q23.190638 205.77708 23.190638 204.62083Q23.190638 203.33958 24.034388 202.52708Q24.862513 201.69896 26.346888 201.69896Q27.550013 201.69896 28.237513 202.05833Q28.925013 202.41771 29.315638 203.12083Q29.690638 203.80833 29.690638 204.62083Q29.690638 205.91771 28.862513 206.73021Q28.018763 207.52708 26.440638 207.52708ZM26.440638 206.44896Q27.628138 206.44896 28.221888 205.93333Q28.815638 205.40208 28.815638 204.62083Q28.815638 203.82396 28.221888 203.30833Q27.628138 202.79271 26.409388 202.79271Q25.253138 202.79271 24.659388 203.32396Q24.065638 203.83958 24.065638 204.62083Q24.065638 205.40208 24.659388 205.93333Q25.237513 206.44896 26.440638 206.44896ZM29.550013 199.87083L28.346888 199.87083L28.346888 198.66771L29.550013 198.66771Q30.206263 198.66771 30.612513 198.90208Q31.034388 199.13646 31.253138 199.63646L30.800013 199.93333Q30.659388 199.60521 30.362513 199.44896Q30.081263 199.29271 29.550013 199.26146L29.550013 199.87083ZM23.331263 194.52708L23.331263 193.48021L24.503138 193.48021Q25.268763 193.48021 25.612513 193.38646Q25.956263 193.29271 26.206263 192.94896Q26.456263 192.60521 26.456263 192.07396Q26.456263 191.48021 26.143763 190.52708L23.331263 190.52708L23.331263 189.48021L29.550013 189.48021L29.550013 190.52708L27.034388 190.52708Q27.346888 191.51146 27.346888 192.35521Q27.346888 193.05833 26.987513 193.60521Q26.628138 194.13646 26.112513 194.33958Q25.581263 194.52708 24.956263 194.52708L23.331263 194.52708ZM27.550013 183.88646L27.675013 182.79271Q28.628138 183.04271 29.159388 183.74583Q29.690638 184.44896 29.690638 185.52708Q29.690638 186.88646 28.846888 187.69896Q28.003138 188.49583 26.487513 188.49583Q24.925013 188.49583 24.065638 187.68333Q23.190638 186.87083 23.190638 185.58958Q23.190638 184.33958 24.034388 183.55833Q24.878138 182.76146 26.425013 182.76146Q26.518763 182.76146 26.706263 182.76146L26.706263 187.40208Q27.737513 187.33958 28.284388 186.82396Q28.815638 186.30833 28.815638 185.52708Q28.815638 184.94896 28.518763 184.54271Q28.206263 184.12083 27.550013 183.88646ZM25.846888 187.33958L25.846888 183.87083Q25.050013 183.93333 24.659388 184.26146Q24.050013 184.77708 24.050013 185.57396Q24.050013 186.30833 24.534388 186.80833Q25.018763 187.29271 25.846888 187.33958ZM23.331263 180.62083L23.331263 175.73021L29.550013 175.73021L29.550013 176.77708L24.206263 176.77708L24.206263 179.57396L27.300013 179.57396Q28.378138 179.57396 28.737513 179.65208Q29.081263 179.71458 29.346888 180.02708Q29.596888 180.33958 29.596888 180.94896Q29.596888 181.30833 29.550013 181.79271L28.659388 181.79271L28.659388 181.32396Q28.659388 180.99583 28.596888 180.85521Q28.534388 180.71458 28.393763 180.66771Q28.237513 180.62083 27.425013 180.62083L23.331263 180.62083ZM29.550013 173.83958L28.346888 173.83958L28.346888 172.63646L29.550013 172.63646L29.550013 173.83958Z" fill-rule="nonzero"/><path fill="#000000" d="M65.05 300.21564Q65.05 298.6844 65.3625 297.7625Q65.675 296.825 66.28438 296.325Q66.90938 295.825 67.84688 295.825Q68.53438 295.825 69.05 296.10626Q69.58125 296.3875 69.925 296.91876Q70.26875 297.4344 70.45625 298.1844Q70.64375 298.9344 70.64375 300.21564Q70.64375 301.73126 70.33125 302.65314Q70.03438 303.575 69.40938 304.09064Q68.8 304.59064 67.84688 304.59064Q66.6125 304.59064 65.89375 303.7Q65.05 302.6375 65.05 300.21564ZM66.12813 300.21564Q66.12813 302.325 66.62813 303.02814Q67.12813 303.73126 67.84688 303.73126Q68.58125 303.73126 69.06563 303.02814Q69.56563 302.325 69.56563 300.21564Q69.56563 298.09064 69.06563 297.40314Q68.58125 296.7 67.83125 296.7Q67.1125 296.7 66.675 297.3094Q66.12813 298.09064 66.12813 300.21564Z" fill-rule="nonzero"/><path fill="#000000" d="M65.05 263.99335L66.15938 263.8996Q66.28438 264.7121 66.72188 265.11835Q67.175 265.5246 67.81563 265.5246Q68.56563 265.5246 69.09688 264.94647Q69.62813 264.36835 69.62813 263.43085Q69.62813 262.5246 69.1125 262.00897Q68.6125 261.47772 67.78438 261.47772Q67.28438 261.47772 66.8625 261.7121Q66.45625 261.94647 66.22188 262.30585L65.2375 262.18085L66.06563 257.7746L70.34688 257.7746L70.34688 258.7746L66.90938 258.7746L66.45625 261.0871Q67.22188 260.54022 68.06563 260.54022Q69.19063 260.54022 69.95625 261.32147Q70.7375 262.10272 70.7375 263.3371Q70.7375 264.49335 70.06563 265.35272Q69.2375 266.38397 67.81563 266.38397Q66.64375 266.38397 65.89375 265.72772Q65.15938 265.07147 65.05 263.99335Z" fill-rule="nonzero"/><path fill="#000000" d="M62.01875 228.03667L60.971874 228.03667L60.971874 221.31792Q60.58125 221.67729 59.95625 222.05229Q59.346874 222.41167 58.8625 222.58354L58.8625 221.56792Q59.7375 221.14604 60.39375 220.56792Q61.065624 219.97417 61.346874 219.41167L62.01875 219.41167L62.01875 228.03667ZM65.05 223.80229Q65.05 222.27104 65.3625 221.34917Q65.675 220.41167 66.28438 219.91167Q66.90938 219.41167 67.84688 219.41167Q68.53438 219.41167 69.05 219.69292Q69.58125 219.97417 69.925 220.50542Q70.26875 221.02104 70.45625 221.77104Q70.64375 222.52104 70.64375 223.80229Q70.64375 225.31792 70.33125 226.23979Q70.03438 227.16167 69.40938 227.67729Q68.8 228.17729 67.84688 228.17729Q66.6125 228.17729 65.89375 227.28667Q65.05 226.22417 65.05 223.80229ZM66.12813 223.80229Q66.12813 225.91167 66.62813 226.61479Q67.12813 227.31792 67.84688 227.31792Q68.58125 227.31792 69.06563 226.61479Q69.56563 225.91167 69.56563 223.80229Q69.56563 221.67729 69.06563 220.98979Q68.58125 220.28667 67.83125 220.28667Q67.1125 220.28667 66.675 220.89604Q66.12813 221.67729 66.12813 223.80229Z" fill-rule="nonzero"/><path fill="#000000" d="M62.01875 189.83L60.971874 189.83L60.971874 183.11125Q60.58125 183.47063 59.95625 183.84563Q59.346874 184.205 58.8625 184.37688L58.8625 183.36125Q59.7375 182.93938 60.39375 182.36125Q61.065624 181.7675 61.346874 181.205L62.01875 181.205L62.01875 189.83ZM65.05 187.58L66.15938 187.48625Q66.28438 188.29875 66.72188 188.705Q67.175 189.11125 67.81563 189.11125Q68.56563 189.11125 69.09688 188.53313Q69.62813 187.955 69.62813 187.0175Q69.62813 186.11125 69.1125 185.59563Q68.6125 185.06438 67.78438 185.06438Q67.28438 185.06438 66.8625 185.29875Q66.45625 185.53313 66.22188 185.8925L65.2375 185.7675L66.06563 181.36125L70.34688 181.36125L70.34688 182.36125L66.90938 182.36125L66.45625 184.67375Q67.22188 184.12688 68.06563 184.12688Q69.19063 184.12688 69.95625 184.90813Q70.7375 185.68938 70.7375 186.92375Q70.7375 188.08 70.06563 188.93938Q69.2375 189.97063 67.81563 189.97063Q66.64375 189.97063 65.89375 189.31438Q65.15938 188.65813 65.05 187.58Z" fill-rule="nonzero"/><path fill="#000000" d="M63.596874 150.60771L63.596874 151.62334L57.909374 151.62334Q57.909374 151.24834 58.034374 150.88896Q58.253124 150.31084 58.721874 149.74834Q59.20625 149.18584 60.1125 148.45146Q61.51875 147.29521 62.003124 146.62334Q62.503124 145.95146 62.503124 145.35771Q62.503124 144.73271 62.05 144.31084Q61.596874 143.87334 60.878124 143.87334Q60.1125 143.87334 59.659374 144.32646Q59.20625 144.77959 59.190624 145.59209L58.1125 145.48271Q58.221874 144.26396 58.940624 143.63896Q59.675 142.99834 60.909374 142.99834Q62.14375 142.99834 62.8625 143.68584Q63.58125 144.37334 63.58125 145.38896Q63.58125 145.90459 63.3625 146.40459Q63.159374 146.88896 62.659374 147.45146Q62.175 147.99834 61.05 148.95146Q60.096874 149.74834 59.815624 150.04521Q59.55 150.32646 59.378124 150.60771L63.596874 150.60771ZM65.05 147.38896Q65.05 145.85771 65.3625 144.93584Q65.675 143.99834 66.28438 143.49834Q66.90938 142.99834 67.84688 142.99834Q68.53438 142.99834 69.05 143.27959Q69.58125 143.56084 69.925 144.09209Q70.26875 144.60771 70.45625 145.35771Q70.64375 146.10771 70.64375 147.38896Q70.64375 148.90459 70.33125 149.82646Q70.03438 150.74834 69.40938 151.26396Q68.8 151.76396 67.84688 151.76396Q66.6125 151.76396 65.89375 150.87334Q65.05 149.81084 65.05 147.38896ZM66.12813 147.38896Q66.12813 149.49834 66.62813 150.20146Q67.12813 150.90459 67.84688 150.90459Q68.58125 150.90459 69.06563 150.20146Q69.56563 149.49834 69.56563 147.38896Q69.56563 145.26396 69.06563 144.57646Q68.58125 143.87334 67.83125 143.87334Q67.1125 143.87334 66.675 144.48271Q66.12813 145.26396 66.12813 147.38896Z" fill-rule="nonzero"/><path fill="#000000" d="M63.596874 112.40104L63.596874 113.416664L57.909374 113.416664Q57.909374 113.041664 58.034374 112.68229Q58.253124 112.104164 58.721874 111.541664Q59.20625 110.979164 60.1125 110.24479Q61.51875 109.08854 62.003124 108.416664Q62.503124 107.74479 62.503124 107.15104Q62.503124 106.52604 62.05 106.104164Q61.596874 105.666664 60.878124 105.666664Q60.1125 105.666664 59.659374 106.11979Q59.20625 106.572914 59.190624 107.385414L58.1125 107.27604Q58.221874 106.05729 58.940624 105.43229Q59.675 104.791664 60.909374 104.791664Q62.14375 104.791664 62.8625 105.479164Q63.58125 106.166664 63.58125 107.18229Q63.58125 107.697914 63.3625 108.197914Q63.159374 108.68229 62.659374 109.24479Q62.175 109.791664 61.05 110.74479Q60.096874 111.541664 59.815624 111.83854Q59.55 112.11979 59.378124 112.40104L63.596874 112.40104ZM65.05 111.166664L66.15938 111.072914Q66.28438 111.885414 66.72188 112.291664Q67.175 112.697914 67.81563 112.697914Q68.56563 112.697914 69.09688 112.11979Q69.62813 111.541664 69.62813 110.604164Q69.62813 109.697914 69.1125 109.18229Q68.6125 108.65104 67.78438 108.65104Q67.28438 108.65104 66.8625 108.885414Q66.45625 109.11979 66.22188 109.479164L65.2375 109.354164L66.06563 104.947914L70.34688 104.947914L70.34688 105.947914L66.90938 105.947914L66.45625 108.260414Q67.22188 107.71354 68.06563 107.71354Q69.19063 107.71354 69.95625 108.49479Q70.7375 109.27604 70.7375 110.510414Q70.7375 111.666664 70.06563 112.52604Q69.2375 113.55729 67.81563 113.55729Q66.64375 113.55729 65.89375 112.90104Q65.15938 112.24479 65.05 111.166664Z" fill-rule="nonzero"/><path fill="#000000" d="M123.16105 316.4344L123.16105 317.45L117.47355 317.45Q117.47355 317.075 117.59855 316.71564Q117.8173 316.1375 118.28605 315.575Q118.770424 315.0125 119.676674 314.27814Q121.082924 313.1219 121.5673 312.45Q122.0673 311.77814 122.0673 311.1844Q122.0673 310.5594 121.614174 310.1375Q121.16105 309.7 120.4423 309.7Q119.676674 309.7 119.22355 310.15314Q118.770424 310.60626 118.7548 311.41876L117.676674 311.3094Q117.78605 310.09064 118.5048 309.46564Q119.239174 308.825 120.47355 308.825Q121.707924 308.825 122.426674 309.5125Q123.145424 310.2 123.145424 311.21564Q123.145424 311.73126 122.926674 312.23126Q122.72355 312.71564 122.22355 313.27814Q121.739174 313.825 120.614174 314.77814Q119.66105 315.575 119.3798 315.8719Q119.114174 316.15314 118.9423 316.4344L123.16105 316.4344ZM124.614174 313.21564Q124.614174 311.6844 124.926674 310.7625Q125.239174 309.825 125.84855 309.325Q126.47355 308.825 127.41105 308.825Q128.09854 308.825 128.61417 309.10626Q129.14542 309.3875 129.48917 309.91876Q129.83292 310.4344 130.02042 311.1844Q130.20792 311.9344 130.20792 313.21564Q130.20792 314.73126 129.89542 315.65314Q129.59854 316.575 128.97354 317.09064Q128.36417 317.59064 127.41105 317.59064Q126.176674 317.59064 125.457924 316.7Q124.614174 315.6375 124.614174 313.21564ZM125.6923 313.21564Q125.6923 315.325 126.1923 316.02814Q126.6923 316.73126 127.41105 316.73126Q128.14542 316.73126 128.62979 316.02814Q129.12979 315.325 129.12979 313.21564Q129.12979 311.09064 128.62979 310.40314Q128.14542 309.7 127.395424 309.7Q126.676674 309.7 126.239174 310.3094Q125.6923 311.09064 125.6923 313.21564ZM135.58292 317.45L134.53604 317.45L134.53604 310.73126Q134.14542 311.09064 133.52042 311.46564Q132.91104 311.825 132.42667 311.9969L132.42667 310.98126Q133.30167 310.5594 133.95792 309.98126Q134.62979 309.3875 134.91104 308.825L135.58292 308.825L135.58292 317.45ZM138.61417 315.2L139.72354 315.10626Q139.84854 315.91876 140.28604 316.325Q140.73917 316.73126 141.37979 316.73126Q142.12979 316.73126 142.66104 316.15314Q143.19229 315.575 143.19229 314.6375Q143.19229 313.73126 142.67667 313.21564Q142.17667 312.6844 141.34854 312.6844Q140.84854 312.6844 140.42667 312.91876Q140.02042 313.15314 139.78604 313.5125L138.80167 313.3875L139.62979 308.98126L143.91104 308.98126L143.91104 309.98126L140.47354 309.98126L140.02042 312.29376Q140.78604 311.7469 141.62979 311.7469Q142.75479 311.7469 143.52042 312.52814Q144.30167 313.3094 144.30167 314.54376Q144.30167 315.7 143.62979 316.5594Q142.80167 317.59064 141.37979 317.59064Q140.20792 317.59064 139.45792 316.9344Q138.72354 316.27814 138.61417 315.2Z" fill-rule="nonzero"/><path fill="#000000" d="M202.51538 316.4344L202.51538 317.45L196.82788 317.45Q196.82788 317.075 196.95288 316.71564Q197.17163 316.1375 197.64038 315.575Q198.12476 315.0125 199.031 314.27814Q200.43726 313.1219 200.92163 312.45Q201.42163 311.77814 201.42163 311.1844Q201.42163 310.5594 200.9685 310.1375Q200.51538 309.7 199.79663 309.7Q199.031 309.7 198.57788 310.15314Q198.12476 310.60626 198.10913 311.41876L197.031 311.3094Q197.14038 310.09064 197.85913 309.46564Q198.5935 308.825 199.82788 308.825Q201.06226 308.825 201.781 309.5125Q202.49976 310.2 202.49976 311.21564Q202.49976 311.73126 202.281 312.23126Q202.07788 312.71564 201.57788 313.27814Q201.0935 313.825 199.9685 314.77814Q199.01538 315.575 198.73413 315.8719Q198.4685 316.15314 198.29663 316.4344L202.51538 316.4344ZM203.9685 313.21564Q203.9685 311.6844 204.281 310.7625Q204.5935 309.825 205.20288 309.325Q205.82788 308.825 206.76538 308.825Q207.45288 308.825 207.9685 309.10626Q208.49976 309.3875 208.8435 309.91876Q209.18726 310.4344 209.37476 311.1844Q209.56226 311.9344 209.56226 313.21564Q209.56226 314.73126 209.24976 315.65314Q208.95288 316.575 208.32788 317.09064Q207.7185 317.59064 206.76538 317.59064Q205.531 317.59064 204.81226 316.7Q203.9685 315.6375 203.9685 313.21564ZM205.04663 313.21564Q205.04663 315.325 205.54663 316.02814Q206.04663 316.73126 206.76538 316.73126Q207.49976 316.73126 207.98413 316.02814Q208.48413 315.325 208.48413 313.21564Q208.48413 311.09064 207.98413 310.40314Q207.49976 309.7 206.74976 309.7Q206.031 309.7 205.5935 310.3094Q205.04663 311.09064 205.04663 313.21564ZM214.93726 317.45L213.89038 317.45L213.89038 310.73126Q213.49976 311.09064 212.87476 311.46564Q212.26538 311.825 211.781 311.9969L211.781 310.98126Q212.656 310.5594 213.31226 309.98126Q213.98413 309.3875 214.26538 308.825L214.93726 308.825L214.93726 317.45ZM223.43726 310.96564L222.39038 311.04376Q222.24976 310.41876 221.99976 310.1375Q221.56226 309.6844 220.93726 309.6844Q220.43726 309.6844 220.04663 309.96564Q219.56226 310.34064 219.26538 311.04376Q218.98413 311.73126 218.9685 313.0125Q219.3435 312.4344 219.89038 312.15314Q220.45288 311.8719 221.06226 311.8719Q222.10913 311.8719 222.8435 312.65314Q223.5935 313.4344 223.5935 314.65314Q223.5935 315.46564 223.23413 316.16876Q222.89038 316.85626 222.281 317.23126Q221.67163 317.59064 220.906 317.59064Q219.57788 317.59064 218.74976 316.6219Q217.92163 315.65314 217.92163 313.4344Q217.92163 310.9344 218.8435 309.8094Q219.64038 308.825 220.99976 308.825Q222.01538 308.825 222.656 309.40314Q223.31226 309.96564 223.43726 310.96564ZM219.14038 314.66876Q219.14038 315.21564 219.35913 315.71564Q219.5935 316.2 219.99976 316.46564Q220.42163 316.73126 220.89038 316.73126Q221.54663 316.73126 222.031 316.2Q222.51538 315.65314 222.51538 314.73126Q222.51538 313.84064 222.031 313.325Q221.56226 312.8094 220.8435 312.8094Q220.12476 312.8094 219.62476 313.325Q219.14038 313.84064 219.14038 314.66876Z" fill-rule="nonzero"/><path fill="#000000" d="M281.86972 316.4344L281.86972 317.45L276.18222 317.45Q276.18222 317.075 276.30722 316.71564Q276.52597 316.1375 276.99472 315.575Q277.4791 315.0125 278.38535 314.27814Q279.7916 313.1219 280.27597 312.45Q280.77597 311.77814 280.77597 311.1844Q280.77597 310.5594 280.32285 310.1375Q279.86972 309.7 279.15097 309.7Q278.38535 309.7 277.93222 310.15314Q277.4791 310.60626 277.46347 311.41876L276.38535 311.3094Q276.49472 310.09064 277.21347 309.46564Q277.94785 308.825 279.18222 308.825Q280.4166 308.825 281.13535 309.5125Q281.8541 310.2 281.8541 311.21564Q281.8541 311.73126 281.63535 312.23126Q281.43222 312.71564 280.93222 313.27814Q280.44785 313.825 279.32285 314.77814Q278.36972 315.575 278.08847 315.8719Q277.82285 316.15314 277.65097 316.4344L281.86972 316.4344ZM283.32285 313.21564Q283.32285 311.6844 283.63535 310.7625Q283.94785 309.825 284.55722 309.325Q285.18222 308.825 286.11972 308.825Q286.80722 308.825 287.32285 309.10626Q287.8541 309.3875 288.19785 309.91876Q288.5416 310.4344 288.7291 311.1844Q288.9166 311.9344 288.9166 313.21564Q288.9166 314.73126 288.6041 315.65314Q288.30722 316.575 287.68222 317.09064Q287.07285 317.59064 286.11972 317.59064Q284.88535 317.59064 284.1666 316.7Q283.32285 315.6375 283.32285 313.21564ZM284.40097 313.21564Q284.40097 315.325 284.90097 316.02814Q285.40097 316.73126 286.11972 316.73126Q286.8541 316.73126 287.33847 316.02814Q287.83847 315.325 287.83847 313.21564Q287.83847 311.09064 287.33847 310.40314Q286.8541 309.7 286.1041 309.7Q285.38535 309.7 284.94785 310.3094Q284.40097 311.09064 284.40097 313.21564ZM294.2916 317.45L293.24472 317.45L293.24472 310.73126Q292.8541 311.09064 292.2291 311.46564Q291.61972 311.825 291.13535 311.9969L291.13535 310.98126Q292.01035 310.5594 292.6666 309.98126Q293.33847 309.3875 293.61972 308.825L294.2916 308.825L294.2916 317.45ZM297.38535 309.98126L297.38535 308.96564L302.94785 308.96564L302.94785 309.79376Q302.13535 310.66876 301.32285 312.1219Q300.52597 313.5594 300.08847 315.09064Q299.76035 316.16876 299.68222 317.45L298.58847 317.45Q298.6041 316.4344 298.9791 314.9969Q299.36972 313.5594 300.07285 312.23126Q300.7916 310.90314 301.6041 309.98126L297.38535 309.98126Z" fill-rule="nonzero"/><path fill="#000000" d="M361.22403 316.4344L361.22403 317.45L355.53653 317.45Q355.53653 317.075 355.66153 316.71564Q355.88028 316.1375 356.34903 315.575Q356.8334 315.0125 357.73965 314.27814Q359.1459 313.1219 359.63028 312.45Q360.13028 311.77814 360.13028 311.1844Q360.13028 310.5594 359.67715 310.1375Q359.22403 309.7 358.50528 309.7Q357.73965 309.7 357.28653 310.15314Q356.8334 310.60626 356.81778 311.41876L355.73965 311.3094Q355.84903 310.09064 356.56778 309.46564Q357.30215 308.825 358.53653 308.825Q359.7709 308.825 360.48965 309.5125Q361.2084 310.2 361.2084 311.21564Q361.2084 311.73126 360.98965 312.23126Q360.78653 312.71564 360.28653 313.27814Q359.80215 313.825 358.67715 314.77814Q357.72403 315.575 357.44278 315.8719Q357.17715 316.15314 357.00528 316.4344L361.22403 316.4344ZM362.67715 313.21564Q362.67715 311.6844 362.98965 310.7625Q363.30215 309.825 363.91153 309.325Q364.53653 308.825 365.47403 308.825Q366.16153 308.825 366.67715 309.10626Q367.2084 309.3875 367.55215 309.91876Q367.8959 310.4344 368.0834 311.1844Q368.2709 311.9344 368.2709 313.21564Q368.2709 314.73126 367.9584 315.65314Q367.66153 316.575 367.03653 317.09064Q366.42715 317.59064 365.47403 317.59064Q364.23965 317.59064 363.5209 316.7Q362.67715 315.6375 362.67715 313.21564ZM363.75528 313.21564Q363.75528 315.325 364.25528 316.02814Q364.75528 316.73126 365.47403 316.73126Q366.2084 316.73126 366.69278 316.02814Q367.19278 315.325 367.19278 313.21564Q367.19278 311.09064 366.69278 310.40314Q366.2084 309.7 365.4584 309.7Q364.73965 309.7 364.30215 310.3094Q363.75528 311.09064 363.75528 313.21564ZM373.6459 317.45L372.59903 317.45L372.59903 310.73126Q372.2084 311.09064 371.5834 311.46564Q370.97403 311.825 370.48965 311.9969L370.48965 310.98126Q371.36465 310.5594 372.0209 309.98126Q372.69278 309.3875 372.97403 308.825L373.6459 308.825L373.6459 317.45ZM378.30215 312.79376Q377.6459 312.54376 377.31778 312.10626Q377.00528 311.65314 377.00528 311.04376Q377.00528 310.10626 377.67715 309.46564Q378.36465 308.825 379.47403 308.825Q380.59903 308.825 381.28653 309.48126Q381.97403 310.1375 381.97403 311.075Q381.97403 311.66876 381.66153 312.10626Q381.34903 312.54376 380.7084 312.79376Q381.50528 313.04376 381.91153 313.6219Q382.31778 314.2 382.31778 314.9969Q382.31778 316.09064 381.53653 316.84064Q380.7709 317.59064 379.48965 317.59064Q378.22403 317.59064 377.44278 316.84064Q376.66153 316.09064 376.66153 314.96564Q376.66153 314.1219 377.0834 313.5594Q377.5209 312.9969 378.30215 312.79376ZM378.0834 310.9969Q378.0834 311.60626 378.47403 311.9969Q378.88028 312.3875 379.50528 312.3875Q380.11465 312.3875 380.50528 312.0125Q380.8959 311.6219 380.8959 311.0594Q380.8959 310.48126 380.48965 310.09064Q380.0834 309.6844 379.48965 309.6844Q378.88028 309.6844 378.47403 310.075Q378.0834 310.46564 378.0834 310.9969ZM377.75528 314.96564Q377.75528 315.41876 377.9584 315.84064Q378.17715 316.2625 378.59903 316.4969Q379.0209 316.73126 379.50528 316.73126Q380.25528 316.73126 380.73965 316.2469Q381.23965 315.7625 381.23965 315.0125Q381.23965 314.2469 380.73965 313.7469Q380.23965 313.2469 379.47403 313.2469Q378.72403 313.2469 378.23965 313.7469Q377.75528 314.23126 377.75528 314.96564Z" fill-rule="nonzero"/><path fill="#000000" d="M440.57837 316.4344L440.57837 317.45L434.89087 317.45Q434.89087 317.075 435.01587 316.71564Q435.23462 316.1375 435.70337 315.575Q436.18774 315.0125 437.094 314.27814Q438.50024 313.1219 438.98462 312.45Q439.48462 311.77814 439.48462 311.1844Q439.48462 310.5594 439.0315 310.1375Q438.57837 309.7 437.85962 309.7Q437.094 309.7 436.64087 310.15314Q436.18774 310.60626 436.17212 311.41876L435.094 311.3094Q435.20337 310.09064 435.92212 309.46564Q436.6565 308.825 437.89087 308.825Q439.12524 308.825 439.844 309.5125Q440.56274 310.2 440.56274 311.21564Q440.56274 311.73126 440.344 312.23126Q440.14087 312.71564 439.64087 313.27814Q439.1565 313.825 438.0315 314.77814Q437.07837 315.575 436.79712 315.8719Q436.5315 316.15314 436.35962 316.4344L440.57837 316.4344ZM442.0315 313.21564Q442.0315 311.6844 442.344 310.7625Q442.6565 309.825 443.26587 309.325Q443.89087 308.825 444.82837 308.825Q445.51587 308.825 446.0315 309.10626Q446.56274 309.3875 446.9065 309.91876Q447.25024 310.4344 447.43774 311.1844Q447.62524 311.9344 447.62524 313.21564Q447.62524 314.73126 447.31274 315.65314Q447.01587 316.575 446.39087 317.09064Q445.7815 317.59064 444.82837 317.59064Q443.594 317.59064 442.87524 316.7Q442.0315 315.6375 442.0315 313.21564ZM443.10962 313.21564Q443.10962 315.325 443.60962 316.02814Q444.10962 316.73126 444.82837 316.73126Q445.56274 316.73126 446.04712 316.02814Q446.54712 315.325 446.54712 313.21564Q446.54712 311.09064 446.04712 310.40314Q445.56274 309.7 444.81274 309.7Q444.094 309.7 443.6565 310.3094Q443.10962 311.09064 443.10962 313.21564ZM453.00024 317.45L451.95337 317.45L451.95337 310.73126Q451.56274 311.09064 450.93774 311.46564Q450.32837 311.825 449.844 311.9969L449.844 310.98126Q450.719 310.5594 451.37524 309.98126Q452.04712 309.3875 452.32837 308.825L453.00024 308.825L453.00024 317.45ZM456.18774 315.46564L457.20337 315.3719Q457.32837 316.09064 457.68774 316.41876Q458.06274 316.73126 458.62524 316.73126Q459.10962 316.73126 459.469 316.5125Q459.844 316.27814 460.07837 315.91876Q460.31274 315.54376 460.469 314.91876Q460.62524 314.27814 460.62524 313.6219Q460.62524 313.54376 460.62524 313.40314Q460.31274 313.90314 459.76587 314.23126Q459.219 314.54376 458.57837 314.54376Q457.50024 314.54376 456.76587 313.77814Q456.0315 312.9969 456.0315 311.73126Q456.0315 310.41876 456.79712 309.6219Q457.57837 308.825 458.73462 308.825Q459.56274 308.825 460.25024 309.27814Q460.95337 309.73126 461.31274 310.575Q461.67212 311.40314 461.67212 312.98126Q461.67212 314.6219 461.31274 315.60626Q460.969 316.575 460.25024 317.09064Q459.54712 317.59064 458.60962 317.59064Q457.594 317.59064 456.95337 317.04376Q456.31274 316.48126 456.18774 315.46564ZM460.50024 311.66876Q460.50024 310.7625 460.01587 310.23126Q459.54712 309.7 458.85962 309.7Q458.1565 309.7 457.62524 310.27814Q457.10962 310.84064 457.10962 311.7625Q457.10962 312.575 457.60962 313.09064Q458.10962 313.60626 458.82837 313.60626Q459.56274 313.60626 460.0315 313.09064Q460.50024 312.575 460.50024 311.66876Z" fill-rule="nonzero"/><path fill="#000000" d="M519.9327 316.4344L519.9327 317.45L514.2452 317.45Q514.2452 317.075 514.3702 316.71564Q514.5889 316.1375 515.0577 315.575Q515.54205 315.0125 516.4483 314.27814Q517.85455 313.1219 518.3389 312.45Q518.8389 311.77814 518.8389 311.1844Q518.8389 310.5594 518.3858 310.1375Q517.9327 309.7 517.2139 309.7Q516.4483 309.7 515.9952 310.15314Q515.54205 310.60626 515.5264 311.41876L514.4483 311.3094Q514.5577 310.09064 515.2764 309.46564Q516.0108 308.825 517.2452 308.825Q518.47955 308.825 519.1983 309.5125Q519.91705 310.2 519.91705 311.21564Q519.91705 311.73126 519.6983 312.23126Q519.4952 312.71564 518.9952 313.27814Q518.5108 313.825 517.3858 314.77814Q516.4327 315.575 516.1514 315.8719Q515.8858 316.15314 515.7139 316.4344L519.9327 316.4344ZM521.3858 313.21564Q521.3858 311.6844 521.6983 310.7625Q522.0108 309.825 522.6202 309.325Q523.2452 308.825 524.1827 308.825Q524.8702 308.825 525.3858 309.10626Q525.91705 309.3875 526.2608 309.91876Q526.60455 310.4344 526.79205 311.1844Q526.97955 311.9344 526.97955 313.21564Q526.97955 314.73126 526.66705 315.65314Q526.3702 316.575 525.7452 317.09064Q525.1358 317.59064 524.1827 317.59064Q522.9483 317.59064 522.22955 316.7Q521.3858 315.6375 521.3858 313.21564ZM522.4639 313.21564Q522.4639 315.325 522.9639 316.02814Q523.4639 316.73126 524.1827 316.73126Q524.91705 316.73126 525.4014 316.02814Q525.9014 315.325 525.9014 313.21564Q525.9014 311.09064 525.4014 310.40314Q524.91705 309.7 524.16705 309.7Q523.4483 309.7 523.0108 310.3094Q522.4639 311.09064 522.4639 313.21564ZM533.9327 316.4344L533.9327 317.45L528.2452 317.45Q528.2452 317.075 528.3702 316.71564Q528.5889 316.1375 529.0577 315.575Q529.54205 315.0125 530.4483 314.27814Q531.85455 313.1219 532.3389 312.45Q532.8389 311.77814 532.8389 311.1844Q532.8389 310.5594 532.3858 310.1375Q531.9327 309.7 531.2139 309.7Q530.4483 309.7 529.9952 310.15314Q529.54205 310.60626 529.5264 311.41876L528.4483 311.3094Q528.5577 310.09064 529.2764 309.46564Q530.0108 308.825 531.2452 308.825Q532.47955 308.825 533.1983 309.5125Q533.91705 310.2 533.91705 311.21564Q533.91705 311.73126 533.6983 312.23126Q533.4952 312.71564 532.9952 313.27814Q532.5108 313.825 531.3858 314.77814Q530.4327 315.575 530.1514 315.8719Q529.8858 316.15314 529.7139 316.4344L533.9327 316.4344ZM535.3858 313.21564Q535.3858 311.6844 535.6983 310.7625Q536.0108 309.825 536.6202 309.325Q537.2452 308.825 538.1827 308.825Q538.8702 308.825 539.3858 309.10626Q539.91705 309.3875 540.2608 309.91876Q540.60455 310.4344 540.79205 311.1844Q540.97955 311.9344 540.97955 313.21564Q540.97955 314.73126 540.66705 315.65314Q540.3702 316.575 539.7452 317.09064Q539.1358 317.59064 538.1827 317.59064Q536.9483 317.59064 536.22955 316.7Q535.3858 315.6375 535.3858 313.21564ZM536.4639 313.21564Q536.4639 315.325 536.9639 316.02814Q537.4639 316.73126 538.1827 316.73126Q538.91705 316.73126 539.4014 316.02814Q539.9014 315.325 539.9014 313.21564Q539.9014 311.09064 539.4014 310.40314Q538.91705 309.7 538.16705 309.7Q537.4483 309.7 537.0108 310.3094Q536.4639 311.09064 536.4639 313.21564Z" fill-rule="nonzero"/><path fill="#999999" d="M19.64375 77.03438L27.51875 77.03438L27.51875 87.05L26.190624 87.05L26.190624 78.20625L20.971874 78.20625L20.971874 87.05L19.64375 87.05L19.64375 77.03438ZM29.471874 89.83125L29.471874 79.78438L30.596874 79.78438L30.596874 80.7375Q30.9875 80.175 31.4875 79.90938Q31.9875 79.62813 32.70625 79.62813Q33.628124 79.62813 34.33125 80.1125Q35.05 80.58125 35.409374 81.45625Q35.76875 82.33125 35.76875 83.3625Q35.76875 84.47188 35.3625 85.37813Q34.971874 86.26875 34.20625 86.75313Q33.45625 87.22188 32.6125 87.22188Q32.003124 87.22188 31.503124 86.95625Q31.01875 86.69063 30.70625 86.3L30.70625 89.83125L29.471874 89.83125ZM30.58125 83.45625Q30.58125 84.8625 31.14375 85.53438Q31.721874 86.20625 32.534374 86.20625Q33.346874 86.20625 33.925 85.51875Q34.51875 84.81563 34.51875 83.3625Q34.51875 81.97188 33.940624 81.28438Q33.378124 80.59688 32.58125 80.59688Q31.8 80.59688 31.190624 81.33125Q30.58125 82.06563 30.58125 83.45625ZM37.471874 79.78438L38.70625 79.78438L38.70625 85.33125L42.1125 79.78438L43.440624 79.78438L43.440624 87.05L42.20625 87.05L42.20625 81.55L38.8 87.05L37.471874 87.05L37.471874 79.78438ZM45.4875 79.78438L46.70625 79.78438L46.70625 82.81563L50.128124 82.81563L50.128124 79.78438L51.346874 79.78438L51.346874 87.05L50.128124 87.05L50.128124 83.83125L46.70625 83.83125L46.70625 87.05L45.4875 87.05L45.4875 79.78438ZM59.190624 79.78438L59.190624 87.05L57.971874 87.05L57.971874 84.22188L57.253124 84.22188Q56.596874 84.22188 56.284374 84.39375Q55.971874 84.55 55.3625 85.45625L54.284374 87.05L52.76875 87.05L54.08125 85.09688Q54.690624 84.20625 55.3 84.08125Q54.253124 83.94063 53.7375 83.33125Q53.221874 82.70625 53.221874 81.90938Q53.221874 80.97188 53.89375 80.37813Q54.565624 79.78438 55.83125 79.78438L59.190624 79.78438ZM57.971874 80.81563L56.221874 80.81563Q55.1125 80.81563 54.784374 81.15938Q54.471874 81.4875 54.471874 81.95625Q54.471874 82.59688 54.940624 82.90938Q55.409374 83.20625 56.596874 83.20625L57.971874 83.20625L57.971874 80.81563ZM60.815624 79.78438L66.70625 79.78438L66.70625 80.81563L64.37813 80.81563L64.37813 87.05L63.14375 87.05L63.14375 80.81563L60.815624 80.81563L60.815624 79.78438ZM67.01875 83.425Q67.01875 81.40938 68.14375 80.425Q69.06563 79.62813 70.425 79.62813Q71.90938 79.62813 72.8625 80.6125Q73.81563 81.58125 73.81563 83.31563Q73.81563 84.72188 73.39375 85.53438Q72.97188 86.33125 72.15938 86.78438Q71.3625 87.22188 70.425 87.22188Q68.89375 87.22188 67.95625 86.2375Q67.01875 85.25313 67.01875 83.425ZM68.28438 83.425Q68.28438 84.81563 68.89375 85.51875Q69.50313 86.20625 70.425 86.20625Q71.33125 86.20625 71.94063 85.50313Q72.55 84.8 72.55 83.37813Q72.55 82.03438 71.94063 81.34688Q71.33125 80.64375 70.425 80.64375Q69.50313 80.64375 68.89375 81.33125Q68.28438 82.01875 68.28438 83.425ZM75.8 87.05L75.8 85.64375L77.19063 85.64375L77.19063 87.05Q77.19063 87.81563 76.90938 88.28438Q76.64375 88.76875 76.05 89.03438L75.70625 88.50313Q76.09688 88.33125 76.28438 88.00313Q76.47188 87.675 76.4875 87.05L75.8 87.05ZM83.01875 79.78438L84.25313 79.78438L84.25313 81.15938Q84.25313 82.05 84.3625 82.45625Q84.47188 82.84688 84.8625 83.14375Q85.26875 83.44063 85.87813 83.44063Q86.58125 83.44063 87.69063 83.08125L87.69063 79.78438L88.90938 79.78438L88.90938 87.05L87.69063 87.05L87.69063 84.12813Q86.55 84.47188 85.56563 84.47188Q84.7375 84.47188 84.09688 84.06563Q83.47188 83.64375 83.2375 83.03438Q83.01875 82.425 83.01875 81.69063L83.01875 79.78438ZM95.44063 84.70625L96.72188 84.8625Q96.40938 85.9875 95.59688 86.6125Q94.78438 87.22188 93.51875 87.22188Q91.925 87.22188 90.9875 86.2375Q90.06563 85.25313 90.06563 83.4875Q90.06563 81.64375 91.00313 80.64375Q91.95625 79.62813 93.45625 79.62813Q94.90938 79.62813 95.83125 80.62813Q96.75313 81.6125 96.75313 83.40938Q96.75313 83.51875 96.75313 83.7375L91.33125 83.7375Q91.40938 84.925 92.00313 85.56563Q92.6125 86.20625 93.53438 86.20625Q94.20625 86.20625 94.675 85.84688Q95.15938 85.4875 95.44063 84.70625ZM91.40938 82.72188L95.45625 82.72188Q95.37813 81.8 94.9875 81.34688Q94.40938 80.64375 93.47188 80.64375Q92.6125 80.64375 92.03438 81.20625Q91.47188 81.76875 91.40938 82.72188ZM99.08125 79.78438L104.78438 79.78438L104.78438 87.05L103.56563 87.05L103.56563 80.81563L100.3 80.81563L100.3 84.425Q100.3 85.69063 100.22188 86.09688Q100.14375 86.50313 99.76875 86.8Q99.40938 87.09688 98.70625 87.09688Q98.26875 87.09688 97.72188 87.05L97.72188 86.01875L98.25313 86.01875Q98.64375 86.01875 98.8 85.94063Q98.97188 85.8625 99.01875 85.69063Q99.08125 85.51875 99.08125 84.58125L99.08125 79.78438ZM106.81563 87.05L106.81563 85.64375L108.22188 85.64375L108.22188 87.05L106.81563 87.05ZM114.01875 83.425Q114.01875 81.40938 115.14375 80.425Q116.06563 79.62813 117.425 79.62813Q118.90938 79.62813 119.8625 80.6125Q120.81563 81.58125 120.81563 83.31563Q120.81563 84.72188 120.39375 85.53438Q119.97188 86.33125 119.15938 86.78438Q118.3625 87.22188 117.425 87.22188Q115.89375 87.22188 114.95625 86.2375Q114.01875 85.25313 114.01875 83.425ZM115.28438 83.425Q115.28438 84.81563 115.89375 85.51875Q116.50313 86.20625 117.425 86.20625Q118.33125 86.20625 118.94063 85.50313Q119.55 84.8 119.55 83.37813Q119.55 82.03438 118.94063 81.34688Q118.33125 80.64375 117.425 80.64375Q116.50313 80.64375 115.89375 81.33125Q115.28438 82.01875 115.28438 83.425ZM121.81563 79.78438L127.70625 79.78438L127.70625 80.81563L125.37813 80.81563L125.37813 87.05L124.14375 87.05L124.14375 80.81563L121.81563 80.81563L121.81563 79.78438ZM128.4875 79.78438L129.70625 79.78438L129.70625 82.81563L133.12813 82.81563L133.12813 79.78438L134.34688 79.78438L134.34688 87.05L133.12813 87.05L133.12813 83.83125L129.70625 83.83125L129.70625 87.05L128.4875 87.05L128.4875 79.78438ZM136.01875 83.425Q136.01875 81.40938 137.14375 80.425Q138.06563 79.62813 139.425 79.62813Q140.90938 79.62813 141.8625 80.6125Q142.81563 81.58125 142.81563 83.31563Q142.81563 84.72188 142.39375 85.53438Q141.97188 86.33125 141.15938 86.78438Q140.3625 87.22188 139.425 87.22188Q137.89375 87.22188 136.95625 86.2375Q136.01875 85.25313 136.01875 83.425ZM137.28438 83.425Q137.28438 84.81563 137.89375 85.51875Q138.50313 86.20625 139.425 86.20625Q140.33125 86.20625 140.94063 85.50313Q141.55 84.8 141.55 83.37813Q141.55 82.03438 140.94063 81.34688Q140.33125 80.64375 139.425 80.64375Q138.50313 80.64375 137.89375 81.33125Q137.28438 82.01875 137.28438 83.425ZM149.20625 84.39375L150.425 84.55Q150.22188 85.8 149.39375 86.51875Q148.58125 87.22188 147.39375 87.22188Q145.90938 87.22188 145.00313 86.25313Q144.09688 85.26875 144.09688 83.44063Q144.09688 82.26875 144.4875 81.39375Q144.87813 80.50313 145.675 80.06563Q146.47188 79.62813 147.40938 79.62813Q148.58125 79.62813 149.33125 80.22188Q150.09688 80.81563 150.3 81.925L149.1125 82.1125Q148.94063 81.37813 148.50313 81.01875Q148.06563 80.64375 147.45625 80.64375Q146.51875 80.64375 145.94063 81.31563Q145.3625 81.97188 145.3625 83.40938Q145.3625 84.87813 145.925 85.55Q146.4875 86.20625 147.37813 86.20625Q148.1125 86.20625 148.59688 85.76875Q149.08125 85.31563 149.20625 84.39375ZM151.47188 79.78438L152.70625 79.78438L152.70625 85.33125L156.1125 79.78438L157.44063 79.78438L157.44063 87.05L156.20625 87.05L156.20625 81.55L152.8 87.05L151.47188 87.05L151.47188 79.78438ZM158.81563 79.78438L164.70625 79.78438L164.70625 80.81563L162.37813 80.81563L162.37813 87.05L161.14375 87.05L161.14375 80.81563L158.81563 80.81563L158.81563 79.78438ZM170.44063 84.70625L171.72188 84.8625Q171.40938 85.9875 170.59688 86.6125Q169.78438 87.22188 168.51875 87.22188Q166.925 87.22188 165.9875 86.2375Q165.06563 85.25313 165.06563 83.4875Q165.06563 81.64375 166.00313 80.64375Q166.95625 79.62813 168.45625 79.62813Q169.90938 79.62813 170.83125 80.62813Q171.75313 81.6125 171.75313 83.40938Q171.75313 83.51875 171.75313 83.7375L166.33125 83.7375Q166.40938 84.925 167.00313 85.56563Q167.6125 86.20625 168.53438 86.20625Q169.20625 86.20625 169.675 85.84688Q170.15938 85.4875 170.44063 84.70625ZM166.40938 82.72188L170.45625 82.72188Q170.37813 81.8 169.9875 81.34688Q169.40938 80.64375 168.47188 80.64375Q167.6125 80.64375 167.03438 81.20625Q166.47188 81.76875 166.40938 82.72188ZM174.08125 79.78438L179.78438 79.78438L179.78438 87.05L178.56563 87.05L178.56563 80.81563L175.3 80.81563L175.3 84.425Q175.3 85.69063 175.22188 86.09688Q175.14375 86.50313 174.76875 86.8Q174.40938 87.09688 173.70625 87.09688Q173.26875 87.09688 172.72188 87.05L172.72188 86.01875L173.25313 86.01875Q173.64375 86.01875 173.8 85.94063Q173.97188 85.8625 174.01875 85.69063Q174.08125 85.51875 174.08125 84.58125L174.08125 79.78438ZM181.45625 79.78438L182.69063 79.78438L182.69063 82.62813L184.2375 82.62813Q185.76875 82.62813 186.58125 83.22188Q187.40938 83.81563 187.40938 84.84688Q187.40938 85.75313 186.72188 86.40938Q186.03438 87.05 184.53438 87.05L181.45625 87.05L181.45625 79.78438ZM182.69063 86.03438L183.97188 86.03438Q185.14375 86.03438 185.64375 85.75313Q186.14375 85.45625 186.14375 84.8625Q186.14375 84.37813 185.76875 84.01875Q185.40938 83.64375 184.14375 83.64375L182.69063 83.64375L182.69063 86.03438ZM188.4875 79.78438L189.70625 79.78438L189.70625 82.81563L193.12813 82.81563L193.12813 79.78438L194.34688 79.78438L194.34688 87.05L193.12813 87.05L193.12813 83.83125L189.70625 83.83125L189.70625 87.05L188.4875 87.05L188.4875 79.78438ZM196.01875 83.425Q196.01875 81.40938 197.14375 80.425Q198.06563 79.62813 199.425 79.62813Q200.90938 79.62813 201.8625 80.6125Q202.81563 81.58125 202.81563 83.31563Q202.81563 84.72188 202.39375 85.53438Q201.97188 86.33125 201.15938 86.78438Q200.3625 87.22188 199.425 87.22188Q197.89375 87.22188 196.95625 86.2375Q196.01875 85.25313 196.01875 83.425ZM197.28438 83.425Q197.28438 84.81563 197.89375 85.51875Q198.50313 86.20625 199.425 86.20625Q200.33125 86.20625 200.94063 85.50313Q201.55 84.8 201.55 83.37813Q201.55 82.03438 200.94063 81.34688Q200.33125 80.64375 199.425 80.64375Q198.50313 80.64375 197.89375 81.33125Q197.28438 82.01875 197.28438 83.425ZM208.4875 79.78438L214.20625 79.78438L214.20625 87.05L212.97188 87.05L212.97188 80.81563L209.70625 80.81563L209.70625 87.05L208.4875 87.05L208.4875 79.78438ZM221.20625 86.15938Q220.53438 86.7375 219.89375 86.9875Q219.26875 87.22188 218.53438 87.22188Q217.34688 87.22188 216.69063 86.64375Q216.05 86.05 216.05 85.12813Q216.05 84.59688 216.28438 84.15938Q216.53438 83.72188 216.925 83.45625Q217.33125 83.19063 217.81563 83.05Q218.175 82.95625 218.90938 82.8625Q220.40938 82.69063 221.1125 82.44063Q221.1125 82.19063 221.1125 82.12813Q221.1125 81.3625 220.76875 81.06563Q220.3 80.64375 219.3625 80.64375Q218.50313 80.64375 218.08125 80.95625Q217.675 81.25313 217.47188 82.01875L216.26875 81.8625Q216.425 81.08125 216.8 80.6125Q217.19063 80.14375 217.89375 79.89375Q218.6125 79.62813 219.55 79.62813Q220.47188 79.62813 221.05 79.84688Q221.62813 80.06563 221.89375 80.39375Q222.175 80.72188 222.28438 81.2375Q222.34688 81.55 222.34688 82.3625L222.34688 84.00313Q222.34688 85.72188 222.425 86.175Q222.50313 86.62813 222.7375 87.05L221.45625 87.05Q221.26875 86.65938 221.20625 86.15938ZM221.1125 83.40938Q220.44063 83.675 219.09688 83.87813Q218.34688 83.9875 218.01875 84.12813Q217.70625 84.25313 217.53438 84.51875Q217.3625 84.78438 217.3625 85.09688Q217.3625 85.59688 217.7375 85.925Q218.1125 86.25313 218.83125 86.25313Q219.55 86.25313 220.09688 85.94063Q220.64375 85.62813 220.90938 85.08125Q221.1125 84.675 221.1125 83.8625L221.1125 83.40938ZM224.47188 89.83125L224.47188 79.78438L225.59688 79.78438L225.59688 80.7375Q225.9875 80.175 226.4875 79.90938Q226.9875 79.62813 227.70625 79.62813Q228.62813 79.62813 229.33125 80.1125Q230.05 80.58125 230.40938 81.45625Q230.76875 82.33125 230.76875 83.3625Q230.76875 84.47188 230.3625 85.37813Q229.97188 86.26875 229.20625 86.75313Q228.45625 87.22188 227.6125 87.22188Q227.00313 87.22188 226.50313 86.95625Q226.01875 86.69063 225.70625 86.3L225.70625 89.83125L224.47188 89.83125ZM225.58125 83.45625Q225.58125 84.8625 226.14375 85.53438Q226.72188 86.20625 227.53438 86.20625Q228.34688 86.20625 228.925 85.51875Q229.51875 84.81563 229.51875 83.3625Q229.51875 81.97188 228.94063 81.28438Q228.37813 80.59688 227.58125 80.59688Q226.8 80.59688 226.19063 81.33125Q225.58125 82.06563 225.58125 83.45625ZM237.20625 86.15938Q236.53438 86.7375 235.89375 86.9875Q235.26875 87.22188 234.53438 87.22188Q233.34688 87.22188 232.69063 86.64375Q232.05 86.05 232.05 85.12813Q232.05 84.59688 232.28438 84.15938Q232.53438 83.72188 232.925 83.45625Q233.33125 83.19063 233.81563 83.05Q234.175 82.95625 234.90938 82.8625Q236.40938 82.69063 237.1125 82.44063Q237.1125 82.19063 237.1125 82.12813Q237.1125 81.3625 236.76875 81.06563Q236.3 80.64375 235.3625 80.64375Q234.50313 80.64375 234.08125 80.95625Q233.675 81.25313 233.47188 82.01875L232.26875 81.8625Q232.425 81.08125 232.8 80.6125Q233.19063 80.14375 233.89375 79.89375Q234.6125 79.62813 235.55 79.62813Q236.47188 79.62813 237.05 79.84688Q237.62813 80.06563 237.89375 80.39375Q238.175 80.72188 238.28438 81.2375Q238.34688 81.55 238.34688 82.3625L238.34688 84.00313Q238.34688 85.72188 238.425 86.175Q238.50313 86.62813 238.7375 87.05L237.45625 87.05Q237.26875 86.65938 237.20625 86.15938ZM237.1125 83.40938Q236.44063 83.675 235.09688 83.87813Q234.34688 83.9875 234.01875 84.12813Q233.70625 84.25313 233.53438 84.51875Q233.3625 84.78438 233.3625 85.09688Q233.3625 85.59688 233.7375 85.925Q234.1125 86.25313 234.83125 86.25313Q235.55 86.25313 236.09688 85.94063Q236.64375 85.62813 236.90938 85.08125Q237.1125 84.675 237.1125 83.8625L237.1125 83.40938ZM240.50313 79.78438L242.425 79.78438L244.33125 85.59688L246.44063 79.78438L248.22188 79.78438L248.22188 87.05L246.9875 87.05L246.9875 81.20625L244.84688 87.05L243.7375 87.05L241.70625 80.925L241.70625 87.05L240.50313 87.05L240.50313 79.78438ZM255.44063 84.70625L256.72186 84.8625Q256.40936 85.9875 255.59688 86.6125Q254.78438 87.22188 253.51875 87.22188Q251.925 87.22188 250.9875 86.2375Q250.06563 85.25313 250.06563 83.4875Q250.06563 81.64375 251.00313 80.64375Q251.95625 79.62813 253.45625 79.62813Q254.90938 79.62813 255.83125 80.62813Q256.7531 81.6125 256.7531 83.40938Q256.7531 83.51875 256.7531 83.7375L251.33125 83.7375Q251.40938 84.925 252.00313 85.56563Q252.6125 86.20625 253.53438 86.20625Q254.20625 86.20625 254.675 85.84688Q255.15938 85.4875 255.44063 84.70625ZM251.40938 82.72188L255.45625 82.72188Q255.37813 81.8 254.9875 81.34688Q254.40938 80.64375 253.47188 80.64375Q252.6125 80.64375 252.03438 81.20625Q251.47188 81.76875 251.40938 82.72188ZM257.8156 79.78438L263.70624 79.78438L263.70624 80.81563L261.3781 80.81563L261.3781 87.05L260.14374 87.05L260.14374 80.81563L257.8156 80.81563L257.8156 79.78438ZM264.47186 89.83125L264.47186 79.78438L265.59686 79.78438L265.59686 80.7375Q265.9875 80.175 266.4875 79.90938Q266.9875 79.62813 267.70624 79.62813Q268.6281 79.62813 269.33124 80.1125Q270.05 80.58125 270.40936 81.45625Q270.76874 82.33125 270.76874 83.3625Q270.76874 84.47188 270.3625 85.37813Q269.97186 86.26875 269.20624 86.75313Q268.45624 87.22188 267.6125 87.22188Q267.0031 87.22188 266.5031 86.95625Q266.01874 86.69063 265.70624 86.3L265.70624 89.83125L264.47186 89.83125ZM265.58124 83.45625Q265.58124 84.8625 266.14374 85.53438Q266.72186 86.20625 267.53436 86.20625Q268.34686 86.20625 268.925 85.51875Q269.51874 84.81563 269.51874 83.3625Q269.51874 81.97188 268.9406 81.28438Q268.3781 80.59688 267.58124 80.59688Q266.8 80.59688 266.1906 81.33125Q265.58124 82.06563 265.58124 83.45625ZM277.20624 86.15938Q276.53436 86.7375 275.89374 86.9875Q275.26874 87.22188 274.53436 87.22188Q273.34686 87.22188 272.6906 86.64375Q272.05 86.05 272.05 85.12813Q272.05 84.59688 272.28436 84.15938Q272.53436 83.72188 272.925 83.45625Q273.33124 83.19063 273.8156 83.05Q274.175 82.95625 274.90936 82.8625Q276.40936 82.69063 277.1125 82.44063Q277.1125 82.19063 277.1125 82.12813Q277.1125 81.3625 276.76874 81.06563Q276.3 80.64375 275.3625 80.64375Q274.5031 80.64375 274.08124 80.95625Q273.675 81.25313 273.47186 82.01875L272.26874 81.8625Q272.425 81.08125 272.8 80.6125Q273.1906 80.14375 273.89374 79.89375Q274.6125 79.62813 275.55 79.62813Q276.47186 79.62813 277.05 79.84688Q277.6281 80.06563 277.89374 80.39375Q278.175 80.72188 278.28436 81.2375Q278.34686 81.55 278.34686 82.3625L278.34686 84.00313Q278.34686 85.72188 278.425 86.175Q278.5031 86.62813 278.7375 87.05L277.45624 87.05Q277.26874 86.65938 277.20624 86.15938ZM277.1125 83.40938Q276.4406 83.675 275.09686 83.87813Q274.34686 83.9875 274.01874 84.12813Q273.70624 84.25313 273.53436 84.51875Q273.3625 84.78438 273.3625 85.09688Q273.3625 85.59688 273.7375 85.925Q274.1125 86.25313 274.83124 86.25313Q275.55 86.25313 276.09686 85.94063Q276.64374 85.62813 276.90936 85.08125Q277.1125 84.675 277.1125 83.8625L277.1125 83.40938ZM284.53436 80.58125L284.1906 78.675L284.1906 77.03438L285.59686 77.03438L285.59686 78.675L285.28436 80.58125L284.53436 80.58125ZM286.8 80.58125L286.45624 78.675L286.45624 77.03438L287.8625 77.03438L287.8625 78.675L287.53436 80.58125L286.8 80.58125ZM289.64374 77.03438L296.1281 77.03438L296.1281 78.20625L290.97186 78.20625L290.97186 87.05L289.64374 87.05L289.64374 77.03438ZM297.01874 83.425Q297.01874 81.40938 298.14374 80.425Q299.0656 79.62813 300.425 79.62813Q301.90936 79.62813 302.8625 80.6125Q303.8156 81.58125 303.8156 83.31563Q303.8156 84.72188 303.39374 85.53438Q302.97186 86.33125 302.15936 86.78438Q301.3625 87.22188 300.425 87.22188Q298.89374 87.22188 297.95624 86.2375Q297.01874 85.25313 297.01874 83.425ZM298.28436 83.425Q298.28436 84.81563 298.89374 85.51875Q299.5031 86.20625 300.425 86.20625Q301.33124 86.20625 301.9406 85.50313Q302.55 84.8 302.55 83.37813Q302.55 82.03438 301.9406 81.34688Q301.33124 80.64375 300.425 80.64375Q299.5031 80.64375 298.89374 81.33125Q298.28436 82.01875 298.28436 83.425ZM306.4406 79.78438L311.5031 79.78438L311.5031 86.03438L312.28436 86.03438L312.28436 89.1125L311.28436 89.1125L311.28436 87.05L305.5656 87.05L305.5656 89.1125L304.55 89.1125L304.55 86.03438L305.20624 86.03438Q306.5031 84.26875 306.4406 79.78438ZM307.47186 80.81563Q307.33124 84.34688 306.3781 86.03438L310.28436 86.03438L310.28436 80.81563L307.47186 80.81563ZM313.53436 80.58125L313.1906 78.675L313.1906 77.03438L314.59686 77.03438L314.59686 78.675L314.28436 80.58125L313.53436 80.58125ZM315.8 80.58125L315.45624 78.675L315.45624 77.03438L316.8625 77.03438L316.8625 78.675L316.53436 80.58125L315.8 80.58125Z" fill-rule="nonzero"/><path fill="#757575" d="M20.1125 23.2375L31.378124 23.2375L31.378124 37.55L29.471874 37.55L29.471874 24.925L22.003124 24.925L22.003124 37.55L20.1125 37.55L20.1125 23.2375ZM33.8625 41.51875L33.8625 27.175L35.471874 27.175L35.471874 28.51875Q36.034374 27.7375 36.7375 27.346874Q37.45625 26.940624 38.471874 26.940624Q39.8 26.940624 40.815624 27.628124Q41.83125 28.315624 42.346874 29.565624Q42.878124 30.8 42.878124 32.284374Q42.878124 33.878124 42.3 35.159374Q41.7375 36.425 40.64375 37.1125Q39.55 37.784374 38.346874 37.784374Q37.471874 37.784374 36.76875 37.409374Q36.08125 37.034374 35.628124 36.471874L35.628124 41.51875L33.8625 41.51875ZM35.45625 32.425Q35.45625 34.425 36.26875 35.378124Q37.08125 36.33125 38.2375 36.33125Q39.409374 36.33125 40.2375 35.346874Q41.08125 34.3625 41.08125 32.26875Q41.08125 30.3 40.253124 29.315624Q39.440624 28.315624 38.315624 28.315624Q37.190624 28.315624 36.315624 29.378124Q35.45625 30.425 35.45625 32.425ZM44.8625 27.175L46.628124 27.175L46.628124 35.08125L51.503124 27.175L53.39375 27.175L53.39375 37.55L51.64375 37.55L51.64375 29.690624L46.76875 37.55L44.8625 37.55L44.8625 27.175ZM55.878124 27.175L59.925 27.175Q61.425 27.175 62.14375 27.425Q62.878124 27.675 63.39375 28.346874Q63.925 29.003124 63.925 29.925Q63.925 30.675 63.6125 31.2375Q63.315624 31.784374 62.690624 32.14375Q63.425 32.39375 63.909374 33.065624Q64.39375 33.7375 64.39375 34.64375Q64.3 36.128124 63.33125 36.846874Q62.378124 37.55 60.55 37.55L55.878124 37.55L55.878124 27.175ZM57.64375 31.55L59.51875 31.55Q60.628124 31.55 61.05 31.440624Q61.471874 31.315624 61.8 30.95625Q62.14375 30.596874 62.14375 30.096874Q62.14375 29.284374 61.55 28.95625Q60.971874 28.628124 59.565624 28.628124L57.64375 28.628124L57.64375 31.55ZM57.64375 36.096874L59.95625 36.096874Q61.440624 36.096874 62.003124 35.753124Q62.565624 35.409374 62.58125 34.565624Q62.58125 34.065624 62.253124 33.64375Q61.940624 33.20625 61.425 33.096874Q60.909374 32.9875 59.76875 32.9875L57.64375 32.9875L57.64375 36.096874ZM67.72188 27.175L75.89375 27.175L75.89375 37.55L74.14375 37.55L74.14375 28.628124L69.4875 28.628124L69.4875 33.8Q69.4875 35.6125 69.3625 36.190624Q69.25313 36.753124 68.72188 37.190624Q68.19063 37.6125 67.20625 37.6125Q66.58125 37.6125 65.78438 37.534374L65.78438 36.08125L66.55 36.08125Q67.09688 36.08125 67.33125 35.971874Q67.56563 35.846874 67.64375 35.6125Q67.72188 35.3625 67.72188 34.01875L67.72188 27.175ZM85.97188 34.20625L87.78438 34.440624Q87.3625 36.01875 86.19063 36.909374Q85.03438 37.784374 83.22188 37.784374Q80.95625 37.784374 79.6125 36.39375Q78.28438 34.9875 78.28438 32.45625Q78.28438 29.83125 79.62813 28.39375Q80.97188 26.940624 83.12813 26.940624Q85.20625 26.940624 86.51875 28.3625Q87.84688 29.76875 87.84688 32.346874Q87.84688 32.503124 87.83125 32.815624L80.09688 32.815624Q80.19063 34.51875 81.06563 35.425Q81.94063 36.33125 83.2375 36.33125Q84.20625 36.33125 84.87813 35.83125Q85.56563 35.315624 85.97188 34.20625ZM80.19063 31.3625L85.9875 31.3625Q85.87813 30.065624 85.33125 29.409374Q84.4875 28.39375 83.14375 28.39375Q81.94063 28.39375 81.1125 29.20625Q80.28438 30.003124 80.19063 31.3625ZM89.22188 27.175L90.9875 27.175L90.9875 29.14375Q90.9875 30.409374 91.12813 30.9875Q91.28438 31.55 91.8625 31.9875Q92.44063 32.409374 93.3 32.409374Q94.3 32.409374 95.87813 31.878124L95.87813 27.175L97.64375 27.175L97.64375 37.55L95.87813 37.55L95.87813 33.3625Q94.26875 33.878124 92.8625 33.878124Q91.675 33.878124 90.76875 33.284374Q89.8625 32.675 89.53438 31.815624Q89.22188 30.940624 89.22188 29.89375L89.22188 27.175ZM106.97188 34.20625L108.78438 34.440624Q108.3625 36.01875 107.19063 36.909374Q106.03438 37.784374 104.22188 37.784374Q101.95625 37.784374 100.6125 36.39375Q99.28438 34.9875 99.28438 32.45625Q99.28438 29.83125 100.62813 28.39375Q101.97188 26.940624 104.12813 26.940624Q106.20625 26.940624 107.51875 28.3625Q108.84688 29.76875 108.84688 32.346874Q108.84688 32.503124 108.83125 32.815624L101.09688 32.815624Q101.19063 34.51875 102.06563 35.425Q102.94063 36.33125 104.2375 36.33125Q105.20625 36.33125 105.87813 35.83125Q106.56563 35.315624 106.97188 34.20625ZM101.19063 31.3625L106.9875 31.3625Q106.87813 30.065624 106.33125 29.409374Q105.4875 28.39375 104.14375 28.39375Q102.94063 28.39375 102.1125 29.20625Q101.28438 30.003124 101.19063 31.3625ZM110.87813 27.175L112.64375 27.175L112.64375 31.4875L117.50313 31.4875L117.50313 27.175L119.26875 27.175L119.26875 37.55L117.50313 37.55L117.50313 32.95625L112.64375 32.95625L112.64375 37.55L110.87813 37.55L110.87813 27.175ZM121.8625 27.175L123.62813 27.175L123.62813 35.08125L128.50313 27.175L130.39375 27.175L130.39375 37.55L128.64375 37.55L128.64375 29.690624L123.76875 37.55L121.8625 37.55L121.8625 27.175ZM139.97188 34.20625L141.78438 34.440624Q141.3625 36.01875 140.19063 36.909374Q139.03438 37.784374 137.22188 37.784374Q134.95625 37.784374 133.6125 36.39375Q132.28438 34.9875 132.28438 32.45625Q132.28438 29.83125 133.62813 28.39375Q134.97188 26.940624 137.12813 26.940624Q139.20625 26.940624 140.51875 28.3625Q141.84688 29.76875 141.84688 32.346874Q141.84688 32.503124 141.83125 32.815624L134.09688 32.815624Q134.19063 34.51875 135.06563 35.425Q135.94063 36.33125 137.2375 36.33125Q138.20625 36.33125 138.87813 35.83125Q139.56563 35.315624 139.97188 34.20625ZM134.19063 31.3625L139.9875 31.3625Q139.87813 30.065624 139.33125 29.409374Q138.4875 28.39375 137.14375 28.39375Q135.94063 28.39375 135.1125 29.20625Q134.28438 30.003124 134.19063 31.3625ZM149.925 27.175L152.65938 27.175L155.37813 35.471874L158.40938 27.175L160.94063 27.175L160.94063 37.55L159.175 37.55L159.175 29.20625L156.1125 37.55L154.53438 37.55L151.64375 28.8L151.64375 37.55L149.925 37.55L149.925 27.175ZM163.22188 32.3625Q163.22188 29.4875 164.81563 28.096874Q166.15938 26.940624 168.08125 26.940624Q170.22188 26.940624 171.56563 28.346874Q172.925 29.753124 172.925 32.221874Q172.925 34.221874 172.33125 35.378124Q171.7375 36.51875 170.58125 37.159374Q169.44063 37.784374 168.08125 37.784374Q165.89375 37.784374 164.55 36.39375Q163.22188 34.9875 163.22188 32.3625ZM165.01875 32.3625Q165.01875 34.3625 165.87813 35.346874Q166.75313 36.33125 168.08125 36.33125Q169.39375 36.33125 170.25313 35.346874Q171.12813 34.346874 171.12813 32.3Q171.12813 30.378124 170.25313 29.39375Q169.37813 28.39375 168.08125 28.39375Q166.75313 28.39375 165.87813 29.39375Q165.01875 30.378124 165.01875 32.3625ZM175.72188 27.175L183.89375 27.175L183.89375 37.55L182.14375 37.55L182.14375 28.628124L177.4875 28.628124L177.4875 33.8Q177.4875 35.6125 177.3625 36.190624Q177.25313 36.753124 176.72188 37.190624Q176.19063 37.6125 175.20625 37.6125Q174.58125 37.6125 173.78438 37.534374L173.78438 36.08125L174.55 36.08125Q175.09688 36.08125 175.33125 35.971874Q175.56563 35.846874 175.64375 35.6125Q175.72188 35.3625 175.72188 34.01875L175.72188 27.175ZM186.22188 32.3625Q186.22188 29.4875 187.81563 28.096874Q189.15938 26.940624 191.08125 26.940624Q193.22188 26.940624 194.56563 28.346874Q195.925 29.753124 195.925 32.221874Q195.925 34.221874 195.33125 35.378124Q194.7375 36.51875 193.58125 37.159374Q192.44063 37.784374 191.08125 37.784374Q188.89375 37.784374 187.55 36.39375Q186.22188 34.9875 186.22188 32.3625ZM188.01875 32.3625Q188.01875 34.3625 188.87813 35.346874Q189.75313 36.33125 191.08125 36.33125Q192.39375 36.33125 193.25313 35.346874Q194.12813 34.346874 194.12813 32.3Q194.12813 30.378124 193.25313 29.39375Q192.37813 28.39375 191.08125 28.39375Q189.75313 28.39375 188.87813 29.39375Q188.01875 30.378124 188.01875 32.3625ZM199.25313 27.175L206.4875 27.175L206.4875 36.096874L207.6125 36.096874L207.6125 40.4875L206.15938 40.4875L206.15938 37.55L198.00313 37.55L198.00313 40.4875L196.55 40.4875L196.55 36.096874L197.47188 36.096874Q199.33125 33.58125 199.25313 27.175ZM200.72188 28.628124Q200.51875 33.675 199.15938 36.096874L204.7375 36.096874L204.7375 28.628124L200.72188 28.628124ZM219.7375 27.175L221.50313 27.175L221.50313 37.55L219.7375 37.55L219.7375 27.175ZM209.90938 27.175L211.65938 27.175L211.65938 31.2375L213.89375 31.2375Q216.06563 31.2375 217.2375 32.08125Q218.425 32.925 218.425 34.409374Q218.425 35.70625 217.44063 36.628124Q216.45625 37.55 214.3 37.55L209.90938 37.55L209.90938 27.175ZM211.65938 36.096874L213.51875 36.096874Q215.175 36.096874 215.89375 35.690624Q216.6125 35.284374 216.6125 34.409374Q216.6125 33.7375 216.08125 33.221874Q215.55 32.690624 213.75313 32.690624L211.65938 32.690624L211.65938 36.096874ZM222.69063 37.55L226.4875 32.159374L222.9875 27.175L225.175 27.175L226.76875 29.6125Q227.22188 30.3 227.4875 30.76875Q227.925 30.128124 228.28438 29.628124L230.03438 27.175L232.12813 27.175L228.55 32.065624L232.40938 37.55L230.25313 37.55L228.1125 34.33125L227.55 33.45625L224.83125 37.55L222.69063 37.55ZM246.64375 33.753124L248.3625 33.971874Q248.08125 35.76875 246.90938 36.784374Q245.75313 37.784374 244.05 37.784374Q241.925 37.784374 240.62813 36.39375Q239.33125 35.003124 239.33125 32.409374Q239.33125 30.721874 239.87813 29.471874Q240.44063 28.20625 241.58125 27.58125Q242.72188 26.940624 244.06563 26.940624Q245.75313 26.940624 246.81563 27.8Q247.89375 28.659374 248.20625 30.221874L246.4875 30.4875Q246.25313 29.440624 245.62813 28.925Q245.00313 28.39375 244.12813 28.39375Q242.8 28.39375 241.97188 29.346874Q241.14375 30.3 241.14375 32.346874Q241.14375 34.440624 241.94063 35.39375Q242.7375 36.33125 244.03438 36.33125Q245.06563 36.33125 245.75313 35.70625Q246.45625 35.065624 246.64375 33.753124ZM249.87813 27.175L258.0656 27.175L258.0656 37.55L256.3 37.55L256.3 28.628124L251.64375 28.628124L251.64375 37.55L249.87813 37.55L249.87813 27.175ZM267.97186 34.20625L269.78436 34.440624Q269.3625 36.01875 268.1906 36.909374Q267.03436 37.784374 265.22186 37.784374Q262.95624 37.784374 261.6125 36.39375Q260.28436 34.9875 260.28436 32.45625Q260.28436 29.83125 261.6281 28.39375Q262.97186 26.940624 265.1281 26.940624Q267.20624 26.940624 268.51874 28.3625Q269.84686 29.76875 269.84686 32.346874Q269.84686 32.503124 269.83124 32.815624L262.09686 32.815624Q262.1906 34.51875 263.0656 35.425Q263.9406 36.33125 265.2375 36.33125Q266.20624 36.33125 266.8781 35.83125Q267.5656 35.315624 267.97186 34.20625ZM262.1906 31.3625L267.9875 31.3625Q267.8781 30.065624 267.33124 29.409374Q266.4875 28.39375 265.14374 28.39375Q263.9406 28.39375 263.1125 29.20625Q262.28436 30.003124 262.1906 31.3625ZM271.89374 27.175L273.65936 27.175L273.65936 36.096874L278.51874 36.096874L278.51874 27.175L280.28436 27.175L280.28436 36.096874L281.40936 36.096874L281.40936 40.4875L279.97186 40.4875L279.97186 37.55L271.89374 37.55L271.89374 27.175ZM282.8625 27.175L284.6281 27.175L284.6281 35.08125L289.5031 27.175L291.39374 27.175L291.39374 37.55L289.64374 37.55L289.64374 29.690624L284.76874 37.55L282.8625 37.55L282.8625 27.175ZM300.64374 36.26875Q299.65936 37.096874 298.7531 37.440624Q297.84686 37.784374 296.8156 37.784374Q295.1125 37.784374 294.1906 36.95625Q293.26874 36.1125 293.26874 34.815624Q293.26874 34.05 293.6125 33.425Q293.97186 32.8 294.53436 32.425Q295.09686 32.034374 295.8 31.83125Q296.3156 31.70625 297.3625 31.565624Q299.4875 31.315624 300.4875 30.971874Q300.5031 30.6125 300.5031 30.503124Q300.5031 29.440624 300.0031 28.9875Q299.33124 28.39375 298.0031 28.39375Q296.7531 28.39375 296.15936 28.83125Q295.58124 29.26875 295.3 30.378124L293.58124 30.14375Q293.8156 29.034374 294.34686 28.3625Q294.8781 27.675 295.89374 27.315624Q296.90936 26.940624 298.2531 26.940624Q299.58124 26.940624 300.40936 27.253124Q301.2375 27.565624 301.6281 28.05Q302.01874 28.51875 302.175 29.2375Q302.26874 29.690624 302.26874 30.8625L302.26874 33.20625Q302.26874 35.659374 302.3781 36.315624Q302.4875 36.95625 302.83124 37.55L300.9875 37.55Q300.72186 37.003124 300.64374 36.26875ZM300.4875 32.346874Q299.53436 32.7375 297.6125 33.003124Q296.53436 33.159374 296.08124 33.3625Q295.64374 33.55 295.39374 33.925Q295.14374 34.3 295.14374 34.76875Q295.14374 35.471874 295.675 35.940624Q296.20624 36.409374 297.2375 36.409374Q298.2531 36.409374 299.03436 35.971874Q299.83124 35.51875 300.20624 34.753124Q300.4875 34.14375 300.4875 32.9875L300.4875 32.346874ZM305.72186 27.175L313.89374 27.175L313.89374 37.55L312.14374 37.55L312.14374 28.628124L307.4875 28.628124L307.4875 33.8Q307.4875 35.6125 307.3625 36.190624Q307.2531 36.753124 306.72186 37.190624Q306.1906 37.6125 305.20624 37.6125Q304.58124 37.6125 303.78436 37.534374L303.78436 36.08125L304.55 36.08125Q305.09686 36.08125 305.33124 35.971874Q305.5656 35.846874 305.64374 35.6125Q305.72186 35.3625 305.72186 34.01875L305.72186 27.175ZM316.8625 27.175L318.6281 27.175L318.6281 35.08125L323.5031 27.175L325.39374 27.175L325.39374 37.55L323.64374 37.55L323.64374 29.690624L318.76874 37.55L316.8625 37.55L316.8625 27.175ZM334.64374 33.753124L336.3625 33.971874Q336.08124 35.76875 334.90936 36.784374Q333.7531 37.784374 332.05 37.784374Q329.925 37.784374 328.6281 36.39375Q327.33124 35.003124 327.33124 32.409374Q327.33124 30.721874 327.8781 29.471874Q328.4406 28.20625 329.58124 27.58125Q330.72186 26.940624 332.0656 26.940624Q333.7531 26.940624 334.8156 27.8Q335.89374 28.659374 336.20624 30.221874L334.4875 30.4875Q334.2531 29.440624 333.6281 28.925Q333.0031 28.39375 332.1281 28.39375Q330.8 28.39375 329.97186 29.346874Q329.14374 30.3 329.14374 32.346874Q329.14374 34.440624 329.9406 35.39375Q330.7375 36.33125 332.03436 36.33125Q333.0656 36.33125 333.7531 35.70625Q334.45624 35.065624 334.64374 33.753124ZM336.925 27.175L345.34686 27.175L345.34686 28.628124L342.0031 28.628124L342.0031 37.55L340.26874 37.55L340.26874 28.628124L336.925 28.628124L336.925 27.175ZM346.22186 32.3625Q346.22186 29.4875 347.8156 28.096874Q349.15936 26.940624 351.08124 26.940624Q353.22186 26.940624 354.5656 28.346874Q355.925 29.753124 355.925 32.221874Q355.925 34.221874 355.33124 35.378124Q354.7375 36.51875 353.58124 37.159374Q352.4406 37.784374 351.08124 37.784374Q348.89374 37.784374 347.55 36.39375Q346.22186 34.9875 346.22186 32.3625ZM348.01874 32.3625Q348.01874 34.3625 348.8781 35.346874Q349.7531 36.33125 351.08124 36.33125Q352.39374 36.33125 353.2531 35.346874Q354.1281 34.346874 354.1281 32.3Q354.1281 30.378124 353.2531 29.39375Q352.3781 28.39375 351.08124 28.39375Q349.7531 28.39375 348.8781 29.39375Q348.01874 30.378124 348.01874 32.3625ZM357.8781 27.175L361.925 27.175Q363.425 27.175 364.14374 27.425Q364.8781 27.675 365.39374 28.346874Q365.925 29.003124 365.925 29.925Q365.925 30.675 365.6125 31.2375Q365.3156 31.784374 364.6906 32.14375Q365.425 32.39375 365.90936 33.065624Q366.39374 33.7375 366.39374 34.64375Q366.3 36.128124 365.33124 36.846874Q364.3781 37.55 362.55 37.55L357.8781 37.55L357.8781 27.175ZM359.64374 31.55L361.51874 31.55Q362.6281 31.55 363.05 31.440624Q363.47186 31.315624 363.8 30.95625Q364.14374 30.596874 364.14374 30.096874Q364.14374 29.284374 363.55 28.95625Q362.97186 28.628124 361.5656 28.628124L359.64374 28.628124L359.64374 31.55ZM359.64374 36.096874L361.95624 36.096874Q363.4406 36.096874 364.0031 35.753124Q364.5656 35.409374 364.58124 34.565624Q364.58124 34.065624 364.2531 33.64375Q363.9406 33.20625 363.425 33.096874Q362.90936 32.9875 361.76874 32.9875L359.64374 32.9875L359.64374 36.096874ZM374.8781 27.175L376.64374 27.175L376.64374 31.4875L381.5031 31.4875L381.5031 27.175L383.26874 27.175L383.26874 37.55L381.5031 37.55L381.5031 32.95625L376.64374 32.95625L376.64374 37.55L374.8781 37.55L374.8781 27.175ZM392.64374 36.26875Q391.65936 37.096874 390.7531 37.440624Q389.84686 37.784374 388.8156 37.784374Q387.1125 37.784374 386.1906 36.95625Q385.26874 36.1125 385.26874 34.815624Q385.26874 34.05 385.6125 33.425Q385.97186 32.8 386.53436 32.425Q387.09686 32.034374 387.8 31.83125Q388.3156 31.70625 389.3625 31.565624Q391.4875 31.315624 392.4875 30.971874Q392.5031 30.6125 392.5031 30.503124Q392.5031 29.440624 392.0031 28.9875Q391.33124 28.39375 390.0031 28.39375Q388.7531 28.39375 388.15936 28.83125Q387.58124 29.26875 387.3 30.378124L385.58124 30.14375Q385.8156 29.034374 386.34686 28.3625Q386.8781 27.675 387.89374 27.315624Q388.90936 26.940624 390.2531 26.940624Q391.58124 26.940624 392.40936 27.253124Q393.2375 27.565624 393.6281 28.05Q394.01874 28.51875 394.175 29.2375Q394.26874 29.690624 394.26874 30.8625L394.26874 33.20625Q394.26874 35.659374 394.3781 36.315624Q394.4875 36.95625 394.83124 37.55L392.9875 37.55Q392.72186 37.003124 392.64374 36.26875ZM392.4875 32.346874Q391.53436 32.7375 389.6125 33.003124Q388.53436 33.159374 388.08124 33.3625Q387.64374 33.55 387.39374 33.925Q387.14374 34.3 387.14374 34.76875Q387.14374 35.471874 387.675 35.940624Q388.20624 36.409374 389.2375 36.409374Q390.2531 36.409374 391.03436 35.971874Q391.83124 35.51875 392.20624 34.753124Q392.4875 34.14375 392.4875 32.9875L392.4875 32.346874ZM413.3156 32.534374L415.20624 33.003124Q414.6125 35.346874 413.0656 36.58125Q411.51874 37.8 409.26874 37.8Q406.95624 37.8 405.5031 36.8625Q404.0656 35.909374 403.3 34.128124Q402.55 32.33125 402.55 30.284374Q402.55 28.05 403.39374 26.39375Q404.2531 24.721874 405.83124 23.8625Q407.40936 22.9875 409.3 22.9875Q411.45624 22.9875 412.90936 24.08125Q414.3781 25.175 414.95624 27.159374L413.09686 27.596874Q412.59686 26.034374 411.64374 25.33125Q410.70624 24.6125 409.26874 24.6125Q407.6125 24.6125 406.5031 25.409374Q405.39374 26.190624 404.9406 27.534374Q404.5031 28.8625 404.5031 30.26875Q404.5031 32.096874 405.03436 33.471874Q405.5656 34.83125 406.6906 35.503124Q407.8156 36.175 409.1125 36.175Q410.70624 36.175 411.8156 35.253124Q412.925 34.33125 413.3156 32.534374ZM416.78436 41.55L416.59686 39.89375Q417.175 40.05 417.59686 40.05Q418.1906 40.05 418.53436 39.846874Q418.89374 39.659374 419.1125 39.315624Q419.28436 39.05 419.65936 38.003124Q419.70624 37.846874 419.8156 37.565624L415.8781 27.175L417.76874 27.175L419.925 33.190624Q420.34686 34.33125 420.675 35.58125Q420.9875 34.378124 421.39374 33.221874L423.6125 27.175L425.3781 27.175L421.425 37.721874Q420.8 39.440624 420.4406 40.08125Q419.97186 40.95625 419.3625 41.346874Q418.76874 41.753124 417.925 41.753124Q417.40936 41.753124 416.78436 41.55ZM426.8625 41.51875L426.8625 27.175L428.47186 27.175L428.47186 28.51875Q429.03436 27.7375 429.7375 27.346874Q430.45624 26.940624 431.47186 26.940624Q432.8 26.940624 433.8156 27.628124Q434.83124 28.315624 435.34686 29.565624Q435.8781 30.8 435.8781 32.284374Q435.8781 33.878124 435.3 35.159374Q434.7375 36.425 433.64374 37.1125Q432.55 37.784374 431.34686 37.784374Q430.47186 37.784374 429.76874 37.409374Q429.08124 37.034374 428.6281 36.471874L428.6281 41.51875L426.8625 41.51875ZM428.45624 32.425Q428.45624 34.425 429.26874 35.378124Q430.08124 36.33125 431.2375 36.33125Q432.40936 36.33125 433.2375 35.346874Q434.08124 34.3625 434.08124 32.26875Q434.08124 30.3 433.2531 29.315624Q432.4406 28.315624 431.3156 28.315624Q430.1906 28.315624 429.3156 29.378124Q428.45624 30.425 428.45624 32.425ZM437.8781 27.175L443.84686 27.175L443.84686 28.628124L439.64374 28.628124L439.64374 37.55L437.8781 37.55L437.8781 27.175ZM444.78436 41.55L444.59686 39.89375Q445.175 40.05 445.59686 40.05Q446.1906 40.05 446.53436 39.846874Q446.89374 39.659374 447.1125 39.315624Q447.28436 39.05 447.65936 38.003124Q447.70624 37.846874 447.8156 37.565624L443.8781 27.175L445.76874 27.175L447.925 33.190624Q448.34686 34.33125 448.675 35.58125Q448.9875 34.378124 449.39374 33.221874L451.6125 27.175L453.3781 27.175L449.425 37.721874Q448.8 39.440624 448.4406 40.08125Q447.97186 40.95625 447.3625 41.346874Q446.76874 41.753124 445.925 41.753124Q445.40936 41.753124 444.78436 41.55ZM453.925 27.175L462.34686 27.175L462.34686 28.628124L459.0031 28.628124L459.0031 37.55L457.26874 37.55L457.26874 28.628124L453.925 28.628124L453.925 27.175ZM470.64374 33.753124L472.3625 33.971874Q472.08124 35.76875 470.90936 36.784374Q469.7531 37.784374 468.05 37.784374Q465.925 37.784374 464.6281 36.39375Q463.33124 35.003124 463.33124 32.409374Q463.33124 30.721874 463.8781 29.471874Q464.4406 28.20625 465.58124 27.58125Q466.72186 26.940624 468.0656 26.940624Q469.7531 26.940624 470.8156 27.8Q471.89374 28.659374 472.20624 30.221874L470.4875 30.4875Q470.2531 29.440624 469.6281 28.925Q469.0031 28.39375 468.1281 28.39375Q466.8 28.39375 465.97186 29.346874Q465.14374 30.3 465.14374 32.346874Q465.14374 34.440624 465.9406 35.39375Q466.7375 36.33125 468.03436 36.33125Q469.0656 36.33125 469.7531 35.70625Q470.45624 35.065624 470.64374 33.753124ZM473.8625 27.175L475.6125 27.175L475.6125 31.659374Q476.45624 31.659374 476.78436 31.346874Q477.1281 31.01875 477.78436 29.45625Q478.3 28.2375 478.6125 27.846874Q478.9406 27.45625 479.3625 27.315624Q479.78436 27.175 480.72186 27.175L481.0656 27.175L481.0656 28.628124L480.58124 28.628124Q479.8781 28.628124 479.6906 28.83125Q479.4875 29.05 479.0656 30.1125Q478.65936 31.128124 478.33124 31.51875Q478.0031 31.909374 477.3 32.221874Q478.4406 32.534374 479.53436 34.33125L481.45624 37.55L479.51874 37.55L477.64374 34.33125Q477.0656 33.3625 476.6281 33.065624Q476.20624 32.753124 475.6125 32.753124L475.6125 37.55L473.8625 37.55L473.8625 27.175ZM482.78436 41.55L482.59686 39.89375Q483.175 40.05 483.59686 40.05Q484.1906 40.05 484.53436 39.846874Q484.89374 39.659374 485.1125 39.315624Q485.28436 39.05 485.65936 38.003124Q485.70624 37.846874 485.8156 37.565624L481.8781 27.175L483.76874 27.175L485.925 33.190624Q486.34686 34.33125 486.675 35.58125Q486.9875 34.378124 487.39374 33.221874L489.6125 27.175L491.3781 27.175L487.425 37.721874Q486.8 39.440624 486.4406 40.08125Q485.97186 40.95625 485.3625 41.346874Q484.76874 41.753124 483.925 41.753124Q483.40936 41.753124 482.78436 41.55ZM492.89374 27.175L494.64374 27.175L494.64374 31.51875L496.76874 31.51875Q497.0031 29.284374 498.15936 28.1125Q499.33124 26.940624 501.175 26.940624Q502.7375 26.940624 503.64374 27.58125Q504.5656 28.20625 505.14374 29.33125Q505.7375 30.440624 505.7375 32.33125Q505.7375 35.003124 504.51874 36.39375Q503.3 37.784374 501.20624 37.784374Q499.26874 37.784374 498.09686 36.503124Q496.925 35.20625 496.76874 32.95625L494.64374 32.95625L494.64374 37.55L492.89374 37.55L492.89374 27.175ZM501.26874 28.440624Q499.97186 28.440624 499.2531 29.440624Q498.55 30.425 498.55 32.20625Q498.55 34.346874 499.26874 35.346874Q499.9875 36.33125 501.20624 36.33125Q502.39374 36.33125 503.15936 35.409374Q503.9406 34.4875 503.9406 32.440624Q503.9406 30.440624 503.26874 29.440624Q502.6125 28.440624 501.26874 28.440624ZM514.1281 23.2375L523.3781 23.2375L523.3781 24.925L516.01874 24.925L516.01874 37.55L514.1281 37.55L514.1281 23.2375ZM525.09686 37.55L525.09686 23.2375L530.4875 23.2375Q531.925 23.2375 532.675 23.3625Q533.72186 23.55 534.4406 24.05Q535.15936 24.534374 535.58124 25.425Q536.01874 26.315624 536.01874 27.378124Q536.01874 29.20625 534.84686 30.471874Q533.6906 31.721874 530.65936 31.721874L526.9875 31.721874L526.9875 37.55L525.09686 37.55ZM526.9875 30.034374L530.6906 30.034374Q532.51874 30.034374 533.28436 29.3625Q534.0656 28.675 534.0656 27.425Q534.0656 26.534374 533.6125 25.89375Q533.15936 25.253124 532.425 25.05Q531.9406 24.925 530.64374 24.925L526.9875 24.925L526.9875 30.034374ZM542.65936 29.315624L542.65936 31.003124L547.9875 31.003124Q547.8781 33.425 546.64374 34.815624Q545.425 36.20625 543.4875 36.20625Q540.08124 36.20625 539.20624 32.565624L537.3781 33.05Q538.6281 37.8 543.3625 37.8Q546.7531 37.8 548.39374 35.6125Q550.05 33.425 549.95624 30.2375Q549.95624 28.284374 549.20624 26.675Q548.47186 25.065624 546.9406 24.034374Q545.425 22.9875 543.3156 22.9875Q541.09686 22.9875 539.59686 24.096874Q538.09686 25.190624 537.5656 27.159374L539.425 27.64375Q540.2375 24.64375 543.33124 24.64375Q545.425 24.64375 546.59686 25.909374Q547.78436 27.175 547.90936 29.315624L542.65936 29.315624ZM562.3156 32.534374L564.20624 33.003124Q563.6125 35.346874 562.0656 36.58125Q560.51874 37.8 558.26874 37.8Q555.95624 37.8 554.5031 36.8625Q553.0656 35.909374 552.3 34.128124Q551.55 32.33125 551.55 30.284374Q551.55 28.05 552.39374 26.39375Q553.2531 24.721874 554.83124 23.8625Q556.40936 22.9875 558.3 22.9875Q560.45624 22.9875 561.90936 24.08125Q563.3781 25.175 563.95624 27.159374L562.09686 27.596874Q561.59686 26.034374 560.64374 25.33125Q559.70624 24.6125 558.26874 24.6125Q556.6125 24.6125 555.5031 25.409374Q554.39374 26.190624 553.9406 27.534374Q553.5031 28.8625 553.5031 30.26875Q553.5031 32.096874 554.03436 33.471874Q554.5656 34.83125 555.6906 35.503124Q556.8156 36.175 558.1125 36.175Q559.70624 36.175 560.8156 35.253124Q561.925 34.33125 562.3156 32.534374ZM565.1906 33.253124L565.1906 31.4875L570.58124 31.4875L570.58124 33.253124L565.1906 33.253124Z" fill-rule="nonzero"/><path fill="#757575" d="M26.003124 61.55L24.2375 61.55L24.2375 50.346874Q23.6125 50.95625 22.58125 51.565624Q21.55 52.159374 20.721874 52.471874L20.721874 50.76875Q22.20625 50.08125 23.3 49.096874Q24.409374 48.096874 24.8625 47.175L26.003124 47.175L26.003124 61.55Z" fill-rule="nonzero"/></svg>