<svg xmlns="http://www.w3.org/2000/svg" width="354" height="213" viewBox="0 0 20.41 12.25" shape-rendering="geometricPrecision" text-rendering="geometricPrecision" image-rendering="optimizeQuality" fill-rule="evenodd" clip-rule="evenodd"><defs><style>.fil0{fill:#007dcc;fill-rule:nonzero}</style></defs><g id="Слой_x0020_1"><g id="_2514834151440"><path class="fil0" d="M14.62 5.1h2.32V.11h-1.53v3.65h-.67c-.49 0-.75-.16-.75-.78V.11h-1.53v2.87c0 1.45.69 2.12 2.16 2.12zM7.73 5.57H5.41v4.99h1.54V6.91h.67c.49 0 .74.16.74.78v2.87h1.53V7.69c0-1.45-.68-2.12-2.16-2.12zM11.95 5.1V.11h-1.54V1.9H8.95V.11H7.41V5.1h1.54V3.2h1.46v1.9zM17.92 9.42c-.69 0-.94-.57-.94-1.35 0-.78.25-1.35.94-1.35.69-.01.94.57.94 1.35 0 .78-.25 1.35-.94 1.35zm0-3.96c-1.69 0-2.48 1.1-2.48 2.61 0 1.5.79 2.6 2.48 2.6s2.49-1.1 2.49-2.6c0-1.51-.79-2.61-2.49-2.61zM4.53 3.96c-.69 0-.91-.57-.91-1.35 0-.79.22-1.36.91-1.36.69 0 .94.57.94 1.36 0 .78-.25 1.34-.94 1.35zm2.49-1.35C7.02 1.1 6.23 0 4.53 0 3.12 0 2.38.77 2.17 1.9h-.63V.11H0V5.1h1.54V3.2h.62c.17 1.19.91 2.01 2.37 2.01 1.69 0 2.49-1.1 2.49-2.6zM12.45 9.22h-.51V6.91h.51c.71 0 1.1.28 1.1 1.15 0 .87-.39 1.16-1.1 1.16zm.09-3.65h-2.13v6.68h1.53v-1.69h.6c1.67 0 2.58-.83 2.58-2.5s-.91-2.49-2.58-2.49z"/></g></g></svg>