<svg version="1.1" id="Layer_1" xmlns="http://www.w3.org/2000/svg" x="0" y="0" viewBox="0 0 174 119" xml:space="preserve"><style>.st0{fill-rule:evenodd;clip-rule:evenodd;fill:#0079c1}</style><path class="st0" d="M71.1 78.1H41.4v11.7c1.1 0 7.4-5.3 14.9 0s5.3 18-7.4 22.3c-6.4 2.1-11.7 2.1-17-1.1-13.8-5.3-20.2-25.5-5.3-38.2 5.3-4.2 8.5-4.2 13.8-5.3l1.1-30.8c-7.4-1.1-17 3.2-23.3 6.4-5.5 4.2-9.7 9.5-14 15.9-7.4 13.8-4.2 31.8 5.3 44.5 11.7 15.9 34 20.2 52 9.5 2.1-1.1 7.4-5.3 8.5-6.4 1.1-2 1.1-25.3 1.1-28.5z"/><path class="st0" d="M56.2 71.7C53 69.6 52 62.2 52 59c0-4.2 1.1-10.6 4.2-13.8 4.3 6.3 3.2 20.1 0 26.5zm-8.5-21.2c-1.1-8.5-1.1-15.9 0-24.4 1.1-4.2 5.3-18 8.5-20.2 1.1 3.2 3.2 6.4 4.2 9.5 3.2 8.5 6.4 27.6 3.2 34-1.1-1.1-1.1-6.4-1.1-9.5-1.1-5.3-4.2-18-7.4-21.2-2.1 3.2-4.2 10.6-5.3 13.8-1 6.3-2.1 11.6-2.1 18zm8.5 24.4c2.1-2.1 6.4-12.7 7.4-15.9 5.3-13.8 5.3-27.6 0-42.4-1.1-4.2-5.3-12.7-7.4-15.9-7.4 8.5-11.7 25.5-11.7 37.1 0 7.4 1.1 13.8 3.2 20.2 1.1 5.2 4.3 13.7 8.5 16.9zM84.9 82.3c2.1-2.1 2.1 5.3 2.1 6.4 0 4.2 0 24.4-1.1 25.5-2.1 1.1-2.1-5.3-2.1-6.4 0-4.3 0-24.4 1.1-25.5zm-4.3-4.2c-5.3 1.1-4.2 6.4-4.2 10.6v14.9c0 3.2-1.1 10.6 1.1 13.8 2.1 2.1 10.6 2.1 13.8 1.1 4.2-1.1 4.2-7.4 4.2-10.6V93c0-4.2 0-10.6-2.1-13.8-2.2-2.2-9.6-2.2-12.8-1.1zM118.8 118.4h8.5c-1.1-2.1-1.1-17 0-18 0 1.1 1.1 7.4 2.1 8.5l1.1 8.5c1.1 2.1 3.2 1.1 8.5 1.1-1.1-6.4-4.2-13.8-5.3-20.2 0-3.2 4.2-15.9 4.2-20.2h-8.5l-2.1 17c-1.1-1.1-1.1-14.9 0-17h-8.5v40.3zM154.9 89.7h8.5c0-2.1-1.1-5.3 0-7.4 3.2 0 2.1 2.1 2.1 3.2 0 6.4 1.1 9.5-4.2 14.9-5.3 6.4-6.4 9.5-6.4 18H174v-4.2h-10.6c-1.1-4.2 4.2-9.5 6.4-12.7 4.2-5.3 4.2-8.5 4.2-15.9 0-8.5-4.2-7.4-11.7-7.4-8.5-.1-7.4 4.1-7.4 11.5zM99.7 118.4h7.5V82.3h7.4v-4.2H99.7zM140 102.5v1h9.6v-5.3l-9.6-1z"/></svg>