<svg xmlns="http://www.w3.org/2000/svg" width="219" height="69" viewBox="0 0 2.5 0.78" shape-rendering="geometricPrecision" text-rendering="geometricPrecision" image-rendering="optimizeQuality" fill-rule="evenodd" clip-rule="evenodd"><defs><style>.fil0{fill:#005b9c;fill-rule:nonzero}</style></defs><g id="Слой_x0020_1"><g id="_2767563976352"><path class="fil0" d="M1 .59v.16H.97V.59H.93V.57h.11v.02H1zm.15-.02h.03l.01.01c.01.01.01.01.01.02.01.01.01.01.01.02v.07c0 .02-.01.04-.02.05-.01 0-.02.01-.04.01h-.02L1.11.73s0-.01-.01-.01V.67h-.02v.08h-.03V.57h.03v.07h.02V.62.6c.01-.01.01-.01.01-.02.01 0 .01-.01.02-.01h.02zm0 .02s0 .01-.01.01l-.01.01v.08c0 .01 0 .02.01.02 0 .01.01.01.01.01h.02c.01-.01.01-.02.01-.02V.62.61s-.01 0-.01-.01c-.01 0-.01-.01-.02-.01zm.2.16V.64l-.02.04-.01.04H1.3L1.28.67 1.27.64h-.01v.11h-.03V.57h.03l.03.06.02.04.01-.04.03-.06h.03v.18h-.03zm.06 0V.57h.1V.6h-.07v.04h.06v.03h-.06v.05h.07v.03h-.1zm.2 0V.67h-.05v.08h-.03V.57h.03v.07h.05V.57h.03v.18h-.03zm.17-.06c0 .02 0 .03-.01.04-.01.01-.02.02-.04.02h-.06V.57h.03v.07h.05c.01.01.02.01.02.01 0 .01.01.01.01.02v.02zm-.03 0V.67H1.7v.05h.03c.01 0 .01 0 .02-.01V.69zM1.04.26c0 .01-.01.01-.02.01H.99V.2h.05c.01.01.01.02.01.03 0 .01 0 .02-.01.03zm.05-.1c-.01 0-.02-.01-.03-.01-.01-.01-.03-.01-.04-.01H.93v.29h.06V.32h.07c.01-.01.02-.01.03-.02.01-.01.01-.02.02-.03V.23c0-.01 0-.03-.01-.04 0-.01-.01-.02-.01-.03zM1.28.34c0 .01 0 .02-.01.02-.01.01-.01.01-.02.01s-.02 0-.03-.01V.23.22.21L1.23.2h.03c.01 0 .01.01.01.01.01 0 .01.01.01.01v.12zm.04-.17C1.31.16 1.3.15 1.29.15 1.28.14 1.26.14 1.25.14c-.02 0-.03 0-.04.01-.02 0-.03.01-.03.02-.01.01-.02.02-.02.03v.17c0 .01.01.02.02.03 0 .01.01.02.03.02.01.01.02.01.04.01.01 0 .02 0 .04-.01.01 0 .02-.01.02-.01.01-.01.02-.02.02-.03.01-.01.01-.03.01-.04V.23c0-.01 0-.02-.01-.03 0-.01 0-.02-.01-.03zM1.46.22V.21L1.47.2h.03c.01 0 .01 0 .02.01v.02l.06-.02c0-.01 0-.02-.01-.03L1.55.16 1.53.14h-.04c-.02 0-.03 0-.04.01-.01 0-.02.01-.03.02-.01.01-.01.02-.02.03v.17c.01.01.01.02.02.03.01.01.02.02.03.02.01.01.02.01.04.01s.04-.01.06-.02c.02-.01.03-.03.03-.05L1.52.34c0 .01 0 .02-.01.02 0 .01-.01.01-.02.01s-.02 0-.03-.01V.23.22zM1.69.22c0-.01.01-.01.01-.01 0-.01 0-.01.01-.01h.03s.01 0 .01.01v.01c.01 0 .01.01.01.01l.05-.02c0-.01 0-.02-.01-.03 0 0-.01-.01-.01-.02-.01-.01-.02-.01-.03-.02h-.04c-.01 0-.03 0-.04.01-.01 0-.02.01-.03.02-.01.01-.01.02-.01.03-.01.01-.01.02-.01.03v.1c0 .02 0 .03.01.04 0 .01 0 .02.01.03.01.01.02.02.03.02.01.01.03.01.04.01.03 0 .05-.01.06-.02.02-.01.03-.03.03-.05L1.76.34c-.01.01-.01.02-.02.02 0 .01-.01.01-.02.01S1.7.37 1.7.36c-.01 0-.01-.01-.01-.02V.23.22zM1.87.43h.17V.37h-.11V.31h.09V.26h-.09V.2h.11V.14h-.17zM2.07.2h.06v.23h.06V.2h.06V.14h-.18zM2.44.14l-.08.17V.14H2.3v.29h.06l.08-.16v.16h.06V.14zM.47.24L.24.76c.05.01.1.02.15.02.05 0 .1-.01.15-.02L.48.24H.47zM.45.22L.02.5C.05.6.11.69.2.74L.45.23V.22zM.5.23l.08.51C.67.69.74.6.77.5L.51.23H.5zM.45.14L.37 0C.26.01.17.06.1.13l.33.04C.44.16.44.15.45.14zM.71.17L.54.19C.54.2.53.21.53.21l.25.24C.78.43.79.41.79.39A.35.35 0 00.71.17zM.43.19L.07.17A.34.34 0 000 .39c0 .02 0 .05.01.07L.44.2C.43.2.43.2.43.19zM.49.13c.02 0 .04.02.04.03L.68.13A.365.365 0 00.42 0l.05.13h.02z"/></g></g></svg>