<svg xmlns="http://www.w3.org/2000/svg" width="531" height="136" viewBox="0 0 19.79 5.06" shape-rendering="geometricPrecision" text-rendering="geometricPrecision" image-rendering="optimizeQuality" fill-rule="evenodd" clip-rule="evenodd"><defs><linearGradient id="b" gradientUnits="userSpaceOnUse" x1="17.09" y1="4.82" x2="16.66" y2="1.71"><stop offset="0" stop-color="#203050"/><stop offset="1" stop-color="#141f3b"/></linearGradient><linearGradient id="c" gradientUnits="userSpaceOnUse" x1="9.89" y1="-.54" x2="9.89" y2="8.61"><stop offset="0" stop-color="#9dcef0"/><stop offset="1" stop-color="#fefefe"/></linearGradient><clipPath id="a"><path d="M.03.03h19.73v5H.03v-5z"/></clipPath></defs><path fill="#141f3b" d="M.03.03h19.73v5H.03z"/><g clip-path="url(#a)"><path d="M19.76 5.03H.03s14.34.26 19.73-5v5z" fill="url(#b)"/></g><path fill="none" stroke="#fff" stroke-width=".06" stroke-miterlimit="22.93" d="M.03.03h19.73v5H.03z"/><path d="M1.55 3.88V1.51h.52v-.35H1.2v2.72h.35zM1.24 1.2h.8v.27l-.16-.16h-.51l-.13-.11zm.15.16l.12.11v2.37l-.12-.12V1.36zm.92 2.29c0 .12.11.23.23.23h.53c.13 0 .23-.11.23-.23V1.39c0-.12-.1-.23-.23-.23h-.53a.24.24 0 00-.23.23v2.26zm.64-.12h-.29V1.51h.29v2.02zM2.5 1.46c0-.05.02-.08.03-.08l.09.09v2.1h.37l.09.08-.06.03h-.4c-.06 0-.12-.05-.12-.11V1.46zm.65-.03a.13.13 0 00-.12-.12H2.6c-.06 0-.09.02-.11.03l-.09-.08a.21.21 0 01.16-.06h.5c.12 0 .2.09.2.2v2.24a.2.2 0 01-.05.14l-.09-.09a.16.16 0 00.03-.09V1.43zm.81.08h.3v.75h-.34v.35h.34v.92h-.3v-.24h-.35v.36c0 .12.11.23.24.23h.53c.12 0 .23-.11.23-.23V1.39c0-.12-.1-.23-.23-.23h-.53c-.13 0-.24.11-.24.23v.34h.35v-.22zm.4-.31c.14 0 .21.09.21.2v2.24a.2.2 0 01-.06.14l-.09-.09c.03-.03.03-.06.03-.09V2.41h-.37l-.12-.11h.49v-.87a.12.12 0 00-.12-.12H3.9a.17.17 0 00-.1.03l-.09-.08a.2.2 0 01.15-.06h.5zM4.3 3.57l.08.08c-.02.02-.03.03-.06.03h-.4a.11.11 0 01-.11-.11v-.08l-.16-.16h.27v.24h.38zm-.38-1.88l-.11-.12v-.11c0-.05.01-.08.02-.08l.09.09v.22zM5 1.39v2.14h-.16v.35h.27c.13 0 .24-.11.24-.23V1.51h.29v2.37h.35V1.16h-.76a.24.24 0 00-.23.23zm.95-.19v2.64l-.11-.12V1.35l-.04-.04h-.52c-.05 0-.08.02-.1.03l-.09-.08a.21.21 0 01.16-.06h.7zm-.76.26c0-.05.02-.08.02-.08l.1.09v2.17a.2.2 0 01-.06.14l-.09-.09a.16.16 0 00.03-.09V1.46zm-.13 2.22H5l-.12-.11h.16l.08.08c-.02.02-.03.03-.06.03zm1.17-2.52v2.72h.34V2.64h.42c.13 0 .23-.1.23-.23V1.39c0-.12-.1-.23-.23-.23h-.76zm.83.27a.12.12 0 00-.12-.12h-.56l-.12-.11h.72c.13 0 .2.09.2.2v1a.2.2 0 01-.06.15l-.09-.09c.03-.03.03-.07.03-.1v-.93zm-.19.86h-.3v-.78h.3v.78zm-.45-.93l.12.11v.86h.37l.08.09c-.01.02-.03.03-.06.03h-.51V1.36zm0 1.13l.12.11v1.24l-.12-.12V2.49zm1.03 1.16c0 .12.11.23.24.23h.52c.13 0 .24-.11.24-.23V1.39c0-.12-.1-.23-.24-.23h-.52c-.13 0-.24.11-.24.23v2.26zm.65-.12h-.3V1.51h.3v2.02zm-.45-2.07c0-.05.01-.08.02-.08l.09.09v2.1h.38l.08.08c-.02.02-.03.03-.06.03h-.4a.11.11 0 01-.11-.11V1.46zm.64-.03a.12.12 0 00-.12-.12h-.43a.17.17 0 00-.1.03l-.09-.08a.2.2 0 01.15-.06h.5a.2.2 0 01.21.2v2.24a.2.2 0 01-.06.14l-.09-.09a.16.16 0 00.03-.09V1.43zM10.32 4h.35V1.28h-.35l-.15.15v.2h.15V4zm.04-2.69h.27v2.65l-.11-.12V1.46l-.16-.15zm.62 2.46c0 .12.11.23.23.23h.53c.13 0 .24-.11.24-.23V1.51c0-.13-.1-.23-.24-.23h-.53c-.12 0-.23.1-.23.23v2.26zm.65-1.94l-.3.7v-.9h.3v.2zm-.45 1.5l.6-1.32-.12.54-.37.83v.3h.38l.08.09c-.02.02-.03.03-.06.03h-.4c-.06 0-.11-.05-.11-.12v-.35zm.64-1.78a.12.12 0 00-.12-.12h-.43c-.06 0-.09.01-.11.03l-.08-.08a.21.21 0 01.15-.07h.5a.2.2 0 01.21.21v2.23a.2.2 0 01-.06.15l-.09-.09a.16.16 0 00.03-.09V1.55zm-.49 1.85l.3-.67v.92h-.3V3.4zm-.15-1.83c0-.05.01-.07.02-.08l.09.1v1.03l-.11.27V1.57zm1.11 2.2c0 .12.11.23.23.23h.53c.13 0 .23-.11.23-.23V1.51c0-.13-.1-.23-.23-.23h-.53c-.12 0-.23.1-.23.23v2.26zm.64-1.94l-.29.7v-.9h.29v.2zm-.45 1.5l.61-1.32-.12.54-.37.83v.3h.37l.09.09a.09.09 0 01-.07.03h-.39a.12.12 0 01-.12-.12v-.35zm.65-1.78a.13.13 0 00-.12-.12h-.43c-.06 0-.09.01-.11.03l-.09-.08a.22.22 0 01.16-.07h.5c.12 0 .2.09.2.21v2.23c0 .07-.02.12-.05.15l-.09-.09a.16.16 0 00.03-.09V1.55zm-.49 1.85l.29-.67v.92h-.29V3.4zm-.16-1.83c0-.05.02-.07.03-.08l.09.1v1.03l-.12.27V1.57zm2.85-.18v2.14h-.15v.35h.27c.13 0 .23-.11.23-.23V1.51h.3v2.37h.35V1.16h-.77a.24.24 0 00-.23.23zm.96-.19v2.64l-.12-.12V1.35l-.04-.04h-.51c-.06 0-.09.02-.11.03l-.09-.08c.05-.04.1-.06.16-.06h.71zm-.77.26c0-.05.02-.08.03-.08l.09.09v2.17a.2.2 0 01-.06.14l-.09-.09c.03-.03.03-.06.03-.09V1.46zm-.13 2.22h-.06l-.12-.11h.16l.08.08c-.01.02-.03.03-.06.03zm2.07-.15h-.55v-.92h.37v-.35h-.37v-.75h.52v-.35h-.87v2.72h.9v-.35zm-.71-1.03l.12.11v.96h.55v.27l-.15-.16h-.52V2.5zm0-1.14l.12.11v.83h.37v.27l-.16-.16h-.33V1.36zm-.15-.16h.79v.27l-.16-.16h-.5l-.13-.11zm1.33 2.68h.35V1.51h.31v-.35h-.97v.35h.31v2.37zm.19-2.53l.12.12v2.37l-.12-.12V1.35zm-.47-.15h.9v.27l-.16-.16h-.62l-.12-.11z" fill="url(#c)" fill-rule="nonzero"/></svg>