<?xml version="1.0" encoding="UTF-8"?>
<!DOCTYPE svg PUBLIC "-//W3C//DTD SVG 1.1//EN" "http://www.w3.org/Graphics/SVG/1.1/DTD/svg11.dtd">
<!-- Creator: CorelDRAW 2020 (64-Bit) -->
<svg xmlns="http://www.w3.org/2000/svg" xml:space="preserve" width="84px" height="141px" version="1.1" style="shape-rendering:geometricPrecision; text-rendering:geometricPrecision; image-rendering:optimizeQuality; fill-rule:evenodd; clip-rule:evenodd"
viewBox="0 0 0.81 1.35"
 xmlns:xlink="http://www.w3.org/1999/xlink"
 xmlns:xodm="http://www.corel.com/coreldraw/odm/2003">
 <defs>
  <style type="text/css">
   <![CDATA[
    .fil1 {fill:#1C283E}
    .fil6 {fill:url(#id0)}
    .fil11 {fill:url(#id1)}
    .fil8 {fill:url(#id2)}
    .fil15 {fill:url(#id3)}
    .fil3 {fill:url(#id4)}
    .fil16 {fill:url(#id5)}
    .fil14 {fill:url(#id6)}
    .fil13 {fill:url(#id7)}
    .fil10 {fill:url(#id8)}
    .fil12 {fill:url(#id9)}
    .fil2 {fill:url(#id10)}
    .fil5 {fill:url(#id11)}
    .fil7 {fill:url(#id12)}
    .fil9 {fill:url(#id13)}
    .fil4 {fill:url(#id14)}
    .fil0 {fill:url(#id15)}
   ]]>
  </style>
  <linearGradient id="id0" gradientUnits="userSpaceOnUse" x1="0.27" y1="0.34" x2="0.27" y2="0.53">
   <stop offset="0" style="stop-opacity:1; stop-color:#162033"/>
   <stop offset="1" style="stop-opacity:1; stop-color:white"/>
  </linearGradient>
  <linearGradient id="id1" gradientUnits="userSpaceOnUse" xlink:href="#id0" x1="0.32" y1="1.06" x2="0.32" y2="1.25">
  </linearGradient>
  <linearGradient id="id2" gradientUnits="userSpaceOnUse" xlink:href="#id0" x1="0.27" y1="0.55" x2="0.27" y2="0.73">
  </linearGradient>
  <linearGradient id="id3" gradientUnits="userSpaceOnUse" xlink:href="#id0" x1="0.36" y1="0.71" x2="0.36" y2="0.91">
  </linearGradient>
  <linearGradient id="id4" gradientUnits="userSpaceOnUse" xlink:href="#id0" x1="0.22" y1="0.1" x2="0.22" y2="0.28">
  </linearGradient>
  <linearGradient id="id5" gradientUnits="userSpaceOnUse" xlink:href="#id0" x1="0.29" y1="0.67" x2="0.29" y2="0.81">
  </linearGradient>
  <linearGradient id="id6" gradientUnits="userSpaceOnUse" xlink:href="#id0" x1="0.35" y1="0.81" x2="0.35" y2="1.01">
  </linearGradient>
  <linearGradient id="id7" gradientUnits="userSpaceOnUse" xlink:href="#id0" x1="0.35" y1="0.9" x2="0.35" y2="1.1">
  </linearGradient>
  <linearGradient id="id8" gradientUnits="userSpaceOnUse" xlink:href="#id0" x1="0.26" y1="1.11" x2="0.26" y2="1.32">
  </linearGradient>
  <linearGradient id="id9" gradientUnits="userSpaceOnUse" xlink:href="#id0" x1="0.34" y1="0.98" x2="0.34" y2="1.18">
  </linearGradient>
  <linearGradient id="id10" gradientUnits="userSpaceOnUse" xlink:href="#id0" x1="0.2" y1="0.03" x2="0.2" y2="0.21">
  </linearGradient>
  <linearGradient id="id11" gradientUnits="userSpaceOnUse" xlink:href="#id0" x1="0.25" y1="0.26" x2="0.25" y2="0.44">
  </linearGradient>
  <linearGradient id="id12" gradientUnits="userSpaceOnUse" xlink:href="#id0" x1="0.27" y1="0.44" x2="0.27" y2="0.62">
  </linearGradient>
  <linearGradient id="id13" gradientUnits="userSpaceOnUse" xlink:href="#id0" x1="0.27" y1="0.65" x2="0.27" y2="0.83">
  </linearGradient>
  <linearGradient id="id14" gradientUnits="userSpaceOnUse" xlink:href="#id0" x1="0.24" y1="0.18" x2="0.24" y2="0.36">
  </linearGradient>
  <linearGradient id="id15" gradientUnits="userSpaceOnUse" x1="0.1" y1="0.45" x2="-0.41" y2="0.45">
   <stop offset="0" style="stop-opacity:1; stop-color:#1C283E"/>
   <stop offset="1" style="stop-opacity:1; stop-color:#FEFEFE"/>
  </linearGradient>
 </defs>
 <g id="Слой_x0020_1">
  <metadata id="CorelCorpID_0Corel-Layer"/>
  <g id="_2137631892336">
   <rect class="fil0" width="0.72" height="1.35"/>
   <path class="fil1" d="M0.72 1.35l-0.72 0c0,0 0.1,-0.09 0.09,-0.5 0,-0.11 0,-0.23 0,-0.35 0,-0.23 -0.09,-0.5 -0.09,-0.5l0.72 0c0,0 0.1,0.27 0.09,0.5 0,0.12 0,0.24 0,0.35 0.01,0.41 -0.09,0.5 -0.09,0.5z"/>
   <rect class="fil2" x="0.05" y="0.03" width="0.66" height="0.05" rx="0.02" ry="0.02"/>
   <rect class="fil3" x="0.07" y="0.1" width="0.66" height="0.05" rx="0.02" ry="0.02"/>
   <rect class="fil4" x="0.09" y="0.18" width="0.66" height="0.05" rx="0.02" ry="0.02"/>
   <rect class="fil5" x="0.1" y="0.26" width="0.66" height="0.05" rx="0.02" ry="0.02"/>
   <rect class="fil6" x="0.12" y="0.34" width="0.66" height="0.05" rx="0.02" ry="0.02"/>
   <rect class="fil7" x="0.12" y="0.44" width="0.66" height="0.05" rx="0.02" ry="0.02"/>
   <rect class="fil8" x="0.12" y="0.55" width="0.66" height="0.05" rx="0.02" ry="0.02"/>
   <rect class="fil9" x="0.12" y="0.65" width="0.66" height="0.05" rx="0.02" ry="0.02"/>
   <rect class="fil10" x="0.07" y="1.27" width="0.66" height="0.05" rx="0.02" ry="0.02"/>
   <rect class="fil11" x="0.09" y="1.2" width="0.66" height="0.05" rx="0.02" ry="0.02"/>
   <rect class="fil12" x="0.11" y="1.13" width="0.66" height="0.05" rx="0.02" ry="0.02"/>
   <rect class="fil13" x="0.12" y="1.05" width="0.66" height="0.05" rx="0.02" ry="0.02"/>
   <rect class="fil14" x="0.12" y="0.96" width="0.66" height="0.05" rx="0.02" ry="0.02"/>
   <rect class="fil15" x="0.12" y="0.86" width="0.66" height="0.05" rx="0.02" ry="0.02"/>
   <rect class="fil16" x="0.12" y="0.76" width="0.66" height="0.05" rx="0.02" ry="0.02"/>
  </g>
 </g>
</svg>
