<?xml version="1.0" encoding="UTF-8"?>
<!DOCTYPE svg PUBLIC "-//W3C//DTD SVG 1.1//EN" "http://www.w3.org/Graphics/SVG/1.1/DTD/svg11.dtd">
<!-- Creator: CorelDRAW 2020 (64-Bit) -->
<svg xmlns="http://www.w3.org/2000/svg" xml:space="preserve" width="1380px" height="571px" version="1.1" style="shape-rendering:geometricPrecision; text-rendering:geometricPrecision; image-rendering:optimizeQuality; fill-rule:evenodd; clip-rule:evenodd"
viewBox="0 0 631.41 261.45"
 xmlns:xlink="http://www.w3.org/1999/xlink"
 xmlns:xodm="http://www.corel.com/coreldraw/odm/2003">
 <defs>
  <style type="text/css">
   <![CDATA[
    .fil0 {fill:#0089CF}
    .fil1 {fill:#FEFEFE;fill-rule:nonzero}
   ]]>
  </style>
 </defs>
 <g id="Слой_x0020_1">
  <metadata id="CorelCorpID_0Corel-Layer"/>
  <!-- <rect class="fil0" width="631.41" height="261.45"/> -->
  <g id="_2340282106512">
   <path class="fil1" d="M389.15 113.67l38.55 0 0 -82.97 -25.49 0 0 60.76 -11.1 0c-8.17,0 -12.42,-2.78 -12.42,-13.07l0 -47.69 -25.48 0 0 47.69c0,24.17 11.44,35.28 35.94,35.28z"/>
   <path class="fil1" d="M274.62 121.5l-38.56 0 0 82.98 25.49 0 0 -60.76 11.1 0c8.17,0 12.42,2.78 12.42,13.06l0 47.7 25.48 0 0 -47.7c0,-24.17 -11.44,-35.28 -35.93,-35.28z"/>
   <polygon class="fil1" points="344.7,113.67 344.7,30.7 319.06,30.7 319.06,60.54 294.91,60.54 294.91,30.7 269.27,30.7 269.27,113.67 294.91,113.67 294.91,82.09 319.06,82.09 319.06,113.67 "/>
   <path class="fil1" d="M443.97 185.46c-11.55,0.01 -15.61,-9.46 -15.61,-22.43 0,-13.01 4.1,-22.47 15.61,-22.49 11.51,-0.02 15.61,9.48 15.62,22.49 0,12.97 -4.07,22.41 -15.62,22.43zm0.07 -65.76c-28.16,0 -41.33,18.28 -41.33,43.37 -0.01,24.99 13.22,43.26 41.33,43.23 28.1,-0.03 41.33,-18.24 41.33,-43.23 -0.01,-25.09 -13.18,-43.38 -41.33,-43.37z"/>
   <path class="fil1" d="M221.35 94.64c-11.54,0.02 -15.17,-9.46 -15.17,-22.42 0,-13.01 3.66,-22.48 15.17,-22.5 11.52,-0.01 15.61,9.49 15.62,22.5 0,12.96 -4.07,22.41 -15.62,22.42zm41.4 -22.38c-0.01,-25.1 -13.18,-43.38 -41.33,-43.38 -23.54,0.01 -35.85,12.79 -39.25,31.65l-10.49 0 0 -29.83 -25.64 -0.02 0 83 25.64 0 0 -31.58 10.19 0c2.93,19.8 15.28,33.41 39.55,33.38 28.11,-0.02 41.34,-18.23 41.33,-43.22z"/>
   <path class="fil1" d="M353 182.13l-8.49 0 0 -38.3 8.49 0c11.75,0 18.28,4.6 18.28,19.04 0,14.45 -6.53,19.26 -18.28,19.26zm1.47 -60.63l-35.41 0 0 111.07 25.45 0 0 -28.09 9.96 0c27.75,0 42.93,-13.86 42.93,-41.61 0,-27.74 -15.18,-41.37 -42.93,-41.37z"/>
  </g>
 </g>
</svg>
