<?xml version="1.0" encoding="UTF-8"?>
<!DOCTYPE svg PUBLIC "-//W3C//DTD SVG 1.1//EN" "http://www.w3.org/Graphics/SVG/1.1/DTD/svg11.dtd">
<!-- Creator: CorelDRAW 2020 (64-Bit) -->
<svg xmlns="http://www.w3.org/2000/svg" xml:space="preserve" width="593px" height="46px" version="1.1" style="shape-rendering:geometricPrecision; text-rendering:geometricPrecision; image-rendering:optimizeQuality; fill-rule:evenodd; clip-rule:evenodd"
viewBox="0 0 55.14 4.26"
 xmlns:xlink="http://www.w3.org/1999/xlink"
 xmlns:xodm="http://www.corel.com/coreldraw/odm/2003">
 <defs>
  <style type="text/css">
   <![CDATA[
    .fil0 {fill:#014590;fill-rule:nonzero}
   ]]>
  </style>
 </defs>
 <g id="Слой_x0020_1">
  <metadata id="CorelCorpID_0Corel-Layer"/>
  <path class="fil0" d="M1.58 4.25c0.7,0 1.21,-0.34 1.44,-0.91 0.02,-0.03 0,-0.06 -0.03,-0.07l-0.66 -0.3c-0.04,-0.02 -0.07,-0.01 -0.09,0.03 -0.11,0.27 -0.31,0.47 -0.65,0.47 -0.32,0 -0.53,-0.17 -0.62,-0.46 -0.05,-0.15 -0.07,-0.3 -0.07,-0.88 0,-0.59 0.02,-0.74 0.07,-0.89 0.09,-0.28 0.3,-0.45 0.62,-0.45 0.34,0 0.54,0.2 0.65,0.46 0.02,0.04 0.05,0.05 0.09,0.03l0.66 -0.29c0.03,-0.01 0.05,-0.04 0.03,-0.08 -0.23,-0.57 -0.74,-0.91 -1.44,-0.91 -0.72,0 -1.25,0.34 -1.46,1.01 -0.1,0.27 -0.12,0.48 -0.12,1.12 0,0.63 0.02,0.84 0.12,1.11 0.21,0.67 0.74,1.01 1.46,1.01zm2.24 -0.04l0.4 0c0.58,0 0.87,-0.35 1.03,-0.72l1.43 -3.36c0.02,-0.04 0.01,-0.06 -0.03,-0.06l-0.81 0c-0.06,0 -0.07,0.02 -0.08,0.05l-0.72 1.82 -0.02 0 -0.81 -1.82c-0.01,-0.03 -0.02,-0.05 -0.09,-0.05l-0.81 0c-0.03,0 -0.06,0.02 -0.04,0.07l1.33 2.83 -0.08 0.19c-0.07,0.15 -0.18,0.26 -0.45,0.26l-0.25 0c-0.03,0 -0.06,0.02 -0.06,0.05l0 0.68c0,0.04 0.03,0.06 0.06,0.06zm3.39 -0.02l0.77 0c0.04,0 0.06,-0.03 0.06,-0.06l0 -1.38c0,-0.02 0.01,-0.04 0.04,-0.04l0.73 0c0.89,0 1.44,-0.54 1.44,-1.32 0,-0.78 -0.54,-1.32 -1.44,-1.32l-1.6 0c-0.04,0 -0.06,0.02 -0.06,0.06l0 4c0,0.03 0.02,0.06 0.06,0.06zm0.87 -2.25c-0.03,0 -0.04,-0.01 -0.04,-0.03l0 -1.04c0,-0.02 0.01,-0.03 0.04,-0.03l0.67 0c0.38,0 0.6,0.22 0.6,0.55 0,0.34 -0.22,0.55 -0.6,0.55l-0.67 0zm2.8 2.25l0.77 0c0.03,0 0.06,-0.03 0.06,-0.06l0 -3.23c0,-0.03 0.01,-0.04 0.03,-0.04l1.58 0c0.04,0 0.06,-0.02 0.06,-0.05l0 -0.68c0,-0.04 -0.02,-0.06 -0.06,-0.06l-2.44 0c-0.04,0 -0.06,0.02 -0.06,0.06l0 4c0,0.03 0.02,0.06 0.06,0.06zm3.19 0.02l0.4 0c0.59,0 0.87,-0.35 1.03,-0.72l1.43 -3.36c0.02,-0.04 0.01,-0.06 -0.03,-0.06l-0.81 0c-0.06,0 -0.07,0.02 -0.08,0.05l-0.72 1.82 -0.02 0 -0.81 -1.82c-0.01,-0.03 -0.02,-0.05 -0.09,-0.05l-0.81 0c-0.03,0 -0.06,0.02 -0.04,0.07l1.34 2.83 -0.09 0.19c-0.07,0.15 -0.18,0.26 -0.45,0.26l-0.25 0c-0.03,0 -0.06,0.02 -0.06,0.05l0 0.68c0,0.04 0.03,0.06 0.06,0.06zm4.24 -0.02l0.77 0c0.04,0 0.06,-0.03 0.06,-0.06l0 -3.23c0,-0.03 0.01,-0.04 0.04,-0.04l1.04 0c0.03,0 0.06,-0.02 0.06,-0.06l0 -0.67c0,-0.04 -0.03,-0.06 -0.06,-0.06l-3.05 0c-0.04,0 -0.06,0.02 -0.06,0.06l0 0.67c0,0.04 0.02,0.06 0.06,0.06l1.04 0c0.03,0 0.04,0.01 0.04,0.04l0 3.23c0,0.03 0.02,0.06 0.06,0.06zm3.82 0.06c0.69,0 1.2,-0.34 1.43,-0.91 0.02,-0.03 0.01,-0.06 -0.03,-0.07l-0.66 -0.3c-0.03,-0.02 -0.06,-0.01 -0.08,0.03 -0.12,0.27 -0.31,0.47 -0.66,0.47 -0.32,0 -0.52,-0.17 -0.62,-0.46 -0.04,-0.15 -0.06,-0.3 -0.06,-0.88 0,-0.59 0.02,-0.74 0.06,-0.89 0.1,-0.28 0.3,-0.45 0.62,-0.45 0.35,0 0.54,0.2 0.66,0.46 0.02,0.04 0.05,0.05 0.08,0.03l0.66 -0.29c0.04,-0.01 0.05,-0.04 0.03,-0.08 -0.23,-0.57 -0.74,-0.91 -1.43,-0.91 -0.72,0 -1.25,0.34 -1.47,1.01 -0.09,0.27 -0.11,0.48 -0.11,1.12 0,0.63 0.02,0.84 0.11,1.11 0.22,0.67 0.75,1.01 1.47,1.01zm2.07 -0.06l0.77 0c0.03,0 0.06,-0.03 0.06,-0.06l0 -1.6c0,-0.02 0.01,-0.03 0.04,-0.03l0.28 0c0.22,0 0.42,0.05 0.54,0.37l0.26 0.67c0.19,0.5 0.47,0.67 0.96,0.67l0.29 0c0.03,0 0.06,-0.02 0.06,-0.06l0 -0.68c0,-0.03 -0.03,-0.05 -0.06,-0.05l-0.07 0c-0.2,0 -0.3,-0.06 -0.38,-0.28l-0.25 -0.66c-0.08,-0.22 -0.19,-0.37 -0.4,-0.43l0 -0.02c0.17,-0.07 0.28,-0.25 0.35,-0.44l0.2 -0.5c0.08,-0.21 0.17,-0.28 0.4,-0.28l0.05 0c0.03,0 0.06,-0.02 0.06,-0.05l0 -0.66c0,-0.04 -0.03,-0.06 -0.06,-0.06l-0.25 0c-0.47,0 -0.75,0.15 -0.95,0.66l-0.26 0.64c-0.08,0.2 -0.22,0.36 -0.48,0.36l-0.29 0c-0.03,0 -0.04,-0.01 -0.04,-0.03l0 -1.54c0,-0.04 -0.03,-0.06 -0.06,-0.06l-0.77 0c-0.04,0 -0.06,0.02 -0.06,0.06l0 4c0,0.03 0.02,0.06 0.06,0.06zm3.54 -0.06c-0.02,0.03 0,0.06 0.04,0.06l0.79 0c0.05,0 0.07,-0.02 0.08,-0.06l0.23 -0.73 1.44 0 0.24 0.73c0.01,0.04 0.04,0.06 0.08,0.06l0.79 0c0.04,0 0.05,-0.03 0.04,-0.06l-1.39 -4c-0.02,-0.04 -0.04,-0.06 -0.08,-0.06l-0.77 0c-0.04,0 -0.06,0.02 -0.08,0.06l-1.41 4zm1.39 -1.48l0.47 -1.44 0.02 0 0.46 1.44 -0.95 0zm2.65 1.56l0.28 0c0.48,0 0.76,-0.17 0.95,-0.67l0.23 -0.57c0.13,-0.29 0.28,-0.32 0.48,-0.32l0.31 0c0.02,0 0.03,0.02 0.03,0.04l0 1.44c0,0.03 0.03,0.06 0.06,0.06l0.78 0c0.03,0 0.05,-0.03 0.05,-0.06l0 -4.01c0,-0.03 -0.01,-0.05 -0.05,-0.05l-1.7 0c-0.86,0 -1.36,0.55 -1.36,1.24 0,0.68 0.41,1 0.84,1.1l0 0.03c-0.14,0.09 -0.22,0.21 -0.28,0.35l-0.17 0.4c-0.06,0.15 -0.15,0.23 -0.36,0.23l-0.09 0c-0.03,0 -0.06,0.02 -0.06,0.05l0 0.68c0,0.04 0.03,0.06 0.06,0.06zm1.51 -2.31c-0.31,0 -0.55,-0.17 -0.55,-0.53 0,-0.36 0.24,-0.53 0.55,-0.53l0.74 0c0.02,0 0.03,0.01 0.03,0.04l0 0.98c0,0.02 -0.01,0.04 -0.03,0.04l-0.74 0zm3.94 2.29l0.77 0c0.04,0 0.06,-0.03 0.06,-0.06l0 -3.23c0,-0.03 0.01,-0.04 0.04,-0.04l1.58 0c0.04,0 0.06,-0.02 0.06,-0.05l0 -0.68c0,-0.04 -0.02,-0.06 -0.06,-0.06l-2.45 0c-0.04,0 -0.06,0.02 -0.06,0.06l0 4c0,0.03 0.02,0.06 0.06,0.06zm3.03 0l0.77 0c0.04,0 0.06,-0.03 0.06,-0.06l0 -1.38c0,-0.02 0.01,-0.04 0.04,-0.04l0.73 0c0.89,0 1.44,-0.54 1.44,-1.32 0,-0.78 -0.54,-1.32 -1.44,-1.32l-1.6 0c-0.04,0 -0.06,0.02 -0.06,0.06l0 4c0,0.03 0.02,0.06 0.06,0.06zm0.87 -2.25c-0.03,0 -0.04,-0.01 -0.04,-0.03l0 -1.04c0,-0.02 0.01,-0.03 0.04,-0.03l0.68 0c0.37,0 0.6,0.22 0.6,0.55 0,0.34 -0.23,0.55 -0.6,0.55l-0.68 0zm3.93 2.32c0.7,0 1.25,-0.32 1.48,-0.93 0.11,-0.31 0.14,-0.59 0.14,-1.21 0,-0.6 -0.03,-0.85 -0.12,-1.13 -0.22,-0.67 -0.79,-0.99 -1.5,-0.99 -0.69,0 -1.17,0.3 -1.41,0.87 -0.01,0.03 -0.01,0.06 0.03,0.08l0.63 0.28c0.05,0.02 0.07,0.01 0.09,-0.03 0.13,-0.27 0.32,-0.44 0.65,-0.44 0.32,0 0.58,0.17 0.68,0.46 0.03,0.11 0.06,0.24 0.06,0.46 0,0.03 -0.01,0.05 -0.04,0.05l-1.1 0c-0.02,0 -0.05,0.01 -0.05,0.06l0 0.63c0,0.05 0.03,0.06 0.05,0.06l1.1 0c0.02,0 0.04,0.01 0.04,0.04 0,0.28 -0.03,0.44 -0.08,0.55 -0.1,0.29 -0.37,0.42 -0.66,0.42 -0.33,0 -0.52,-0.16 -0.66,-0.44 -0.02,-0.03 -0.04,-0.04 -0.08,-0.03l-0.63 0.29c-0.04,0.02 -0.04,0.04 -0.03,0.08 0.23,0.55 0.72,0.87 1.41,0.87zm3.77 -0.01c0.7,0 1.21,-0.34 1.44,-0.91 0.02,-0.03 0.01,-0.06 -0.03,-0.07l-0.66 -0.3c-0.04,-0.02 -0.07,-0.01 -0.09,0.03 -0.11,0.27 -0.3,0.47 -0.65,0.47 -0.32,0 -0.53,-0.17 -0.62,-0.46 -0.05,-0.15 -0.06,-0.3 -0.06,-0.88 0,-0.59 0.01,-0.74 0.06,-0.89 0.09,-0.28 0.3,-0.45 0.62,-0.45 0.35,0 0.54,0.2 0.65,0.46 0.02,0.04 0.05,0.05 0.09,0.03l0.66 -0.29c0.04,-0.01 0.05,-0.04 0.03,-0.08 -0.23,-0.57 -0.74,-0.91 -1.44,-0.91 -0.72,0 -1.24,0.34 -1.46,1.01 -0.09,0.27 -0.12,0.48 -0.12,1.12 0,0.63 0.03,0.84 0.12,1.11 0.22,0.67 0.74,1.01 1.46,1.01zm1.94 -1.3l1.74 0c0.04,0 0.06,-0.02 0.06,-0.06l0 -0.62c0,-0.03 -0.02,-0.06 -0.06,-0.06l-1.74 0c-0.04,0 -0.06,0.03 -0.06,0.06l0 0.62c0,0.04 0.02,0.06 0.06,0.06zm3.52 1.18c0,0.03 0.03,0.06 0.06,0.06l0.73 0c0.04,0 0.06,-0.03 0.06,-0.06l0 -4c0,-0.04 -0.02,-0.06 -0.06,-0.06l-0.68 0c-0.04,0 -0.08,0.01 -0.11,0.03l-0.69 0.5c-0.03,0.02 -0.04,0.05 -0.04,0.08l0 0.76c0,0.04 0.03,0.06 0.07,0.03l0.65 -0.45 0.01 0 0 3.11z"/>
 </g>
</svg>
